<svg xmlns="http://www.w3.org/2000/svg" width="31.364" height="26.898" viewBox="0 0 31.364 26.898">
  <path id="Path_30925" data-name="Path 30925" d="M29.479,11.248a2.243,2.243,0,0,0-.388-.029H6.964l.482-.224a4.488,4.488,0,0,0,1.268-.9l6.2-6.2A2.323,2.323,0,0,0,15.245.918,2.244,2.244,0,0,0,11.879.627L.658,11.847a2.244,2.244,0,0,0,0,3.174l0,0L11.879,26.243a2.244,2.244,0,0,0,3.366-.224,2.323,2.323,0,0,0-.325-2.973L8.726,16.829A4.488,4.488,0,0,0,7.6,16.01l-.673-.3H28.968a2.323,2.323,0,0,0,2.368-1.885A2.244,2.244,0,0,0,29.479,11.248Z" transform="translate(0 0)" fill="#2699fb"/>
</svg>
