<svg xmlns="http://www.w3.org/2000/svg" width="95.604" height="97.225" viewBox="0 0 95.604 97.225">
  <g id="data" transform="translate(-4)">
    <g id="Group_17159" data-name="Group 17159" transform="translate(4)">
      <g id="Group_17158" data-name="Group 17158" transform="translate(0)">
        <path id="Path_30779" data-name="Path 30779" d="M76.919,0H12.1A8.112,8.112,0,0,0,4,8.1V59.955A8.1,8.1,0,0,0,10.078,67.8l.81-3.137a4.861,4.861,0,0,1-3.648-4.709V8.1A4.861,4.861,0,0,1,12.1,3.241H76.919A4.861,4.861,0,0,1,81.78,8.1v1.62h3.241V8.1A8.112,8.112,0,0,0,76.919,0Z" transform="translate(-4)" fill="#fff"/>
      </g>
    </g>
    <g id="Group_17161" data-name="Group 17161" transform="translate(10.482 6.482)">
      <g id="Group_17160" data-name="Group 17160" transform="translate(0)">
        <rect id="Rectangle_2108" data-name="Rectangle 2108" width="4" height="4" transform="translate(-0.482 -0.482)" fill="#fff"/>
      </g>
    </g>
    <g id="Group_17163" data-name="Group 17163" transform="translate(16.963 6.482)">
      <g id="Group_17162" data-name="Group 17162">
        <rect id="Rectangle_2109" data-name="Rectangle 2109" width="3" height="4" transform="translate(0.037 -0.482)" fill="#fff"/>
      </g>
    </g>
    <g id="Group_17165" data-name="Group 17165" transform="translate(23.445 6.482)">
      <g id="Group_17164" data-name="Group 17164">
        <rect id="Rectangle_2110" data-name="Rectangle 2110" width="4" height="4" transform="translate(-0.445 -0.482)" fill="#fff"/>
      </g>
    </g>
    <g id="Group_17167" data-name="Group 17167" transform="translate(20.204 25.927)">
      <g id="Group_17166" data-name="Group 17166">
        <path id="Path_30780" data-name="Path 30780" d="M162.926,191.671l-15.37-15.37a22.411,22.411,0,0,0,1.925-4.55h2.576V168.51h-1.88a21.833,21.833,0,0,0-1.361-11.612V140.963h-3.241v10.319a22.807,22.807,0,0,0-3.241-3.364V134.482h-3.241v11.171a22.536,22.536,0,0,0-3.241-1.548V128h-3.241v15.122a22.438,22.438,0,0,0-3.241-.455V131.241h-3.241v11.426a22.437,22.437,0,0,0-3.241.455v-5.4h-3.241v6.383a22.547,22.547,0,0,0-3.241,1.548V136.1h-3.241v11.816a22.807,22.807,0,0,0-3.241,3.364V139.343h-3.241V156.9a21.833,21.833,0,0,0-1.361,11.612H84v3.241h22.021A22.639,22.639,0,0,0,140.77,183.82l15,15a1.62,1.62,0,0,0,2.291,0l4.861-4.861A1.62,1.62,0,0,0,162.926,191.671Zm-35.174-6.956A19.445,19.445,0,1,1,147.2,165.27,19.466,19.466,0,0,1,127.751,184.715Zm29.168,10.672-13.631-13.631a22.957,22.957,0,0,0,2.439-2.7l13.762,13.762Z" transform="translate(-84 -128)" fill="#fff"/>
      </g>
    </g>
    <g id="Group_17169" data-name="Group 17169" transform="translate(47.751 46.992)">
      <g id="Group_17168" data-name="Group 17168">
        <path id="Path_30781" data-name="Path 30781" d="M236.2,232a16.2,16.2,0,1,0,16.2,16.2A16.2,16.2,0,0,0,236.2,232Zm0,29.168a12.963,12.963,0,0,1-11.21-6.482h22.42A12.963,12.963,0,0,1,236.2,261.168Zm-12.537-9.723A12.845,12.845,0,0,1,228.1,238.1v10.1h3.241V236.2a12.9,12.9,0,0,1,3.241-.843V248.2h3.241V235.353a12.9,12.9,0,0,1,3.241.843V248.2h3.241V238.1a12.845,12.845,0,0,1,4.435,13.344Z" transform="translate(-220 -232)" fill="#fff"/>
      </g>
    </g>
    <g id="Group_17171" data-name="Group 17171" transform="translate(13.723 12.963)">
      <g id="Group_17170" data-name="Group 17170">
        <path id="Path_30782" data-name="Path 30782" d="M124.919,64H60.1A8.112,8.112,0,0,0,52,72.1v51.853a8.112,8.112,0,0,0,8.1,8.1H81.168v-3.241H60.1a4.861,4.861,0,0,1-4.861-4.861V72.1A4.861,4.861,0,0,1,60.1,67.241h64.817A4.861,4.861,0,0,1,129.78,72.1v51.853a4.862,4.862,0,0,1-1.215,3.215L131,129.314a8.092,8.092,0,0,0,2.026-5.359V72.1A8.112,8.112,0,0,0,124.919,64Z" transform="translate(-52 -64)" fill="#fff"/>
      </g>
    </g>
    <g id="Group_17173" data-name="Group 17173" transform="translate(20.204 19.445)">
      <g id="Group_17172" data-name="Group 17172">
        <rect id="Rectangle_2111" data-name="Rectangle 2111" width="3" height="4" transform="translate(-0.204 -0.445)" fill="#fff"/>
      </g>
    </g>
    <g id="Group_17175" data-name="Group 17175" transform="translate(26.686 19.445)">
      <g id="Group_17174" data-name="Group 17174">
        <rect id="Rectangle_2112" data-name="Rectangle 2112" width="3" height="4" transform="translate(0.314 -0.445)" fill="#fff"/>
      </g>
    </g>
    <g id="Group_17177" data-name="Group 17177" transform="translate(33.168 19.445)">
      <g id="Group_17176" data-name="Group 17176">
        <rect id="Rectangle_2113" data-name="Rectangle 2113" width="3" height="4" transform="translate(-0.167 -0.445)" fill="#fff"/>
      </g>
    </g>
    <g id="Group_17179" data-name="Group 17179" transform="translate(23.445 53.474)">
      <g id="Group_17178" data-name="Group 17178">
        <rect id="Rectangle_2114" data-name="Rectangle 2114" width="4" height="10" transform="translate(-0.445 -0.474)" fill="#3bd4ae"/>
      </g>
    </g>
    <g id="Group_17181" data-name="Group 17181" transform="translate(29.927 43.751)">
      <g id="Group_17180" data-name="Group 17180">
        <rect id="Rectangle_2115" data-name="Rectangle 2115" width="3" height="19" transform="translate(0.073 0.249)" fill="#3bd4ae"/>
      </g>
    </g>
    <g id="Group_17183" data-name="Group 17183" transform="translate(36.408 48.613)">
      <g id="Group_17182" data-name="Group 17182">
        <rect id="Rectangle_2116" data-name="Rectangle 2116" width="4" height="14" transform="translate(-0.408 0.388)" fill="#3bd4ae"/>
      </g>
    </g>
  </g>
</svg>
