<svg xmlns="http://www.w3.org/2000/svg" width="19.095" height="19.096" viewBox="0 0 19.095 19.096">
  <g id="Group_17278" data-name="Group 17278" transform="translate(-1552 -8372.771)">
    <path id="Path_285" data-name="Path 285" d="M13.724,19.1a5.32,5.32,0,0,1-1.825-.326,19.463,19.463,0,0,1-7.067-4.5A19.462,19.462,0,0,1,.327,7.2,5.282,5.282,0,0,1,.057,4.6,5.416,5.416,0,0,1,2.841.636,5.317,5.317,0,0,1,5.386,0,.6.6,0,0,1,5.97.472l.937,4.371a.6.6,0,0,1-.162.547l-1.6,1.6a15.707,15.707,0,0,0,6.961,6.961l1.6-1.6a.6.6,0,0,1,.547-.162l4.371.937a.6.6,0,0,1,.472.583,5.317,5.317,0,0,1-.636,2.546,5.416,5.416,0,0,1-3.965,2.784,5.308,5.308,0,0,1-.771.057ZM4.91,1.22a4.181,4.181,0,0,0-3.462,5.57A18.1,18.1,0,0,0,12.306,17.647a4.181,4.181,0,0,0,5.57-3.462l-3.556-.762L12.649,15.1a.6.6,0,0,1-.676.118A16.9,16.9,0,0,1,3.882,7.122.6.6,0,0,1,4,6.446L5.672,4.775Z" transform="translate(1552 8372.771)" fill="#bcbdc2"/>
    <path id="Path_286" data-name="Path 286" d="M249.567,10.144a.6.6,0,0,1-.6-.6,8.363,8.363,0,0,0-8.354-8.354.6.6,0,1,1,0-1.193,9.547,9.547,0,0,1,9.547,9.547A.6.6,0,0,1,249.567,10.144Z" transform="translate(1320.931 8372.771)" fill="#bcbdc2"/>
    <path id="Path_287" data-name="Path 287" d="M247.18,71.757a.6.6,0,0,1-.6-.6,5.974,5.974,0,0,0-5.967-5.967.6.6,0,1,1,0-1.193,7.169,7.169,0,0,1,7.16,7.16A.6.6,0,0,1,247.18,71.757Z" transform="translate(1320.931 8311.158)" fill="#bcbdc2"/>
    <path id="Path_288" data-name="Path 288" d="M244.794,133.37a.6.6,0,0,1-.6-.6,3.584,3.584,0,0,0-3.58-3.58.6.6,0,1,1,0-1.193,4.779,4.779,0,0,1,4.774,4.774A.6.6,0,0,1,244.794,133.37Z" transform="translate(1320.931 8249.545)" fill="#bcbdc2"/>
  </g>
</svg>
