<svg id="to-do-list" xmlns="http://www.w3.org/2000/svg" width="81.581" height="101.977" viewBox="0 0 81.581 101.977">
  <path id="Path_31156" data-name="Path 31156" d="M73.083,10.2h-1.7V8.5a8.508,8.508,0,0,0-8.5-8.5H8.5A8.508,8.508,0,0,0,0,8.5V83.281a8.508,8.508,0,0,0,8.5,8.5h1.7v1.7a8.508,8.508,0,0,0,8.5,8.5H73.083a8.508,8.508,0,0,0,8.5-8.5V18.7A8.508,8.508,0,0,0,73.083,10.2Zm-15.3-6.8v7.794L55.589,9a1.7,1.7,0,0,0-2.4,0l-2.2,2.2V3.4ZM3.4,83.281V8.5A5.1,5.1,0,0,1,8.5,3.4H47.589V15.3a1.7,1.7,0,0,0,2.9,1.2l3.9-3.9,3.9,3.9a1.7,1.7,0,0,0,2.9-1.2V3.4h1.7a5.1,5.1,0,0,1,5.1,5.1V83.281a5.1,5.1,0,0,1-5.1,5.1H8.5a5.1,5.1,0,0,1-5.1-5.1Zm74.783,10.2a5.1,5.1,0,0,1-5.1,5.1H18.7a5.1,5.1,0,0,1-5.1-5.1v-1.7H62.886a8.508,8.508,0,0,0,8.5-8.5V13.6h1.7a5.1,5.1,0,0,1,5.1,5.1Zm0,0" fill="#3a678d"/>
  <path id="Path_31157" data-name="Path 31157" d="M64.879,68.658A1.7,1.7,0,0,0,63.3,67.545H49.7a1.7,1.7,0,0,0-1.7,1.7v13.6a1.7,1.7,0,0,0,1.7,1.7H63.3a1.7,1.7,0,0,0,1.7-1.7V73.348l4.6-4.6-2.4-2.4ZM61.6,81.142H51.4v-10.2H61.6v1l-3.4,3.4-2.2-2.2-2.4,2.4,3.4,3.4a1.7,1.7,0,0,0,2.4,0l2.2-2.2Zm0,0" transform="translate(-37.802 -52.249)" fill="#00b2e3"/>
  <path id="Path_31158" data-name="Path 31158" d="M67.194,178.344l-2.315,2.315a1.7,1.7,0,0,0-1.583-1.113H49.7a1.7,1.7,0,0,0-1.7,1.7v13.6a1.7,1.7,0,0,0,1.7,1.7H63.3a1.7,1.7,0,0,0,1.7-1.7v-9.494l4.6-4.6Zm-5.6,14.8H51.4v-10.2H61.6v1l-3.4,3.4-2.2-2.2-2.4,2.4,3.4,3.4a1.7,1.7,0,0,0,2.4,0l2.2-2.2Zm0,0" transform="translate(-37.803 -140.455)" fill="#00b2e3"/>
  <path id="Path_31159" data-name="Path 31159" d="M63.3,288H49.7a1.7,1.7,0,0,0-1.7,1.7v13.6a1.7,1.7,0,0,0,1.7,1.7H63.3a1.7,1.7,0,0,0,1.7-1.7V289.7A1.7,1.7,0,0,0,63.3,288Zm-1.7,13.6H51.4V291.4H61.6Zm0,0" transform="translate(-37.802 -226.814)" fill="#3a678d"/>
  <path id="Path_31160" data-name="Path 31160" d="M160,120h17v3.4H160Zm0,0" transform="translate(-126.008 -94.506)" fill="#3a678d"/>
  <path id="Path_31161" data-name="Path 31161" d="M160,88h10.2v3.4H160Zm0,0" transform="translate(-126.008 -69.304)" fill="#3a678d"/>
  <path id="Path_31162" data-name="Path 31162" d="M160,232h17v3.4H160Zm0,0" transform="translate(-126.008 -182.711)" fill="#3a678d"/>
  <path id="Path_31163" data-name="Path 31163" d="M160,200h10.2v3.4H160Zm0,0" transform="translate(-126.008 -157.51)" fill="#3a678d"/>
  <path id="Path_31164" data-name="Path 31164" d="M160,336h17v3.4H160Zm0,0" transform="translate(-126.008 -264.616)" fill="#3a678d"/>
  <path id="Path_31165" data-name="Path 31165" d="M160,304h10.2v3.4H160Zm0,0" transform="translate(-126.008 -239.415)" fill="#3a678d"/>
  <path id="Path_31166" data-name="Path 31166" d="M224,304h3.4v3.4H224Zm0,0" transform="translate(-176.411 -239.415)" fill="#3a678d"/>
</svg>
