<svg xmlns="http://www.w3.org/2000/svg" width="86.329" height="108.551" viewBox="0 0 86.329 108.551">
  <g id="Group_17271" data-name="Group 17271" transform="translate(-666.535 -226.534)">
    <path id="light-bulb_4_" data-name="light-bulb (4)" d="M130.145,41.611a41.61,41.61,0,0,1-23.671,37.554,1.809,1.809,0,1,1-1.562-3.264,38.209,38.209,0,0,0,21.614-34.29,1.809,1.809,0,0,1,3.618,0Zm-30.53,43.86a1.809,1.809,0,0,0-1.809,1.809v14.034a3.623,3.623,0,0,1-3.618,3.618H82.88a3.623,3.623,0,0,1-3.618-3.618V89.894H90.795a1.809,1.809,0,0,0,0-3.618H79.22a12.657,12.657,0,0,0-7.08-10.382,38.013,38.013,0,1,1,36-66.871,1.809,1.809,0,0,0,1.864-3.1,41.634,41.634,0,1,0-39.43,73.236,9.028,9.028,0,0,1,5.066,8.123v14.035a7.245,7.245,0,0,0,7.237,7.237H94.187a7.245,7.245,0,0,0,7.237-7.237V87.28a1.809,1.809,0,0,0-1.809-1.809ZM104.138,49.3a6.792,6.792,0,0,1-6.784,6.784H94.187V76.891a1.809,1.809,0,0,1-3.618,0V56.085H86.5V79.152a1.809,1.809,0,0,1-3.618,0V56.085H79.714A6.784,6.784,0,1,1,86.5,49.3v3.166h4.071V49.3a6.784,6.784,0,1,1,13.569,0ZM79.714,52.467H82.88V49.3a3.166,3.166,0,1,0-3.166,3.166ZM100.519,49.3a3.166,3.166,0,0,0-6.332,0v3.166h3.166A3.17,3.17,0,0,0,100.519,49.3Z" transform="translate(619.613 226.534)" fill="#3a678d"/>
    <path id="light-bulb_4_2" data-name="light-bulb (4)" d="M121.088,34.371a3.392,3.392,0,1,1-4.8,0,3.39,3.39,0,0,1,4.8,0ZM127,31.013a1.809,1.809,0,0,0,0-2.558,11.753,11.753,0,0,0-16.631,0,1.809,1.809,0,0,0,2.559,2.559,8.137,8.137,0,0,1,11.514,0,1.809,1.809,0,0,0,2.558,0Zm6.716-9.275a21.246,21.246,0,0,0-30.063,0,1.809,1.809,0,1,0,2.558,2.558,17.63,17.63,0,0,1,24.946,0,1.809,1.809,0,0,0,2.559-2.558Z" transform="translate(618.613 225.534)" fill="#3bd4ae"/>
  </g>
</svg>
