<svg xmlns="http://www.w3.org/2000/svg" width="72.589" height="36.585" viewBox="0 0 72.589 36.585">
  <g id="cpu" transform="translate(0.75 -7.437)">
    <path id="Path_30930" data-name="Path 30930" d="M180.433,140.175H143.694a3.524,3.524,0,0,0-3.52,3.52v14.231a3.524,3.524,0,0,0,3.52,3.52h36.739a3.524,3.524,0,0,0,3.52-3.52V143.695A3.523,3.523,0,0,0,180.433,140.175Zm.491,17.751a.492.492,0,0,1-.491.491H143.694a.492.492,0,0,1-.491-.491V143.695a.492.492,0,0,1,.491-.491h36.739a.492.492,0,0,1,.491.491Z" transform="translate(-126.907 -125.075)" fill="#fff" stroke="#000" stroke-width="1.5"/>
    <path id="Path_30931" data-name="Path 30931" d="M64.724,19.443V16.325L64.673,13.3a5.87,5.87,0,0,0-5.047-5.047A20.723,20.723,0,0,0,56.6,8.2h-42.1s-1.077-.01-3.029.051A5.87,5.87,0,0,0,6.416,13.3h-4.9a1.514,1.514,0,0,0,0,3.029H6.365v3.119H1.514a1.514,1.514,0,0,0,0,3.029H6.365V29l.051,9.176a5.87,5.87,0,0,0,5.047,5.047l3.029.051H56.6l3.029-.051a5.87,5.87,0,0,0,5.047-5.047h4.9a1.514,1.514,0,0,0,0-3.029H64.724V32.027h4.851a1.514,1.514,0,0,0,0-3.029H64.724s0-4.137,0-6.526S64.724,19.443,64.724,19.443ZM61.7,37.412a2.835,2.835,0,0,1-2.832,2.832H12.225a2.835,2.835,0,0,1-2.832-2.832V14.058a2.835,2.835,0,0,1,2.832-2.832H58.864A2.835,2.835,0,0,1,61.7,14.058Z" fill="#fff" stroke="#000" stroke-width="1.5"/>
  </g>
</svg>
