<svg xmlns="http://www.w3.org/2000/svg" width="90" height="89.772" viewBox="0 0 90 89.772">
  <g id="_24-hours" data-name="24-hours" transform="translate(-1 -1.154)">
    <path id="Path_31210" data-name="Path 31210" d="M26.934,63.479c.958.158,1.939.29,2.918.382l.29-2.889q-1.377-.135-2.727-.359Z" transform="translate(11.71 26.848)" fill="#3a678d"/>
    <path id="Path_31211" data-name="Path 31211" d="M6.736,20.435l-2.645-1.2c-.4.891-.781,1.806-1.125,2.723l2.719,1.016Q6.171,21.686,6.736,20.435Z" transform="translate(0.888 8.165)" fill="#3a678d"/>
    <path id="Path_31212" data-name="Path 31212" d="M10.812,14.2,8.567,12.365Q7.638,13.5,6.777,14.7L9.133,16.39Q9.941,15.271,10.812,14.2Z" transform="translate(2.609 5.062)" fill="#3a678d"/>
    <path id="Path_31213" data-name="Path 31213" d="M8.575,17.191l-2.468-1.53q-.775,1.248-1.47,2.549L7.2,19.577Q7.849,18.361,8.575,17.191Z" transform="translate(1.642 6.55)" fill="#3a678d"/>
    <path id="Path_31214" data-name="Path 31214" d="M13.409,11.524,11.422,9.4c-.71.666-1.409,1.367-2.077,2.083l2.122,1.981q.938-1,1.942-1.941Z" transform="translate(3.768 3.723)" fill="#3a678d"/>
    <path id="Path_31215" data-name="Path 31215" d="M26.441,4.645l-.665-2.826q-1.44.34-2.841.766l.846,2.777q1.314-.4,2.659-.717Z" transform="translate(9.905 0.3)" fill="#3a678d"/>
    <path id="Path_31216" data-name="Path 31216" d="M4.389,27.45l-2.871-.466Q1.282,28.427,1.14,29.9l2.89.277Q4.169,28.8,4.389,27.45Z" transform="translate(0.063 11.663)" fill="#3a678d"/>
    <path id="Path_31217" data-name="Path 31217" d="M30.084,4.043l-.29-2.889q-1.472.145-2.915.388l.475,2.864Q28.705,4.18,30.084,4.043Z" transform="translate(11.685 0)" fill="#3a678d"/>
    <path id="Path_31218" data-name="Path 31218" d="M19.5,7.238,18.125,4.682q-1.295.7-2.542,1.475l1.539,2.468Q18.287,7.891,19.5,7.238Z" transform="translate(6.585 1.593)" fill="#3a678d"/>
    <path id="Path_31219" data-name="Path 31219" d="M16.321,9.185l-1.7-2.356q-1.193.861-2.322,1.8l1.846,2.24q1.057-.872,2.174-1.679Z" transform="translate(5.102 2.562)" fill="#3a678d"/>
    <path id="Path_31220" data-name="Path 31220" d="M22.89,5.719,21.861,3q-1.378.523-2.713,1.132l1.206,2.642Q21.6,6.208,22.89,5.719Z" transform="translate(8.194 0.834)" fill="#3a678d"/>
    <path id="Path_31221" data-name="Path 31221" d="M5.329,23.874l-2.78-.838q-.422,1.4-.749,2.851l2.828.655q.3-1.354.7-2.668Z" transform="translate(0.361 9.88)" fill="#3a678d"/>
    <path id="Path_31222" data-name="Path 31222" d="M15.618,59.09q1.247.777,2.549,1.475l1.37-2.559q-1.215-.652-2.382-1.38Z" transform="translate(6.601 25.047)" fill="#3a678d"/>
    <path id="Path_31223" data-name="Path 31223" d="M3.9,32.445q0-.674.022-1.338l-2.9-.093Q1,31.719,1,32.445c0,.507,0,1.016.025,1.512l2.9-.1c-.017-.47-.025-.941-.025-1.415Z" transform="translate(0 13.483)" fill="#3a678d"/>
    <path id="Path_31224" data-name="Path 31224" d="M9.371,53.806q1.006,1.073,2.079,2.08l1.986-2.118q-1-.942-1.947-1.948Z" transform="translate(3.78 22.877)" fill="#3a678d"/>
    <path id="Path_31225" data-name="Path 31225" d="M19.192,61.061c.887.4,1.8.782,2.72,1.129l1.023-2.716q-1.29-.488-2.543-1.057Z" transform="translate(8.214 25.857)" fill="#3a678d"/>
    <path id="Path_31226" data-name="Path 31226" d="M22.988,62.533q1.4.425,2.842.761l.658-2.828q-1.346-.312-2.658-.711Z" transform="translate(9.928 26.46)" fill="#3a678d"/>
    <path id="Path_31227" data-name="Path 31227" d="M12.327,56.657q1.137.933,2.333,1.794l1.692-2.359q-1.119-.8-2.177-1.678Z" transform="translate(5.115 24.049)" fill="#3a678d"/>
    <path id="Path_31228" data-name="Path 31228" d="M4.038,34.866l-2.889.29q.145,1.472.383,2.916L4.4,37.6Q4.174,36.245,4.038,34.866Z" transform="translate(0.067 15.222)" fill="#3a678d"/>
    <path id="Path_31229" data-name="Path 31229" d="M4.634,38.6l-2.826.662q.335,1.438.761,2.841l2.778-.842q-.4-1.306-.713-2.661Z" transform="translate(0.365 16.908)" fill="#3a678d"/>
    <path id="Path_31230" data-name="Path 31230" d="M9.157,48.893,6.8,50.587q.861,1.193,1.791,2.331l2.244-1.838Q9.963,50.012,9.157,48.893Z" transform="translate(2.619 21.556)" fill="#3a678d"/>
    <path id="Path_31231" data-name="Path 31231" d="M5.7,42.231,2.985,43.257q.521,1.376,1.126,2.713l2.643-1.2Q6.187,43.521,5.7,42.231Z" transform="translate(0.896 18.548)" fill="#3a678d"/>
    <path id="Path_31232" data-name="Path 31232" d="M7.218,45.679,4.659,47.048c.459.858.954,1.714,1.472,2.546L8.6,48.057Q7.868,46.894,7.218,45.679Z" transform="translate(1.652 20.105)" fill="#3a678d"/>
    <path id="Path_31233" data-name="Path 31233" d="M65.095,11.9h3.193V9H61.031a1.452,1.452,0,0,0-1.452,1.452v7.258h2.9V13.372A42.081,42.081,0,0,1,32,84.48v2.9A44.99,44.99,0,0,0,65.1,11.9Z" transform="translate(13.998 3.543)" fill="#3a678d"/>
    <path id="Path_31234" data-name="Path 31234" d="M7,43.288A36.288,36.288,0,1,0,43.288,7,36.288,36.288,0,0,0,7,43.288ZM43.288,9.9A33.385,33.385,0,1,1,9.9,43.288,33.385,33.385,0,0,1,43.288,9.9Z" transform="translate(2.709 2.64)" fill="#3a678d"/>
    <path id="Path_31235" data-name="Path 31235" d="M41.482,71.964A30.482,30.482,0,1,0,11,41.482,30.482,30.482,0,0,0,41.482,71.964Zm0-58.061A27.579,27.579,0,1,1,13.9,41.482,27.579,27.579,0,0,1,41.482,13.9Z" transform="translate(4.515 4.446)" fill="#00b2e3"/>
    <path id="Path_31236" data-name="Path 31236" d="M18.9,31.806V31.08a2.177,2.177,0,1,1,4.355,0A4.569,4.569,0,0,1,22.2,34l-5.863,7.037a1.452,1.452,0,0,0,1.115,2.381h8.709v-2.9h-5.61l3.88-4.657a7.472,7.472,0,0,0,1.73-4.778A5.08,5.08,0,1,0,16,31.08v.726Z" transform="translate(6.773 11.219)" fill="#3a678d"/>
    <path id="Path_31237" data-name="Path 31237" d="M25.452,40.515h5.806v2.9h2.9v-2.9h2.9v-2.9h-2.9V27.452a1.452,1.452,0,0,0-2.682-.769L24.221,38.295a1.452,1.452,0,0,0,1.231,2.221Zm5.806-8v5.1H28.064Z" transform="translate(10.385 11.219)" fill="#3a678d"/>
    <path id="Path_31238" data-name="Path 31238" d="M0,0H17.954V2.9H0Z" transform="translate(48.954 54.306) rotate(-75.936)" fill="#3a678d"/>
    <path id="Path_31239" data-name="Path 31239" d="M42.9,28.9h4.809a32.008,32.008,0,0,0-3.357,14.27v.245h2.9v-.245A29.112,29.112,0,0,1,51.4,28.2,1.452,1.452,0,0,0,50.161,26H41.452A1.452,1.452,0,0,0,40,27.452v2.9h2.9Z" transform="translate(17.61 11.219)" fill="#3a678d"/>
  </g>
</svg>
