<svg xmlns="http://www.w3.org/2000/svg" width="99" height="99.023" viewBox="0 0 99 99.023">
  <g id="management_2_" data-name="management (2)" transform="translate(-2.014 -2)">
    <path id="Path_31240" data-name="Path 31240" d="M37,36h6.6v3.3H37Z" transform="translate(22.754 22.113)" fill="#3a678d"/>
    <path id="Path_31241" data-name="Path 31241" d="M43,36h6.6v3.3H43Z" transform="translate(26.657 22.113)" fill="#3a678d"/>
    <path id="Path_31242" data-name="Path 31242" d="M49,36h6.6v3.3H49Z" transform="translate(30.559 22.113)" fill="#3a678d"/>
    <path id="Path_31243" data-name="Path 31243" d="M33.65,38.455H38.6a1.65,1.65,0,0,0,1.65-1.65V18.65A1.65,1.65,0,0,0,38.6,17H33.65A1.65,1.65,0,0,0,32,18.65V36.8A1.65,1.65,0,0,0,33.65,38.455ZM35.3,20.3h1.65V35.154H35.3Z" transform="translate(19.502 9.756)" fill="#00b2e3"/>
    <path id="Path_31244" data-name="Path 31244" d="M40.65,42.357H45.6a1.65,1.65,0,0,0,1.65-1.65V12.65A1.65,1.65,0,0,0,45.6,11H40.65A1.65,1.65,0,0,0,39,12.65V40.707A1.65,1.65,0,0,0,40.65,42.357ZM42.3,14.3h1.65V39.057H42.3Z" transform="translate(24.055 5.853)" fill="#00b2e3"/>
    <path id="Path_31245" data-name="Path 31245" d="M47.65,45.609H52.6a1.65,1.65,0,0,0,1.65-1.65V7.65A1.65,1.65,0,0,0,52.6,6H47.65A1.65,1.65,0,0,0,46,7.65V43.959A1.65,1.65,0,0,0,47.65,45.609ZM49.3,9.3h1.65V42.309H49.3Z" transform="translate(28.608 2.602)" fill="#00b2e3"/>
    <path id="Path_31246" data-name="Path 31246" d="M99.364,64.715h-.479L89.461,52.6V3.65A1.65,1.65,0,0,0,87.811,2H15.194a1.65,1.65,0,0,0-1.65,1.65V52.6L2.337,67.009a1.674,1.674,0,0,0,1.3,2.657H19.369L21.8,76.878l4.951,12.906v9.589a1.65,1.65,0,0,0,1.65,1.65H51.5a1.65,1.65,0,0,0,1.65-1.65V89.735l3.3-9.638a1.964,1.964,0,0,0,0-.528v-9.9H61.4v19.8a1.65,1.65,0,0,0,1.65,1.65H73.816l-4.291,7.427a1.646,1.646,0,0,0,2.41,2.146l12.857-9.572H99.364a1.65,1.65,0,0,0,1.65-1.65V66.365A1.65,1.65,0,0,0,99.364,64.715ZM16.844,5.3H86.161V51.512H36.649V48.706a11.553,11.553,0,1,0-9.9,0v2.806h-9.9ZM31.7,36.658a5.083,5.083,0,0,0-4.951,5.2V44.91a8.252,8.252,0,0,1,3.3-14.688v3.136h3.3V30.222a8.252,8.252,0,0,1,3.3,14.688V41.857a5.083,5.083,0,0,0-4.951-5.2ZM6.942,66.365l8.995-11.553h10.81v5.281l-1.568.5,1.568-.528a5.215,5.215,0,0,0-4.951-3.6,4.242,4.242,0,0,0-1.485.248l-.165.083a4.72,4.72,0,0,0-2.608,2.377,5.232,5.232,0,0,0-.264,3.994l1.023,3.2Zm42.91,31.357h-19.8v-6.6h19.8Zm3.3-18.418L50.314,87.82H29.519L24.832,75.772l-4.291-13.2-.116-.38-1.65.479,1.568-.528a1.931,1.931,0,0,1,.083-1.518,1.452,1.452,0,0,1,.924-.809.941.941,0,0,1,.446-.05,1.9,1.9,0,0,1,1.65,1.353l3.218,9.9v.3h3.3V41.857a1.65,1.65,0,1,1,3.3,0V66.365h3.3v-9.9a1.65,1.65,0,0,1,3.3,0v13.2h3.3v-9.9a1.8,1.8,0,0,1,.215-.825,1.65,1.65,0,0,1,3.169.825v13.2h3.3v-9.9a1.65,1.65,0,0,1,3.3,0ZM61.4,66.365H56.454v-3.3A4.951,4.951,0,0,0,51.5,58.113a4.753,4.753,0,0,0-1.815.363,4.241,4.241,0,0,0-.512-1.188,4.8,4.8,0,0,0-6.106-2.079,1.8,1.8,0,0,0-.116-.4H87l7.707,9.9H63.055A1.65,1.65,0,0,0,61.4,66.365ZM97.713,87.82H84.23a1.65,1.65,0,0,0-.974.33L76.39,93.266l1.65-2.971A1.65,1.65,0,0,0,76.6,87.82h-11.9v-19.8H97.713Z" fill="#3a678d"/>
    <path id="Path_31247" data-name="Path 31247" d="M46.951,54.9A4.951,4.951,0,1,0,42,49.951,4.951,4.951,0,0,0,46.951,54.9Zm0-6.6a1.65,1.65,0,1,1-1.65,1.65A1.65,1.65,0,0,1,46.951,48.3Z" transform="translate(26.006 27.967)" fill="#3a678d"/>
    <path id="Path_31248" data-name="Path 31248" d="M56.951,54.9A4.951,4.951,0,1,0,52,49.951,4.951,4.951,0,0,0,56.951,54.9Zm0-6.6a1.65,1.65,0,1,1-1.65,1.65A1.65,1.65,0,0,1,56.951,48.3Z" transform="translate(32.51 27.967)" fill="#3a678d"/>
  </g>
</svg>
