<svg xmlns="http://www.w3.org/2000/svg" width="117.828" height="119.07" viewBox="0 0 117.828 119.07">
  <g id="OUTLINE" transform="translate(-16 -10.937)">
    <path id="Path_31179" data-name="Path 31179" d="M431.71,71.3V21.018a5.853,5.853,0,0,0-1.726-4.166l-4.166-4.166-4.166,4.166a5.853,5.853,0,0,0-1.726,4.166V71.3A9.011,9.011,0,0,0,416,78.769v42.74a9.819,9.819,0,1,0,19.638,0V78.769A9.011,9.011,0,0,0,431.71,71.3Zm-7.28-51.667,1.389-1.388,1.389,1.388a1.951,1.951,0,0,1,.575,1.389V70.45h-3.928V21.018a1.951,1.951,0,0,1,.575-1.389Zm7.28,101.879a5.891,5.891,0,1,1-11.783,0V78.769a5.11,5.11,0,0,1,2.467-4.391h6.85a5.11,5.11,0,0,1,2.466,4.391Z" transform="translate(-301.81 -1.32)" fill="#3a678d"/>
    <path id="Path_31180" data-name="Path 31180" d="M21.153,267.348a5.137,5.137,0,0,0,5.083-4.306l.832-4.99A2.966,2.966,0,0,1,30,255.565h.451a1.969,1.969,0,0,1,1.926,1.579l1.294,6.471v33.19H37.6V265.384h7.855v31.421h3.928v-33.19l1.294-6.471a1.969,1.969,0,0,1,1.926-1.579h.476a1.58,1.58,0,0,1,1.421.878,5.486,5.486,0,0,0,4.934,3.049h2.107a5.523,5.523,0,0,0,5.516-5.516V237.516A5.523,5.523,0,0,0,61.542,232H59.667a5.859,5.859,0,0,0-5.27,3.257,1.207,1.207,0,0,1-1.085.671H35.6a19.622,19.622,0,0,0-19.6,19.6v6.667a5.159,5.159,0,0,0,5.153,5.153Zm-1.226-11.82A15.69,15.69,0,0,1,35.6,239.855H53.312a5.113,5.113,0,0,0,4.6-2.842,1.953,1.953,0,0,1,1.757-1.086h1.875a1.591,1.591,0,0,1,1.589,1.589v16.46a1.591,1.591,0,0,1-1.589,1.589H59.435a1.58,1.58,0,0,1-1.421-.878,5.486,5.486,0,0,0-4.934-3.049H52.6a5.907,5.907,0,0,0-5.777,4.736l-1.017,5.083H37.248l-1.017-5.083a5.907,5.907,0,0,0-5.777-4.736H30a6.881,6.881,0,0,0-6.809,5.768l-.832,4.99a1.226,1.226,0,0,1-2.435-.2Z" transform="translate(0 -166.798)" fill="#3a678d"/>
    <path id="Path_31181" data-name="Path 31181" d="M22.343,45.16,19.4,49.967l5.839,5.839,4.807-2.946,2.119.878,1.31,5.464h8.259l1.31-5.465,2.119-.878,4.807,2.946,5.839-5.839L52.861,45.16l.878-2.119,5.465-1.31V33.472l-5.465-1.31-.878-2.119,2.946-4.807L49.967,19.4,45.16,22.343l-2.119-.878L41.731,16H33.472l-1.31,5.464-2.119.878L25.236,19.4,19.4,25.236l2.946,4.807-.878,2.119L16,33.472v8.259l5.465,1.31Zm-2.415-8.591,4.4-1.055L26.737,29.7l-2.374-3.874,1.46-1.46L29.7,26.737l5.817-2.411,1.055-4.4h2.065l1.055,4.4,5.817,2.411,3.874-2.374,1.46,1.46L48.466,29.7l2.41,5.817,4.4,1.055v2.065l-4.4,1.055-2.411,5.817L50.84,49.38l-1.46,1.46-3.874-2.374-5.817,2.41-1.055,4.4H36.569l-1.055-4.4L29.7,48.466,25.824,50.84l-1.46-1.46,2.374-3.874-2.41-5.817-4.4-1.055Z" transform="translate(0 -3.82)" fill="#00b2e3"/>
    <path id="Path_31182" data-name="Path 31182" d="M79.855,87.71A7.855,7.855,0,1,0,72,79.855,7.855,7.855,0,0,0,79.855,87.71Zm0-11.783a3.928,3.928,0,1,1-3.928,3.928A3.928,3.928,0,0,1,79.855,75.928Z" transform="translate(-42.253 -46.074)" fill="#00b2e3"/>
    <rect id="Rectangle_2137" data-name="Rectangle 2137" width="3.928" height="41.24" transform="translate(122.045 78.949)" fill="#3a678d"/>
    <path id="Path_31183" data-name="Path 31183" d="M276.277,171.812l8.879-7.4a5.876,5.876,0,0,0,2.12-4.526V142.552a5.859,5.859,0,0,0-3.257-5.269l-12.454-6.227v21.189a1.951,1.951,0,0,1-.575,1.389l-1.964,1.964a1.964,1.964,0,0,1-2.777,0l-1.964-1.964a1.951,1.951,0,0,1-.575-1.389V131.056l-12.454,6.227A5.859,5.859,0,0,0,248,142.552v17.335a5.876,5.876,0,0,0,2.12,4.526l8.879,7.4a1.975,1.975,0,0,1,.7,1.59l-1.556,37.344a9.5,9.5,0,1,0,18.981,0L275.572,173.4A1.975,1.975,0,0,1,276.277,171.812Zm-2.514-3.017a5.926,5.926,0,0,0-2.115,4.771L273.2,210.91a5.571,5.571,0,1,1-11.132,0l1.556-37.344a5.926,5.926,0,0,0-2.115-4.771l-8.879-7.4a1.958,1.958,0,0,1-.707-1.509V142.552a1.953,1.953,0,0,1,1.086-1.757l6.77-3.385v14.834a5.853,5.853,0,0,0,1.726,4.166l1.964,1.964a5.891,5.891,0,0,0,8.332,0l1.964-1.964a5.853,5.853,0,0,0,1.726-4.166V137.411l6.77,3.385a1.953,1.953,0,0,1,1.086,1.757v17.335a1.959,1.959,0,0,1-.707,1.509Z" transform="translate(-175.05 -90.633)" fill="#3a678d"/>
    <rect id="Rectangle_2138" data-name="Rectangle 2138" width="3.928" height="5.891" transform="translate(90.624 114.297)" fill="#3a678d"/>
    <path id="Path_31184" data-name="Path 31184" d="M82.507,21.08l4.448,7.785,3.41-1.949L81.235,10.937l-13.6,13.6,2.777,2.777,8.332-8.332A43.257,43.257,0,0,1,35.638,59.311H16v3.928H35.638A47.2,47.2,0,0,0,82.507,21.08Z" fill="#3a678d"/>
  </g>
</svg>
