<svg xmlns="http://www.w3.org/2000/svg" width="106.001" height="104.234" viewBox="0 0 106.001 104.234">
  <g id="hand_1_" data-name="hand (1)" transform="translate(0)">
    <path id="Path_31185" data-name="Path 31185" d="M199.793,47.819a15.9,15.9,0,1,0-22.967,14.222v5.211a1.767,1.767,0,0,0,1.767,1.767,5.3,5.3,0,1,0,10.6,0,1.767,1.767,0,0,0,1.767-1.767v-5.3a15.9,15.9,0,0,0,8.833-14.133ZM189.44,58.86a3.535,3.535,0,0,0-2.014,3.2v3.427a1.767,1.767,0,0,0-1.767,1.767v1.767a1.767,1.767,0,1,1-3.533,0h1.767V65.486h-3.533V62.094l3.533-.141a1.767,1.767,0,0,0,0-3.533H177.6a12.366,12.366,0,0,1,4.841-22.878,12.171,12.171,0,0,1,9.681,3.056A12.366,12.366,0,0,1,189.44,58.86Zm0,0" transform="translate(-130.892 -24.852)" fill="#00b2e3"/>
    <path id="Path_31186" data-name="Path 31186" d="M136,96h3.533v3.533H136Zm0,0" transform="translate(-105.967 -74.8)" fill="#00b2e3"/>
    <path id="Path_31187" data-name="Path 31187" d="M328,96h3.533v3.533H328Zm0,0" transform="translate(-255.566 -74.8)" fill="#00b2e3"/>
    <path id="Path_31188" data-name="Path 31188" d="M145.98,142.813l3.061-1.766,1.766,3.06-3.061,1.767Zm0,0" transform="translate(-113.743 -109.899)" fill="#00b2e3"/>
    <path id="Path_31189" data-name="Path 31189" d="M312.219,46.891l3.06-1.766,1.767,3.06-3.061,1.767Zm0,0" transform="translate(-243.27 -35.16)" fill="#00b2e3"/>
    <path id="Path_31190" data-name="Path 31190" d="M277.047,12.95l1.767-3.06,3.06,1.766-1.766,3.061Zm0,0" transform="translate(-215.865 -7.706)" fill="#00b2e3"/>
    <path id="Path_31191" data-name="Path 31191" d="M232,0h3.533V3.533H232Zm0,0" transform="translate(-180.766)" fill="#00b2e3"/>
    <path id="Path_31192" data-name="Path 31192" d="M181.1,11.692l3.061-1.767,1.766,3.061-3.06,1.766Zm0,0" transform="translate(-141.105 -7.734)" fill="#00b2e3"/>
    <path id="Path_31193" data-name="Path 31193" d="M312.168,144.15l1.766-3.061,3.061,1.767-1.766,3.06Zm0,0" transform="translate(-243.23 -109.932)" fill="#00b2e3"/>
    <path id="Path_31194" data-name="Path 31194" d="M145.926,48.068l1.767-3.061,3.06,1.767-1.766,3.06Zm0,0" transform="translate(-113.701 -35.068)" fill="#00b2e3"/>
    <path id="Path_31195" data-name="Path 31195" d="M36.217,176.636A6.149,6.149,0,0,0,31.8,178.4a6.22,6.22,0,0,0-1.767,4.381v2.12L26.5,179.6V160.1a6.379,6.379,0,0,0-5.548-6.431,6.174,6.174,0,0,0-3,.46,6.166,6.166,0,0,0-4.064-2.226A6.309,6.309,0,0,0,9.1,153.475a6.2,6.2,0,0,0-2.032,4.611v.883H6.819a6.309,6.309,0,0,0-4.788,1.573A6.2,6.2,0,0,0,0,165.153v25.617a1.763,1.763,0,0,0,.248.9L10.6,208.931V222.57h3.533V208.436a1.762,1.762,0,0,0-.248-.9L3.533,190.275V165.153a2.7,2.7,0,0,1,.866-1.979,2.807,2.807,0,0,1,2.049-.671,3.176,3.176,0,0,1,.619.159v19.275H10.6v-23.85a2.649,2.649,0,0,1,2.933-2.65,2.576,2.576,0,0,1,1.678.972,6.112,6.112,0,0,0-1.077,3.445V183.7h3.533v-23.85a2.666,2.666,0,0,1,.866-1.961A2.6,2.6,0,0,1,20.6,157.2a2.809,2.809,0,0,1,2.367,2.9v20.069a1.768,1.768,0,0,0,.3.972L30.033,191.3v1.236h3.533v-9.717a2.615,2.615,0,0,1,.777-1.873,2.65,2.65,0,0,1,4.523,1.873v11.2l-5.212,15.618a2.127,2.127,0,0,0-.088.565V222.57H37.1V210.486l5.3-15.617a2.072,2.072,0,0,0,0-.566V182.819a6.183,6.183,0,0,0-6.183-6.183Zm0,0" transform="translate(0 -118.336)" fill="#3a678d"/>
    <path id="Path_31196" data-name="Path 31196" d="M323.5,158.944h-.229v-.883a6.165,6.165,0,0,0-6.819-6.183,6.026,6.026,0,0,0-4.064,2.244,6.208,6.208,0,0,0-3-.477,6.379,6.379,0,0,0-5.548,6.431v19.54l-3.533,5.3v-2.12a6.184,6.184,0,1,0-12.367-.035v11.519a2.145,2.145,0,0,0,0,.566l5.3,15.617v12.084h3.533V210.178a2.066,2.066,0,0,0,0-.565l-5.3-15.618v-11.2a2.65,2.65,0,0,1,4.523-1.873,2.615,2.615,0,0,1,.777,1.873v9.717H300.3v-1.236l6.767-10.158a1.768,1.768,0,0,0,.3-.972V160.075a2.81,2.81,0,0,1,2.367-2.9,2.649,2.649,0,0,1,2.933,2.65v23.85H316.2v-23.85a6.112,6.112,0,0,0-1.077-3.445,2.579,2.579,0,0,1,1.767-.972,2.741,2.741,0,0,1,2.067.671,2.7,2.7,0,0,1,.777,1.979v23.85h3.533V162.636a3.438,3.438,0,0,1,.6-.159,2.8,2.8,0,0,1,2.068.671,2.7,2.7,0,0,1,.865,1.979V190.25l-10.353,17.261a1.762,1.762,0,0,0-.248.9v14.133h3.533V208.906l10.353-17.261a1.763,1.763,0,0,0,.248-.9V165.127a6.166,6.166,0,0,0-6.837-6.183Zm0,0" transform="translate(-224.333 -118.31)" fill="#3a678d"/>
  </g>
</svg>
