<svg id="task" xmlns="http://www.w3.org/2000/svg" width="100" height="100" viewBox="0 0 100 100">
  <g id="Group_17157" data-name="Group 17157" transform="translate(0 0)">
    <path id="Path_30768" data-name="Path 30768" d="M192.068,70.605a1.465,1.465,0,0,0-.4,2.032,15.887,15.887,0,0,1-.054,17.707,8.6,8.6,0,0,0-6.516-5.478,9.357,9.357,0,1,0-13.316,0,8.6,8.6,0,0,0-6.516,5.478,15.9,15.9,0,0,1,21.993-22.116,1.465,1.465,0,0,0,1.628-2.436,18.824,18.824,0,1,0,5.216,5.217A1.465,1.465,0,0,0,192.068,70.605Zm-13.631,1.268a6.427,6.427,0,1,1-6.427,6.427A6.434,6.434,0,0,1,178.436,71.873ZM167.673,93.143a5.643,5.643,0,0,1,5.634-5.486h10.26a5.643,5.643,0,0,1,5.634,5.486,15.859,15.859,0,0,1-21.527,0Z" transform="translate(-128.436 -50.398)" fill="#3bd4ae"/>
    <path id="Path_30769" data-name="Path 30769" d="M409.57,390.832H414.3a1.465,1.465,0,0,0,0-2.93H409.57a1.465,1.465,0,0,0,0,2.93Z" transform="translate(-328.397 -312.14)" fill="#fff"/>
    <path id="Path_30770" data-name="Path 30770" d="M409.57,423.158h11.049a1.465,1.465,0,1,0,0-2.93H409.57a1.465,1.465,0,1,0,0,2.93Z" transform="translate(-328.397 -338.152)" fill="#fff"/>
    <path id="Path_30771" data-name="Path 30771" d="M409.57,455.483h11.049a1.465,1.465,0,0,0,0-2.93H409.57a1.465,1.465,0,0,0,0,2.93Z" transform="translate(-328.397 -364.164)" fill="#fff"/>
    <path id="Path_30772" data-name="Path 30772" d="M98.993,75.613l-5.155-5.153a3.407,3.407,0,0,0-2.433-1.01H88.162V31.059A1.465,1.465,0,0,0,86.7,29.595H81.059V28.3a1.465,1.465,0,0,0-1.166-1.434l-5.315-1.107c-.174-.809-.388-1.61-.639-2.395l4.047-3.615a1.465,1.465,0,0,0,.293-1.825l-2.762-4.784a1.465,1.465,0,0,0-1.727-.659l-5.162,1.7q-.83-.916-1.748-1.748l1.7-5.162a1.465,1.465,0,0,0-.659-1.727L63.137,2.78a1.465,1.465,0,0,0-1.825.293L57.7,7.12c-.785-.252-1.585-.465-2.395-.639L54.2,1.166A1.464,1.464,0,0,0,52.762,0H47.238A1.465,1.465,0,0,0,45.8,1.166L44.7,6.481c-.809.174-1.61.387-2.395.639L38.687,3.073a1.465,1.465,0,0,0-1.825-.293L32.078,5.542a1.465,1.465,0,0,0-.659,1.727l1.7,5.162q-.916.83-1.748,1.748l-5.162-1.7a1.465,1.465,0,0,0-1.727.659l-2.762,4.784a1.465,1.465,0,0,0,.293,1.825l4.047,3.615c-.252.785-.466,1.585-.639,2.395l-5.315,1.107A1.465,1.465,0,0,0,18.941,28.3v1.3H13.3a1.465,1.465,0,0,0-1.465,1.465v38.39h-8.4A3.442,3.442,0,0,0,0,72.887V96.563A3.441,3.441,0,0,0,3.437,100h19.73a3.442,3.442,0,0,0,3.438-3.437V90.377a1.465,1.465,0,1,0-2.93,0v6.186a.508.508,0,0,1-.508.508H3.437a.508.508,0,0,1-.508-.508V72.887a.508.508,0,0,1,.508-.508H17.362v2.875A3.442,3.442,0,0,0,20.8,78.692h2.876v4.849a1.465,1.465,0,0,0,2.93,0v-5.5A3.417,3.417,0,0,0,25.6,75.613l-5.155-5.153a3.407,3.407,0,0,0-2.433-1.01H14.767V32.524H18.94v1.3a1.465,1.465,0,0,0,1.166,1.434l5.315,1.107c.174.809.387,1.61.639,2.395l-4.047,3.615A1.465,1.465,0,0,0,21.72,44.2l2.762,4.784a1.465,1.465,0,0,0,1.727.659l5.162-1.7q.83.916,1.748,1.748l-1.7,5.162a1.465,1.465,0,0,0,.659,1.727l4.784,2.762a1.465,1.465,0,0,0,1.825-.293L42.3,55c.785.252,1.585.465,2.395.639L45.8,60.953a1.465,1.465,0,0,0,1.434,1.166h1.3v7.33h-8.4A3.442,3.442,0,0,0,36.7,72.886V96.562A3.442,3.442,0,0,0,40.135,100h19.73A3.442,3.442,0,0,0,63.3,96.562V78.044A3.416,3.416,0,0,0,62.3,75.613l-5.158-5.158a3.415,3.415,0,0,0-2.431-1.007H51.465v-7.33h1.3A1.465,1.465,0,0,0,54.2,60.953L55.3,55.638c.809-.174,1.61-.388,2.395-.639l3.615,4.047a1.465,1.465,0,0,0,1.825.293l4.784-2.762a1.465,1.465,0,0,0,.659-1.727l-1.7-5.162q.916-.83,1.748-1.748l5.162,1.7a1.465,1.465,0,0,0,1.727-.659L78.28,44.2a1.465,1.465,0,0,0-.293-1.825L73.94,38.757c.252-.785.466-1.585.639-2.395l5.315-1.107a1.465,1.465,0,0,0,1.166-1.434v-1.3h4.173V69.449h-8.4a3.442,3.442,0,0,0-3.438,3.438V79.1a1.465,1.465,0,0,0,2.93,0V72.887a.508.508,0,0,1,.508-.508H90.757v2.875a3.442,3.442,0,0,0,3.438,3.438H97.07V96.563a.508.508,0,0,1-.508.508H76.832a.508.508,0,0,1-.508-.508V85.938a1.465,1.465,0,0,0-2.93,0V96.563A3.441,3.441,0,0,0,76.832,100h19.73A3.442,3.442,0,0,0,100,96.563V78.045a3.417,3.417,0,0,0-1.007-2.432ZM59.865,97.07H40.135a.509.509,0,0,1-.508-.508V72.886a.509.509,0,0,1,.508-.508H54.059v2.876A3.442,3.442,0,0,0,57.5,78.692h2.876v17.87A.509.509,0,0,1,59.865,97.07ZM78.13,32.63l-5.1,1.063a1.464,1.464,0,0,0-1.145,1.184,22.1,22.1,0,0,1-1.02,3.821,1.464,1.464,0,0,0,.4,1.6l3.884,3.469-1.571,2.721-4.954-1.632a1.466,1.466,0,0,0-1.582.451,22.4,22.4,0,0,1-2.8,2.8,1.465,1.465,0,0,0-.451,1.582l1.632,4.954L62.7,56.206l-3.469-3.884a1.464,1.464,0,0,0-1.6-.4,22.133,22.133,0,0,1-3.821,1.02,1.465,1.465,0,0,0-1.184,1.145l-1.063,5.1H48.429l-1.063-5.1a1.465,1.465,0,0,0-1.184-1.145,22.123,22.123,0,0,1-3.821-1.02,1.464,1.464,0,0,0-1.6.4L37.3,56.206l-2.721-1.571,1.632-4.954a1.464,1.464,0,0,0-.451-1.582,22.415,22.415,0,0,1-2.8-2.8,1.466,1.466,0,0,0-1.582-.451l-4.954,1.632-1.571-2.721,3.884-3.469a1.464,1.464,0,0,0,.4-1.6,22.123,22.123,0,0,1-1.02-3.821,1.464,1.464,0,0,0-1.145-1.184l-5.1-1.063V29.488l5.1-1.063a1.464,1.464,0,0,0,1.145-1.184,22.1,22.1,0,0,1,1.02-3.821,1.465,1.465,0,0,0-.4-1.6l-3.884-3.469,1.571-2.721,4.954,1.632a1.464,1.464,0,0,0,1.582-.451,22.4,22.4,0,0,1,2.8-2.8,1.465,1.465,0,0,0,.451-1.582L34.575,7.484,37.3,5.913,40.765,9.8a1.465,1.465,0,0,0,1.6.4,22.126,22.126,0,0,1,3.821-1.02,1.465,1.465,0,0,0,1.184-1.145l1.063-5.1h3.142l1.063,5.1a1.465,1.465,0,0,0,1.184,1.145,22.1,22.1,0,0,1,3.821,1.02,1.465,1.465,0,0,0,1.6-.4L62.7,5.913l2.721,1.571-1.632,4.954a1.464,1.464,0,0,0,.451,1.582,22.416,22.416,0,0,1,2.8,2.8,1.466,1.466,0,0,0,1.582.451l4.954-1.632,1.571,2.721-3.884,3.469a1.465,1.465,0,0,0-.4,1.6,22.115,22.115,0,0,1,1.02,3.821,1.464,1.464,0,0,0,1.145,1.184l5.1,1.063V32.63Z" transform="translate(0 0)" fill="#fff"/>
    <path id="Path_30773" data-name="Path 30773" d="M221.681,390.832h4.735a1.465,1.465,0,0,0,0-2.93h-4.735a1.465,1.465,0,0,0,0,2.93Z" transform="translate(-177.205 -312.14)" fill="#fff"/>
    <path id="Path_30774" data-name="Path 30774" d="M232.729,420.228H221.681a1.465,1.465,0,1,0,0,2.93h11.048a1.465,1.465,0,1,0,0-2.93Z" transform="translate(-177.205 -338.152)" fill="#fff"/>
    <path id="Path_30775" data-name="Path 30775" d="M232.729,452.553H221.681a1.465,1.465,0,0,0,0,2.93h11.048a1.465,1.465,0,0,0,0-2.93Z" transform="translate(-177.205 -364.164)" fill="#fff"/>
    <path id="Path_30776" data-name="Path 30776" d="M33.79,390.832h4.735a1.465,1.465,0,0,0,0-2.93H33.79a1.465,1.465,0,0,0,0,2.93Z" transform="translate(-26.012 -312.14)" fill="#fff"/>
    <path id="Path_30777" data-name="Path 30777" d="M44.839,420.228H33.79a1.465,1.465,0,1,0,0,2.93H44.838a1.465,1.465,0,0,0,0-2.93Z" transform="translate(-26.012 -338.152)" fill="#fff"/>
    <path id="Path_30778" data-name="Path 30778" d="M44.839,452.553H33.79a1.465,1.465,0,0,0,0,2.93H44.838a1.465,1.465,0,0,0,0-2.93Z" transform="translate(-26.012 -364.164)" fill="#fff"/>
  </g>
</svg>
