<svg xmlns="http://www.w3.org/2000/svg" width="25.763" height="19.322" viewBox="0 0 25.763 19.322">
  <path id="envelope_1_" data-name="envelope (1)" d="M23.348,59.882H2.415A2.418,2.418,0,0,0,0,62.3V76.789A2.418,2.418,0,0,0,2.415,79.2H23.348a2.418,2.418,0,0,0,2.415-2.415V62.3A2.418,2.418,0,0,0,23.348,59.882Zm0,1.61a.8.8,0,0,1,.309.062L12.882,70.893,2.107,61.555a.8.8,0,0,1,.309-.062Zm0,16.1H2.415a.806.806,0,0,1-.805-.805V63.256l10.744,9.311a.806.806,0,0,0,1.055,0l10.744-9.311V76.789A.806.806,0,0,1,23.348,77.594Z" transform="translate(0 -59.882)" fill="#bcbdc2"/>
</svg>
