<svg xmlns="http://www.w3.org/2000/svg" width="19.664" height="14.748" viewBox="0 0 19.664 14.748">
  <path id="envelope_1_" data-name="envelope (1)" d="M17.82,59.882H1.843A1.846,1.846,0,0,0,0,61.725V72.786A1.845,1.845,0,0,0,1.843,74.63H17.82a1.845,1.845,0,0,0,1.843-1.843V61.725a1.845,1.845,0,0,0-1.843-1.843Zm0,1.229a.611.611,0,0,1,.236.048L9.832,68.286,1.608,61.159a.612.612,0,0,1,.236-.048Zm0,12.29H1.843a.615.615,0,0,1-.615-.615V62.457l8.2,7.107a.615.615,0,0,0,.805,0l8.2-7.107V72.786A.615.615,0,0,1,17.82,73.4Z" transform="translate(0 -59.882)" fill="#bcbdc2"/>
</svg>
