<svg xmlns="http://www.w3.org/2000/svg" width="94.36" height="94.358" viewBox="0 0 94.36 94.358">
  <g id="green-energy_1_" data-name="green-energy (1)" transform="translate(0 -0.006)">
    <g id="layer1_15_" transform="translate(0 0.006)">
      <path id="path24550" d="M17.329,280.073a2.684,2.684,0,0,0-1.023.332C14.732,281.119,0,289.781,0,309.952a33.766,33.766,0,0,0,15.723,29.2v27.409a7.893,7.893,0,0,0,7.872,7.869H72.338a7.883,7.883,0,0,0,7.86-7.869v-28.3h3.145a1.573,1.573,0,1,0,0-3.145h-7.86v-3.145h7.86a7.886,7.886,0,0,0,7.872-7.86V313.09h1.566a1.573,1.573,0,0,0,1.579-1.566v-6.293a1.572,1.572,0,0,0-1.579-1.566H88.067V292.632a1.573,1.573,0,1,0-3.145,0v11.032H72.338V292.632a1.573,1.573,0,1,0-3.145,0v11.032H64.4a1.584,1.584,0,0,0-1.5,1.566v6.293a1.573,1.573,0,0,0,1.579,1.566H88.067v11.017a4.673,4.673,0,0,1-4.724,4.712H73.905a4.663,4.663,0,0,1-4.712-4.712v-6.29a1.574,1.574,0,0,0-3.148,0v6.29a7.881,7.881,0,0,0,6.293,7.7v4.868a1.572,1.572,0,0,0,1.566,1.579H77.05v28.3a4.673,4.673,0,0,1-4.712,4.724H23.595a4.686,4.686,0,0,1-4.727-4.724q0-22.489,0-44.947l5.83-5.83a1.573,1.573,0,1,0-2.217-2.23l-3.612,3.612v-8.13L24.7,303.2a1.573,1.573,0,1,0-2.217-2.23l-3.612,3.612v-7.239a1.573,1.573,0,1,0-3.145,0v7.227l-3.6-3.6A1.577,1.577,0,1,0,9.9,303.2l5.827,5.826v8.127l-3.6-3.6a1.577,1.577,0,1,0-2.23,2.23l5.827,5.82v13.834c-4.16-2.935-12.577-10.7-12.577-25.487,0-17.087,11.232-24.791,14.153-26.507,2.921,1.716,14.153,9.419,14.153,26.507,0,11.247-4.9,18.381-9.1,22.511a1.573,1.573,0,1,0,2.208,2.242A33.931,33.931,0,0,0,34.6,309.952c0-20.171-14.77-28.756-16.306-29.547a2.126,2.126,0,0,0-.962-.332Zm48.716,26.74H91.216v3.145H66.045Z" transform="translate(0 -280.073)" fill="#3a678d"/>
      <path id="path24550-2" data-name="path24550" d="M50.27,319.384a1.58,1.58,0,0,0-1.266.731l-14.163,22.01a1.573,1.573,0,0,0,1.324,2.427h7.7l-1.394,14a1.573,1.573,0,0,0,2.89,1l14.153-22.01a1.573,1.573,0,0,0-1.324-2.426H48.75a1.573,1.573,0,1,0,0,3.145h6.557l-9.064,14.1.928-9.227a1.573,1.573,0,0,0-1.566-1.729H39.044l9.067-14.095-.3,2.949a1.575,1.575,0,1,0,3.133.313l.94-9.46a1.573,1.573,0,0,0-1.613-1.729Z" transform="translate(0.003 -281.073)" fill="#00b2e3"/>
    </g>
  </g>
</svg>
