<svg xmlns="http://www.w3.org/2000/svg" width="87.766" height="112.339" viewBox="0 0 87.766 112.339">
  <g id="light-bulb_5_" data-name="light-bulb (5)" transform="translate(-55.997)">
    <path id="Path_31249" data-name="Path 31249" d="M178.558,91.084A13.458,13.458,0,0,0,172.706,80.3a9.281,9.281,0,0,0-2.56-8.3,10.179,10.179,0,0,0-7.923-2.95,7.542,7.542,0,0,0-1.761-3.223C158.141,63.29,154.042,62,148.279,62A30.03,30.03,0,0,0,135.6,64.781a2.194,2.194,0,0,0,1.84,3.984,25.592,25.592,0,0,1,8.647-2.282v65.732h-6.273c-.9-8.014-6.483-16.059-11.459-23.226q-.72-1.036-1.419-2.049a25.92,25.92,0,0,1-2.172-25.5,2.194,2.194,0,1,0-3.984-1.84,30.307,30.307,0,0,0,2.541,29.827q.7,1.02,1.429,2.065c4.661,6.712,9.892,14.251,10.695,21.145a4.39,4.39,0,0,0-2.523,3.967v6.582a4.387,4.387,0,0,0,2.194,3.795v7.176a6.59,6.59,0,0,0,6.582,6.582h13.165a6.59,6.59,0,0,0,6.582-6.582V146.98a4.387,4.387,0,0,0,2.194-3.795V136.6a4.39,4.39,0,0,0-2.531-3.97,25.473,25.473,0,0,1,2.769-8.513c.17-.073.34-.151.509-.235a9.276,9.276,0,0,0,4.866-9.521l.165-.063a9.717,9.717,0,0,0,5.942-6.884,10.026,10.026,0,0,0-1.2-7.319A11.2,11.2,0,0,0,178.558,91.084ZM159.25,136.6v6.582H137.308V136.6Zm-4.388,19.747H141.7a2.2,2.2,0,0,1-2.194-2.194v-6.582h17.553v6.582A2.2,2.2,0,0,1,154.861,156.35Zm15.165-58.842a2.194,2.194,0,0,0-.657,3.479,6.064,6.064,0,0,1,1.705,5.468,5.264,5.264,0,0,1-3.275,3.765,8.664,8.664,0,0,1-4.788.489c-2.2-.59-2.5-1.393-3.088-2.993a8.7,8.7,0,0,0-3.242-4.625,2.194,2.194,0,1,0-2.491,3.612,4.437,4.437,0,0,1,1.617,2.534,7.876,7.876,0,0,0,6.054,5.707,9.522,9.522,0,0,0,2.518.315c.182,0,.363-.005.544-.013a4.752,4.752,0,0,1-2.51,4.718,3.738,3.738,0,0,1-4.766-1.041,2.194,2.194,0,0,0-3.453,2.708,8.173,8.173,0,0,0,4.623,2.983,26.829,26.829,0,0,0-2.081,7.6h-6.264V96.323c6.927-.117,8.816-3.575,10.2-6.114a5.807,5.807,0,0,1,1.978-2.539,2.194,2.194,0,1,0-2.159-3.82,9.636,9.636,0,0,0-3.672,4.26c-1.18,2.165-2.042,3.744-6.346,3.827V66.472c3.226.244,5.587,1.045,6.752,2.318a3.17,3.17,0,0,1,.8,1.628,9.254,9.254,0,0,0-3.751,4.973,2.194,2.194,0,1,0,4.115,1.523,4.894,4.894,0,0,1,2.692-3.188,5.854,5.854,0,0,1,5.951,1.371,5.027,5.027,0,0,1,1.039,5.585,2.194,2.194,0,0,0,1.278,2.8c2.565.979,4.816,4.53,4.816,7.6A7.021,7.021,0,0,1,170.026,97.508Z" transform="translate(-48.399 -48.399)" fill="#3a678d"/>
    <path id="Path_31250" data-name="Path 31250" d="M248.2,9.216a2.194,2.194,0,0,0,2.194-2.194V2.194a2.194,2.194,0,1,0-4.388,0V7.021A2.194,2.194,0,0,0,248.2,9.216Z" transform="translate(-148.315)" fill="#00b2e3"/>
    <path id="Path_31251" data-name="Path 31251" d="M153.705,32.926a2.194,2.194,0,1,0,3.8-2.194l-2.414-4.181a2.194,2.194,0,0,0-3.8,2.194Z" transform="translate(-74.156 -19.869)" fill="#00b2e3"/>
    <path id="Path_31252" data-name="Path 31252" d="M82.548,99.1l4.181,2.414a2.194,2.194,0,1,0,2.194-3.8l-4.181-2.414a2.194,2.194,0,0,0-2.194,3.8Z" transform="translate(-19.869 -74.156)" fill="#00b2e3"/>
    <path id="Path_31253" data-name="Path 31253" d="M65.213,192.2A2.194,2.194,0,0,0,63.018,190H58.191a2.194,2.194,0,1,0,0,4.388h4.827A2.194,2.194,0,0,0,65.213,192.2Z" transform="translate(0 -148.315)" fill="#00b2e3"/>
    <path id="Path_31254" data-name="Path 31254" d="M86.728,274.3l-4.181,2.414a2.194,2.194,0,1,0,2.194,3.8l4.181-2.414a2.194,2.194,0,0,0-2.194-3.8Z" transform="translate(-19.869 -213.884)" fill="#00b2e3"/>
    <path id="Path_31255" data-name="Path 31255" d="M331.1,33.73a2.193,2.193,0,0,0,3-.8l2.414-4.181a2.194,2.194,0,1,0-3.8-2.194l-2.414,4.181A2.194,2.194,0,0,0,331.1,33.73Z" transform="translate(-213.884 -19.87)" fill="#00b2e3"/>
    <path id="Path_31256" data-name="Path 31256" d="M393.69,101.8a2.185,2.185,0,0,0,1.095-.294l4.181-2.414a2.194,2.194,0,1,0-2.194-3.8l-4.181,2.414a2.194,2.194,0,0,0,1.1,4.095Z" transform="translate(-261.884 -74.156)" fill="#00b2e3"/>
    <path id="Path_31257" data-name="Path 31257" d="M421.025,190H416.2a2.194,2.194,0,1,0,0,4.388h4.827a2.194,2.194,0,1,0,0-4.388Z" transform="translate(-279.456 -148.315)" fill="#00b2e3"/>
    <path id="Path_31258" data-name="Path 31258" d="M398.966,276.713l-4.181-2.414a2.194,2.194,0,0,0-2.194,3.8l4.181,2.414a2.194,2.194,0,0,0,2.194-3.8Z" transform="translate(-261.884 -213.885)" fill="#00b2e3"/>
    <path id="Path_31259" data-name="Path 31259" d="M157.687,99.493a2.194,2.194,0,1,0,2.2,2.194,2.193,2.193,0,0,0-2.2-2.194Z" transform="translate(-77.666 -77.663)" fill="#3a678d"/>
  </g>
</svg>
