<svg id="tool" xmlns="http://www.w3.org/2000/svg" width="111.922" height="119.619" viewBox="0 0 111.922 119.619">
  <path id="Path_31088" data-name="Path 31088" d="M126.642,151.511h-11.6v-7.4h11.6a1.752,1.752,0,0,0,1.581-2.507A14.391,14.391,0,0,0,124.749,137a1.752,1.752,0,0,0-2.321,2.626,11.067,11.067,0,0,1,.981.983H113.291a1.752,1.752,0,0,0-1.752,1.752v10.906a1.752,1.752,0,0,0,1.752,1.752H123.4a10.913,10.913,0,0,1-16.107.338,7.572,7.572,0,0,0-7.319-6.124H95.536v-5.747h8.532a1.752,1.752,0,0,0,1.537-.91,10.933,10.933,0,0,1,9.589-5.687c.246,0,.493.008.737.024a1.752,1.752,0,0,0,.232-3.5c-.32-.021-.646-.032-.969-.032a14.435,14.435,0,0,0-12.12,6.6H95.536v-1.332a7.673,7.673,0,0,0-13.6-4.876,7.667,7.667,0,0,0-11.848,0,7.671,7.671,0,0,0-13.068,2.072,7.669,7.669,0,0,0-12.137,4.136H41.793q-.324-.5-.687-.971a1.752,1.752,0,1,0-2.775,2.14,10.98,10.98,0,0,1,.932,1.426,1.752,1.752,0,0,0,1.537.91h3.838v8.657H40.8a1.752,1.752,0,0,0-1.537.91,10.922,10.922,0,0,1-17.8,1.966H31.576a1.752,1.752,0,0,0,1.752-1.752V142.357a1.752,1.752,0,0,0-1.752-1.752H21.465A10.939,10.939,0,0,1,32.282,137.2a1.752,1.752,0,1,0,.834-3.4A14.451,14.451,0,0,0,16.644,141.6a1.752,1.752,0,0,0,1.581,2.507h11.6v7.4h-11.6a1.752,1.752,0,0,0-1.581,2.507,14.434,14.434,0,0,0,25.15,1.626h2.922a7.669,7.669,0,0,0,12.6,4.734,7.665,7.665,0,0,0,11.792,2.39,7.677,7.677,0,0,0,13.224.994c1.277.782,3.811.9,5.509.82l-9.132,5.9a11.117,11.117,0,0,0-5.1,9.373,1.752,1.752,0,0,0,3.5,0,7.627,7.627,0,0,1,3.5-6.43L94.735,164.3a1.752,1.752,0,0,0-.951-3.224h-8a4.177,4.177,0,0,1-4.172-4.172,4.246,4.246,0,0,1,4.172-4.172H99.975a3.9,3.9,0,0,1,3.783,2.938l2.2,8.6a6.318,6.318,0,0,1-1.263,5.592L92.437,184.577c-3.158,3.567-6.534,7.981-6.33,13.1v20.557a1.752,1.752,0,0,0,3.5,0V197.68c-.233-4.27,3.075-7.973,5.529-10.872l12.246-14.7a9.831,9.831,0,0,0,1.965-8.7l-.7-2.732a14.425,14.425,0,0,0,19.57-6.652,1.752,1.752,0,0,0-1.581-2.507Zm-74.328,7.225a4.177,4.177,0,0,1-4.172-4.172V141.9a4.172,4.172,0,1,1,8.344,0v12.664A4.177,4.177,0,0,1,52.315,158.736Zm11.848,2.341a4.177,4.177,0,0,1-4.172-4.172v-18.26a4.172,4.172,0,1,1,8.344,0v18.26A4.177,4.177,0,0,1,64.163,161.077Zm11.848,2.5a4.177,4.177,0,0,1-4.172-4.172V138.645a4.172,4.172,0,1,1,8.344,0V151.66a7.658,7.658,0,0,0-.556,9.829A4.15,4.15,0,0,1,76.011,163.579Zm7.676-14.057V138.645a4.172,4.172,0,1,1,8.344,0v10.583H85.781a7.651,7.651,0,0,0-2.093.293Z" transform="translate(-16.473 -100.371)" fill="#3a678d"/>
  <path id="Path_31089" data-name="Path 31089" d="M140.531,292.656V278.411a1.752,1.752,0,1,0-3.5,0v14.245a15.014,15.014,0,0,0,3.355,9.444,11.5,11.5,0,0,1,2.569,7.233V329.89a1.752,1.752,0,1,0,3.5,0V309.333a15.014,15.014,0,0,0-3.355-9.444A11.5,11.5,0,0,1,140.531,292.656Z" transform="translate(-108.862 -212.023)" fill="#3a678d"/>
  <path id="Path_31090" data-name="Path 31090" d="M250.252,12.093A1.752,1.752,0,0,0,252,10.341V1.752a1.752,1.752,0,1,0-3.5,0v8.589A1.752,1.752,0,0,0,250.252,12.093Z" transform="translate(-194.291)" fill="#00b2e3"/>
  <path id="Path_31091" data-name="Path 31091" d="M301.662,43.719a1.751,1.751,0,0,0,2.421-.53l2.269-3.539A1.752,1.752,0,0,0,303.4,37.76L301.132,41.3A1.752,1.752,0,0,0,301.662,43.719Z" transform="translate(-234.414 -28.319)" fill="#00b2e3"/>
  <path id="Path_31092" data-name="Path 31092" d="M339,92.511a1.742,1.742,0,0,0,.707-.15l3.845-1.7a1.752,1.752,0,0,0-1.416-3.206l-3.845,1.7A1.753,1.753,0,0,0,339,92.511Z" transform="translate(-262.302 -66.909)" fill="#00b2e3"/>
  <path id="Path_31093" data-name="Path 31093" d="M188.979,43.191A1.752,1.752,0,0,0,191.93,41.3l-2.269-3.539a1.752,1.752,0,0,0-2.951,1.891Z" transform="translate(-146.726 -28.32)" fill="#00b2e3"/>
  <path id="Path_31094" data-name="Path 31094" d="M144.337,90.665l3.845,1.7a1.752,1.752,0,0,0,1.416-3.206l-3.845-1.7a1.752,1.752,0,1,0-1.416,3.206Z" transform="translate(-113.663 -66.911)" fill="#00b2e3"/>
</svg>
