<svg xmlns="http://www.w3.org/2000/svg" width="93.421" height="71" viewBox="0 0 93.421 71">
  <g id="deadline" transform="translate(-7 -13)">
    <path id="Path_31269" data-name="Path 31269" d="M43.55,40.737H14.868a1.868,1.868,0,0,1,0-3.737H43.55a1.868,1.868,0,1,1,0,3.737Z" transform="translate(5.211 20.842)" fill="#3a678d"/>
    <path id="Path_31270" data-name="Path 31270" d="M43.55,28.737H14.868a1.868,1.868,0,0,1,0-3.737H43.55a1.868,1.868,0,0,1,0,3.737Z" transform="translate(5.211 10.421)" fill="#3a678d"/>
    <path id="Path_31271" data-name="Path 31271" d="M46.237,34.737H8.868a1.868,1.868,0,0,1,0-3.737H46.237a1.868,1.868,0,0,1,0,3.737Z" transform="translate(0 15.632)" fill="#3a678d"/>
    <path id="Path_31272" data-name="Path 31272" d="M41.474,42.679c-3.713,0-7.474-2.5-7.474-7.291S37.761,28.1,41.474,28.1s7.474,2.5,7.474,7.291S45.186,42.679,41.474,42.679Zm0-10.844a3.558,3.558,0,1,0,0,7.107,3.558,3.558,0,1,0,0-7.107Z" transform="translate(23.447 13.111)" fill="#00b2e3"/>
    <path id="Path_31273" data-name="Path 31273" d="M40.99,37.529a1.868,1.868,0,0,1-1.321-3.189l10.57-10.57a1.868,1.868,0,1,1,2.642,2.642l-10.57,10.57A1.863,1.863,0,0,1,40.99,37.529Z" transform="translate(27.894 8.877)" fill="#00b2e3"/>
    <path id="Path_31274" data-name="Path 31274" d="M35.334,39.5a1.868,1.868,0,0,1-1.321-3.189l2.642-2.644A1.868,1.868,0,0,1,39.3,36.311l-2.642,2.644A1.863,1.863,0,0,1,35.334,39.5Z" transform="translate(22.982 17.473)" fill="#00b2e3"/>
    <path id="Path_31275" data-name="Path 31275" d="M38.868,55.342A1.868,1.868,0,0,1,37,53.474V47.868a1.868,1.868,0,0,1,3.737,0v5.605A1.868,1.868,0,0,1,38.868,55.342Z" transform="translate(26.053 28.658)" fill="#3a678d"/>
    <path id="Path_31276" data-name="Path 31276" d="M53.439,49.308a1.863,1.863,0,0,1-1.321-.547L48.155,44.8A1.868,1.868,0,1,1,50.8,42.154l3.963,3.965a1.868,1.868,0,0,1-1.321,3.189Z" transform="translate(35.264 24.842)" fill="#3a678d"/>
    <path id="Path_31277" data-name="Path 31277" d="M49.475,25.974a1.868,1.868,0,0,1-1.321-3.189l3.963-3.965a1.868,1.868,0,0,1,2.642,2.642L50.8,25.426A1.863,1.863,0,0,1,49.475,25.974Z" transform="translate(35.263 4.578)" fill="#3a678d"/>
    <path id="Path_31278" data-name="Path 31278" d="M38.868,22.342A1.868,1.868,0,0,1,37,20.474V14.868a1.868,1.868,0,0,1,3.737,0v5.605A1.868,1.868,0,0,1,38.868,22.342Z" transform="translate(26.053 0)" fill="#3a678d"/>
    <path id="Path_31279" data-name="Path 31279" d="M59.474,34.737H53.868a1.868,1.868,0,0,1,0-3.737h5.605a1.868,1.868,0,1,1,0,3.737Z" transform="translate(39.079 15.632)" fill="#3a678d"/>
    <path id="Path_31280" data-name="Path 31280" d="M41.027,22.737H20.868a1.868,1.868,0,1,1,0-3.737H41.027a1.868,1.868,0,0,1,0,3.737Z" transform="translate(10.421 5.211)" fill="#3a678d"/>
    <path id="Path_31281" data-name="Path 31281" d="M41.027,46.737H20.868a1.868,1.868,0,1,1,0-3.737H41.027a1.868,1.868,0,0,1,0,3.737Z" transform="translate(10.421 26.053)" fill="#3a678d"/>
    <path id="Path_31282" data-name="Path 31282" d="M45.914,83.943a35.172,35.172,0,0,1-16.147-3.909,1.868,1.868,0,0,1,1.711-3.322,31.766,31.766,0,0,0,33.3-53.881,32.058,32.058,0,0,0-33.3-2.588,1.868,1.868,0,1,1-1.711-3.322A35.5,35.5,0,0,1,76.22,67.155,35.6,35.6,0,0,1,45.914,83.943Z" transform="translate(18.891 0.022)" fill="#3a678d"/>
  </g>
</svg>
