<svg xmlns="http://www.w3.org/2000/svg" width="104.5" height="104.5" viewBox="0 0 104.5 104.5">
  <g id="agile" transform="translate(-1 -1)">
    <path id="Path_31144" data-name="Path 31144" d="M37.484,50.968A13.484,13.484,0,1,0,24,37.484,13.5,13.5,0,0,0,37.484,50.968Zm0-23.6A10.113,10.113,0,1,1,27.371,37.484,10.123,10.123,0,0,1,37.484,27.371Z" transform="translate(15.766 15.766)" fill="#00b2e3"/>
    <path id="Path_31145" data-name="Path 31145" d="M34.742,41.484A6.742,6.742,0,1,0,28,34.742,6.749,6.749,0,0,0,34.742,41.484Zm0-10.113a3.371,3.371,0,1,1-3.371,3.371A3.374,3.374,0,0,1,34.742,31.371Z" transform="translate(18.508 18.508)" fill="#00b2e3"/>
    <path id="Path_31146" data-name="Path 31146" d="M29.838,60.824l2.946-1.409c.263.116.528.228.794.33l1.084,3.078h12.5l1.087-3.078q.4-.157.794-.33l2.946,1.409,8.839-8.839-1.409-2.946c.116-.263.228-.528.33-.794l3.076-1.084v-12.5l-3.078-1.087q-.157-.4-.33-.794l1.409-2.946L51.985,21l-2.946,1.409c-.263-.116-.528-.228-.794-.33L47.161,19h-12.5l-1.087,3.078q-.4.157-.794.33L29.836,21,21,29.838l1.409,2.946c-.116.263-.228.528-.33.794L19,34.662v12.5l3.078,1.087q.157.4.33.794L21,51.987ZM22.371,44.774V37.046l2.346-.828.265-.772a16.479,16.479,0,0,1,.806-1.933l.359-.733-1.075-2.248,5.464-5.464,2.248,1.075.733-.359a16.773,16.773,0,0,1,1.933-.806l.772-.265.826-2.343h7.728l.828,2.346.772.265a16.479,16.479,0,0,1,1.933.806l.733.359,2.248-1.075,5.464,5.464-1.075,2.248.359.733a16.772,16.772,0,0,1,.806,1.933l.265.772,2.343.826v7.728l-2.346.828-.265.772a16.479,16.479,0,0,1-.806,1.933l-.359.733,1.075,2.248-5.464,5.464L49.039,55.68l-.733.359a16.77,16.77,0,0,1-1.933.806l-.772.265-.826,2.343H37.046l-.828-2.346-.772-.265a16.48,16.48,0,0,1-1.933-.806l-.733-.359-2.248,1.075-5.464-5.464,1.075-2.248-.359-.733a16.773,16.773,0,0,1-.806-1.933l-.265-.772Z" transform="translate(12.339 12.339)" fill="#3a678d"/>
    <path id="Path_31147" data-name="Path 31147" d="M22.911,47H6.056A5.063,5.063,0,0,0,1,52.056V68.911a5.063,5.063,0,0,0,5.056,5.056H22.911a5.063,5.063,0,0,0,5.056-5.056V52.056A5.063,5.063,0,0,0,22.911,47ZM24.6,68.911A1.688,1.688,0,0,1,22.911,70.6H6.056a1.688,1.688,0,0,1-1.685-1.685V52.056a1.688,1.688,0,0,1,1.685-1.685H22.911A1.688,1.688,0,0,1,24.6,52.056Z" transform="translate(0 31.532)" fill="#3a678d"/>
    <path id="Path_31148" data-name="Path 31148" d="M68.911,24H52.056A5.063,5.063,0,0,0,47,29.056V45.911a5.063,5.063,0,0,0,5.056,5.056H68.911a5.063,5.063,0,0,0,5.056-5.056V29.056A5.063,5.063,0,0,0,68.911,24ZM70.6,45.911A1.688,1.688,0,0,1,68.911,47.6H52.056a1.688,1.688,0,0,1-1.685-1.685V29.056a1.688,1.688,0,0,1,1.685-1.685H68.911A1.688,1.688,0,0,1,70.6,29.056Z" transform="translate(31.532 15.766)" fill="#3a678d"/>
    <path id="Path_31149" data-name="Path 31149" d="M12.056,27.968H28.911a5.063,5.063,0,0,0,5.056-5.056V6.056A5.063,5.063,0,0,0,28.911,1H12.056A5.063,5.063,0,0,0,7,6.056V22.911A5.063,5.063,0,0,0,12.056,27.968ZM10.371,6.056a1.688,1.688,0,0,1,1.685-1.685H28.911A1.688,1.688,0,0,1,30.6,6.056V22.911A1.688,1.688,0,0,1,28.911,24.6H12.056a1.688,1.688,0,0,1-1.685-1.685Z" transform="translate(4.113 0)" fill="#3a678d"/>
    <path id="Path_31150" data-name="Path 31150" d="M8.856,60.214,6.676,58.035,4.293,60.418l4.563,4.563,11.3-11.3-2.383-2.383Z" transform="translate(2.257 34.475)" fill="#3a678d"/>
    <path id="Path_31151" data-name="Path 31151" d="M26.16,7.676,23.777,5.293l-8.921,8.921-2.179-2.179-2.383,2.383,4.563,4.563Z" transform="translate(6.37 2.943)" fill="#3a678d"/>
    <path id="Path_31152" data-name="Path 31152" d="M54.856,37.214l-2.179-2.179-2.383,2.383,4.563,4.563,11.3-11.3-2.383-2.383Z" transform="translate(33.79 18.709)" fill="#3a678d"/>
    <path id="Path_31153" data-name="Path 31153" d="M64.631,46.589l.817,3.27,9.58-2.4A41.986,41.986,0,0,1,22.1,62.9l-1.414,3.059A45.349,45.349,0,0,0,77.458,49.9l1.08,8.643,3.344-.418L79.96,42.756Z" transform="translate(13.492 28.623)" fill="#3a678d"/>
    <path id="Path_31154" data-name="Path 31154" d="M19.14,46.953l-3.278-.784-2.056,8.606A39.81,39.81,0,0,1,10.759,39.82a41.8,41.8,0,0,1,3.932-17.8l-3.056-1.426A45.167,45.167,0,0,0,7.388,39.82a43.159,43.159,0,0,0,3.261,16.145l-7.5-4.138L1.517,54.78l13.919,7.672Z" transform="translate(0.354 13.43)" fill="#3a678d"/>
    <path id="Path_31155" data-name="Path 31155" d="M39.284,14.652,33.8,11h2.86A42.042,42.042,0,0,1,74.054,33.686l2.988-1.559a45.4,45.4,0,0,0-40.379-24.5H33.8l5.481-3.654-1.869-2.8L25.2,9.312l12.216,8.144Z" transform="translate(16.587 0.115)" fill="#3a678d"/>
  </g>
</svg>
