<svg xmlns="http://www.w3.org/2000/svg" width="115.166" height="115.166" viewBox="0 0 115.166 115.166">
  <g id="ideas" transform="translate(-1 -1)">
    <path id="Path_31260" data-name="Path 31260" d="M55,1h3.715V8.43H55Z" transform="translate(46.305)" fill="#00b2e3"/>
    <path id="Path_31261" data-name="Path 31261" d="M0,0H3.715V7.419H0Z" transform="matrix(0.923, -0.386, 0.386, 0.923, 92.205, 3.566)" fill="#00b2e3"/>
    <path id="Path_31262" data-name="Path 31262" d="M0,0H7.441V3.715H0Z" transform="translate(107.815 8.966) rotate(-66.922)" fill="#00b2e3"/>
    <path id="Path_31263" data-name="Path 31263" d="M62,7A13.017,13.017,0,0,0,49,20c0,4.547,1.887,7.354,3.4,9.609,1.213,1.805,2.171,3.232,2.171,5.251V36.72a7.43,7.43,0,0,0,14.86,0V34.863c0-2.019.958-3.446,2.171-5.251,1.514-2.255,3.4-5.062,3.4-9.609A13.017,13.017,0,0,0,62,7Zm0,33.435a3.719,3.719,0,0,1-3.715-3.715h7.43A3.719,3.719,0,0,1,62,40.435ZM60.145,20A1.858,1.858,0,1,1,62,21.86,1.861,1.861,0,0,1,60.145,20Zm8.375,7.538a14.72,14.72,0,0,0-2.615,5.465H63.86V25.233a5.573,5.573,0,1,0-3.715,0v7.772H58.1a14.692,14.692,0,0,0-2.615-5.465c-1.425-2.119-2.77-4.122-2.77-7.538A9.288,9.288,0,1,1,71.29,20c0,3.416-1.345,5.418-2.77,7.538Z" transform="translate(41.16 5.145)" fill="#00b2e3"/>
    <path id="Path_31264" data-name="Path 31264" d="M21.433,34.863c0-2.019.958-3.446,2.171-5.251,1.514-2.255,3.4-5.062,3.4-9.609A13,13,0,0,0,1,20c0,4.547,1.887,7.354,3.4,9.609,1.213,1.805,2.171,3.232,2.171,5.251V36.72a7.43,7.43,0,0,0,14.86,0ZM14,40.435a3.719,3.719,0,0,1-3.715-3.715h7.43A3.719,3.719,0,0,1,14,40.435ZM12.145,20A1.858,1.858,0,1,1,14,21.86,1.861,1.861,0,0,1,12.145,20Zm5.76,13H15.86V25.233a5.573,5.573,0,1,0-3.715,0v7.772H10.1A14.692,14.692,0,0,0,7.485,27.54C6.06,25.421,4.715,23.419,4.715,20A9.288,9.288,0,0,1,23.29,20c0,3.416-1.345,5.418-2.77,7.538A14.72,14.72,0,0,0,17.905,33.005Z" transform="translate(0 5.145)" fill="#3a678d"/>
    <path id="Path_31265" data-name="Path 31265" d="M94.588,58.725H92.73V53.153a5.573,5.573,0,1,0-11.145,0v5.914A5.565,5.565,0,0,0,77.87,64.3V68.65a9.227,9.227,0,0,0,2.719,6.566l.825.825L78.08,91.6,72.628,86.15a24.109,24.109,0,0,0-11.836-6.5l-8.444-1.876a1.866,1.866,0,0,1-.509-.206c0-.091.026-.176.026-.269a3.657,3.657,0,0,0-.208-1.172,13.021,13.021,0,0,0,7.489-9.973H59.3A7.413,7.413,0,0,0,65.38,54.485l.947-4.735A20.364,20.364,0,0,0,57.8,28.9a14.509,14.509,0,0,1,1.807-3.288c1.514-2.255,3.4-5.062,3.4-9.609a13,13,0,0,0-26.005,0,15.591,15.591,0,0,0,3.187,9.288H38.879A20.447,20.447,0,0,0,18.828,49.75l.947,4.735A7.413,7.413,0,0,0,25.86,66.155h.147a12.929,12.929,0,0,0,1.9,5.132,5.764,5.764,0,0,0-2.043,4.38v.44a5.786,5.786,0,0,0,.973,3.215l.156.234-.641.184a13.036,13.036,0,0,0-8.058,6.687L12.148,98.714a10.874,10.874,0,0,0,9.726,15.737H63.01v-9.533l10.6,7.064A14.688,14.688,0,0,0,96.445,99.761V76.212l1-1a9.224,9.224,0,0,0,2.719-6.566V64.3a5.579,5.579,0,0,0-5.573-5.573Zm-7.43-7.43a1.861,1.861,0,0,1,1.857,1.858v5.914a5.551,5.551,0,0,0-1.857,1.107A5.521,5.521,0,0,0,85.3,59.067V53.153A1.861,1.861,0,0,1,87.158,51.3ZM48.15,77.3a3.719,3.719,0,0,1-3.715,3.715H32.426l-2.5-3.754a2.074,2.074,0,0,1-.349-1.154v-.44a2.083,2.083,0,0,1,3.555-1.473L34.6,75.668A5.533,5.533,0,0,0,38.545,77.3ZM59.3,62.44V55.01a3.715,3.715,0,0,1,0,7.43Zm-13-29.72h7.43a3.715,3.715,0,0,1-7.43,0ZM48.15,16a1.858,1.858,0,1,1,1.858,1.858A1.861,1.861,0,0,1,48.15,16Zm1.858-9.288A9.3,9.3,0,0,1,59.3,16c0,3.416-1.345,5.418-2.77,7.538a14.72,14.72,0,0,0-2.615,5.465H51.865V21.233a5.573,5.573,0,1,0-3.715,0v7.772H46.105A14.692,14.692,0,0,0,43.49,23.54c-1.425-2.119-2.77-4.122-2.77-7.538a9.3,9.3,0,0,1,9.288-9.288ZM22.145,58.725A3.719,3.719,0,0,1,25.86,55.01v7.43A3.719,3.719,0,0,1,22.145,58.725Zm7.43,5.573V47.58a3.719,3.719,0,0,1,3.715-3.715V40.15a7.438,7.438,0,0,0-7.43,7.43V51.3a7.378,7.378,0,0,0-2.823.565l-.568-2.838A16.743,16.743,0,0,1,38.879,29.005h3.373a5.909,5.909,0,0,1,.325,1.858V32.72a7.384,7.384,0,0,0,2.567,5.573l5.06,10.12,3.323-1.662-3.31-6.62a7.4,7.4,0,0,0,7.164-6.856,16.64,16.64,0,0,1,5.3,15.748l-.568,2.838A7.362,7.362,0,0,0,59.3,51.3V47.58H55.58V64.3a9.3,9.3,0,0,1-9.288,9.288H38.545a1.849,1.849,0,0,1-1.315-.544l-1.473-1.473a5.761,5.761,0,0,0-4.1-1.7c-.056,0-.108.015-.163.017A9.233,9.233,0,0,1,29.575,64.3Zm-7.7,46.438a7.159,7.159,0,0,1-6.4-10.361l6.143-12.286a9.309,9.309,0,0,1,5.756-4.778l1.783-.509.162.241-8.86,19.493,3.381,1.536L32.629,84.73h7.711l-3.455,18.43a9.292,9.292,0,0,1-9.128,7.575Zm59.882,0a10.938,10.938,0,0,1-6.087-1.843L63.01,100.454V95.875H59.3v14.86H36.786a12.909,12.909,0,0,0,3.748-6.891L44.119,84.73h.316a7.408,7.408,0,0,0,6.319-3.574,5.772,5.772,0,0,0,.788.245l8.444,1.876A20.407,20.407,0,0,1,70,88.774l7.151,7.151-1.1,5.132,3.633.778L84.944,77.3H92.73V99.761a10.986,10.986,0,0,1-10.974,10.974ZM94.814,72.59l-1,1H84.212l-1-1a5.61,5.61,0,0,1-1.631-3.94V64.3a1.858,1.858,0,1,1,3.715,0,5.579,5.579,0,0,0,5.573,5.573h5.435a5.617,5.617,0,0,1-1.493,2.719Zm1.631-6.434H90.873a1.858,1.858,0,0,1,0-3.715h3.715A1.861,1.861,0,0,1,96.445,64.3Z" transform="translate(8.575 1.715)" fill="#3a678d"/>
    <path id="Path_31266" data-name="Path 31266" d="M0,0H3.715V12.46H0Z" transform="translate(43.891 38.975) rotate(-26.565)" fill="#3a678d"/>
    <path id="Path_31267" data-name="Path 31267" d="M26.67,33.288a5.874,5.874,0,0,0,11.145,0L37.91,33l3.524,1.176-.095.284a9.588,9.588,0,0,1-18.192,0l-.095-.286L26.576,33Z" transform="translate(18.91 27.44)" fill="#3a678d"/>
    <path id="Path_31268" data-name="Path 31268" d="M27,29h3.715v3.715H27Z" transform="translate(22.295 24.01)" fill="#3a678d"/>
  </g>
</svg>
