<svg xmlns="http://www.w3.org/2000/svg" width="69.918" height="30.605" viewBox="0 0 69.918 30.605">
  <g id="usb" transform="translate(72.555 -39.805) rotate(90)">
    <path id="Path_30944" data-name="Path 30944" d="M67.869,26.307V23.4a2.793,2.793,0,0,0-2.793-2.793H64.7V6.18a2.793,2.793,0,0,0-2.793-2.793h-13.6A2.793,2.793,0,0,0,45.516,6.18V20.611h-.377A2.793,2.793,0,0,0,42.346,23.4v2.9a2.793,2.793,0,0,0-1.791,2.6V67.771a4.04,4.04,0,0,0,4.035,4.035H65.626a4.04,4.04,0,0,0,4.035-4.035V28.906a2.793,2.793,0,0,0-1.791-2.6ZM48.619,6.491H61.6V20.611H48.619Zm-3.17,17.224H64.766v2.4H45.449Zm21.1,44.056a.931.931,0,0,1-.931.931H44.59a.931.931,0,0,1-.931-.931V29.217h22.9Z" fill="#fff" stroke="#000" stroke-width="1.5"/>
    <path id="Path_30945" data-name="Path 30945" d="M58.547,17.262H56.982a1.552,1.552,0,1,0,0,3.1h1.565a1.552,1.552,0,0,0,0-3.1Z" transform="translate(-5.642 -5.263)" fill="#fff" stroke="#000" stroke-width="1.5"/>
    <path id="Path_30946" data-name="Path 30946" d="M68.017,17.262H66.452a1.552,1.552,0,0,0,0,3.1h1.565a1.552,1.552,0,1,0,0-3.1Z" transform="translate(-9.234 -5.263)" fill="#fff" stroke="#000" stroke-width="1.5"/>
    <path id="Path_30947" data-name="Path 30947" d="M56.07,86.931a1.552,1.552,0,0,0,1.552-1.552V64.7a1.552,1.552,0,0,0-3.1,0V85.379a1.552,1.552,0,0,0,1.552,1.552Z" transform="translate(-5.296 -30.116)" fill="#fff" stroke="#000" stroke-width="1.5"/>
    <path id="Path_30948" data-name="Path 30948" d="M70.034,86.931a1.552,1.552,0,0,0,1.552-1.552V64.7a1.552,1.552,0,0,0-3.1,0V85.379a1.552,1.552,0,0,0,1.552,1.552Z" transform="translate(-10.592 -30.116)" fill="#fff" stroke="#000" stroke-width="1.5"/>
  </g>
</svg>
