<svg xmlns="http://www.w3.org/2000/svg" width="91.982" height="91.975" viewBox="0 0 91.982 91.975">
  <g id="_19-eco_city" data-name="19-eco city" transform="translate(0.005)">
    <path id="Path_30783" data-name="Path 30783" d="M48,4h2.874V6.874H48Z" transform="translate(20.983 1.748)" fill="#3bd4ae"/>
    <path id="Path_30784" data-name="Path 30784" d="M52,4h2.874V6.874H52Z" transform="translate(22.732 1.748)" fill="#3bd4ae"/>
    <path id="Path_30785" data-name="Path 30785" d="M48,8h2.874v2.874H48Z" transform="translate(20.983 3.497)" fill="#3bd4ae"/>
    <path id="Path_30786" data-name="Path 30786" d="M52,8h2.874v2.874H52Z" transform="translate(22.732 3.497)" fill="#3bd4ae"/>
    <path id="Path_30787" data-name="Path 30787" d="M48,12h2.874v2.874H48Z" transform="translate(20.983 5.245)" fill="#3bd4ae"/>
    <path id="Path_30788" data-name="Path 30788" d="M52,12h2.874v2.874H52Z" transform="translate(22.732 5.245)" fill="#3bd4ae"/>
    <path id="Path_30789" data-name="Path 30789" d="M48,16h2.874v2.874H48Z" transform="translate(20.983 6.994)" fill="#3bd4ae"/>
    <path id="Path_30790" data-name="Path 30790" d="M52,16h2.874v2.874H52Z" transform="translate(22.732 6.994)" fill="#3bd4ae"/>
    <path id="Path_30791" data-name="Path 30791" d="M48,20h2.874v2.874H48Z" transform="translate(20.983 8.742)" fill="#3bd4ae"/>
    <path id="Path_30792" data-name="Path 30792" d="M52,20h2.874v2.874H52Z" transform="translate(22.732 8.742)" fill="#3bd4ae"/>
    <path id="Path_30793" data-name="Path 30793" d="M48,24h2.874v2.874H48Z" transform="translate(20.983 10.49)" fill="#3bd4ae"/>
    <path id="Path_30794" data-name="Path 30794" d="M52,24h2.874v2.874H52Z" transform="translate(22.732 10.49)" fill="#3bd4ae"/>
    <path id="Path_30795" data-name="Path 30795" d="M33,19h5.748v2.874H33Z" transform="translate(14.427 8.305)" fill="#3bd4ae"/>
    <path id="Path_30796" data-name="Path 30796" d="M33,23h5.748v2.874H33Z" transform="translate(14.427 10.053)" fill="#3bd4ae"/>
    <path id="Path_30797" data-name="Path 30797" d="M33,27h5.748v2.874H33Z" transform="translate(14.427 11.802)" fill="#3bd4ae"/>
    <path id="Path_30798" data-name="Path 30798" d="M90.54,30.179H83.354V1.437A1.437,1.437,0,0,0,81.917,0H64.672a1.437,1.437,0,0,0-1.437,1.437V44.55H58.924V24.431h1.437A1.437,1.437,0,0,0,61.8,22.994V17.245a1.437,1.437,0,0,0-1.437-1.437H51.738V5.748a1.437,1.437,0,0,0-2.874,0v10.06H40.241A1.437,1.437,0,0,0,38.8,17.245v5.748a1.437,1.437,0,0,0,1.437,1.437h1.437V44.55H34.493V42.969a7.186,7.186,0,0,0,5.748-7.042c0-3.219-2.544-12.934-7.186-12.934S25.87,32.708,25.87,35.928a7.186,7.186,0,0,0,5.75,7.042V44.55H15.81V37.207a7.272,7.272,0,0,0,4.426-2.874,7.186,7.186,0,0,0-.23-14.055A7.186,7.186,0,0,0,5.751,21.557V21.7A7.186,7.186,0,0,0,7.188,35.928,6.8,6.8,0,0,0,9.573,35.5a7.1,7.1,0,0,0,3.363,1.71V44.55H1.439A1.437,1.437,0,0,0,0,45.987a45.987,45.987,0,1,0,91.975,0V31.616A1.437,1.437,0,0,0,90.54,30.179Zm-61.8,5.748c0-3.952,2.874-10.06,4.311-10.06s4.311,6.108,4.311,10.06a4.311,4.311,0,0,1-2.874,4.053V34.49H31.619v5.49a4.311,4.311,0,0,1-2.874-4.053ZM11.039,32.867a1.454,1.454,0,0,0-1.811-.359A4.308,4.308,0,1,1,7.1,24.431h.244a1.419,1.419,0,0,0,1.437-1.8,4.656,4.656,0,0,1-.158-1.078,4.311,4.311,0,0,1,8.623,0,1.437,1.437,0,0,0,1.437,1.437,4.319,4.319,0,1,1,.5,8.623,1.437,1.437,0,0,0-1.078.719,4.311,4.311,0,0,1-2.3,1.868V28.742H12.936V34.2a4.182,4.182,0,0,1-1.9-1.337Zm78.063.187v11.5H83.354v-11.5ZM66.109,2.874H80.48V44.55H66.109ZM41.678,18.682H58.924v2.874H41.678Zm2.874,5.748h11.5V44.55h-11.5Zm-19.9,22.994L25.87,54.38l-2.659,5.332a1.437,1.437,0,0,0,.086,1.437L26.057,65.3l1.437,4.139a1.437,1.437,0,0,0,.719.819L31.087,71.7a1.437,1.437,0,0,0,1.207,0l9.384-4.01,2.271,1.135.187.086,4.225,1.437,2.7,1.351,3.032,2.026-2.069,3.119a1.437,1.437,0,0,0-.086,1.437l1.782,3.636H50.732l-3.952-2.63a1.437,1.437,0,0,0-1.135-.2l-5.576,1.437H35.082L32.74,78.164l-2.874-4.182a1.322,1.322,0,0,0-.331-.359l-5.748-4.311a1.437,1.437,0,0,0-1.207-.244l-5.13,1.279-3.722-2.558a1.437,1.437,0,0,0-.79-.244H8.625A42.754,42.754,0,0,1,2.877,47.424ZM10.493,70.418h2.012l3.952,2.63a1.437,1.437,0,0,0,1.135.2l5.087-1.265,5,3.751,2.745,4.1a1.438,1.438,0,0,0,.172.23l2.874,2.874a1.437,1.437,0,0,0,1.02.417h5.748a1.438,1.438,0,0,0,.345,0l5.13-1.279,3.794,2.515a1.437,1.437,0,0,0,.79.2h5.748a1.437,1.437,0,0,0,1.279-2.084l-2.5-5,2.414-3.621a1.437,1.437,0,0,0-.4-1.983l-4.311-2.874a.388.388,0,0,0-.144-.086L49.511,67.7l-.187-.086L45.1,66.179l-2.774-1.437a1.437,1.437,0,0,0-1.207,0l-9.5,4.1-1.739-.877L28.744,64.21a1.437,1.437,0,0,0-.172-.331l-2.414-3.621,2.5-5a1.437,1.437,0,0,0,.144-.877l-1.236-6.956H69.242l1.178,4.656a1.437,1.437,0,0,0,.934,1.02l3.564,1.193,1.25,4.972a1.437,1.437,0,0,0,.374.675l2.3,2.3-1.049,4.182-3.061,1.121L70.88,66.25a1.437,1.437,0,0,0-1.854,1.02l-1.437,5.748a1.437,1.437,0,0,0,.6,1.538L72.5,77.431a1.437,1.437,0,0,0,.79.172h1.954a43.027,43.027,0,0,1-64.756-7.186Zm67.544,4.311H73.726l-3.1-2.069.819-3.262,2.874.948a1.437,1.437,0,0,0,.92,0l4.311-1.437a1.437,1.437,0,0,0,.934-1.02l1.437-5.748a1.437,1.437,0,0,0-.374-1.437l-2.6-2.587-1.337-5.289a1.437,1.437,0,0,0-.934-1.02l-3.564-1.193-.848-3.19H89.1a42.883,42.883,0,0,1-11.023,27.3Z" transform="translate(0)" fill="#fff"/>
    <path id="Path_30799" data-name="Path 30799" d="M59,24h2.874v2.874H59Z" transform="translate(25.791 10.49)" fill="#fff"/>
    <path id="Path_30800" data-name="Path 30800" d="M59,28h2.874v2.874H59Z" transform="translate(25.791 12.239)" fill="#fff"/>
    <path id="Path_30801" data-name="Path 30801" d="M54.12,47.942V42.194a1.437,1.437,0,0,0-1.15-1.437L46.36,39.435l-2.544-3.808a1.437,1.437,0,0,0-1.725-.546l-7.186,2.874a1.432,1.432,0,0,0-.7,2.069l4.311,7.186a1.437,1.437,0,0,0,.7.6L46.4,50.687a1.351,1.351,0,0,0,.532.129,1.437,1.437,0,0,0,.345,0l5.748-1.437a1.437,1.437,0,0,0,1.092-1.437Zm-2.874-1.121-4.211,1.121-6.309-2.587-3.19-5.332,4.541-1.811L44.3,41.547a1.351,1.351,0,0,0,.905.618l6.036,1.207Z" transform="translate(14.863 15.29)" fill="#fff"/>
  </g>
</svg>
