<svg xmlns="http://www.w3.org/2000/svg" width="51.997" height="49.598" viewBox="0 0 51.997 49.598">
  <g id="Group_17275" data-name="Group 17275" transform="translate(-364.6 -554.896)">
    <g id="coding_3_" data-name="coding (3)" transform="translate(365 543.3)">
      <path id="Path_31018" data-name="Path 31018" d="M63.116,55.271A3.382,3.382,0,1,0,66.5,58.653,3.386,3.386,0,0,0,63.116,55.271Zm0,4.746a1.365,1.365,0,1,1,1.369-1.365A1.367,1.367,0,0,1,63.116,60.017Z" transform="translate(-53.76 -38.948)" fill="#fff" stroke="#000" stroke-width="0.8"/>
      <path id="Path_31019" data-name="Path 31019" d="M278.43,55.271h-8.942a3.382,3.382,0,1,0,0,6.763h8.942a3.382,3.382,0,1,0,0-6.763Zm0,4.746h-8.942a1.365,1.365,0,1,1,0-2.73h8.942a1.365,1.365,0,1,1,0,2.73Z" transform="translate(-239.496 -38.948)" fill="#fff" stroke="#000" stroke-width="0.8"/>
      <path id="Path_31020" data-name="Path 31020" d="M150.788,55.271a3.382,3.382,0,1,0,3.386,3.382A3.386,3.386,0,0,0,150.788,55.271Zm0,4.746a1.365,1.365,0,1,1,1.369-1.365A1.367,1.367,0,0,1,150.788,60.017Z" transform="translate(-132.665 -38.948)" fill="#fff" stroke="#000" stroke-width="0.8"/>
      <path id="Path_31024" data-name="Path 31024" d="M48.937,44.748h-.374a10.618,10.618,0,0,0-.76-1.834l.267-.268a2.259,2.259,0,0,0,0-3.2l-.521-.52V17.451c0-3.008-2.122-5.455-4.732-5.455H4.732C2.123,12,0,14.443,0,17.451V45.634c0,3.008,2.122,5.455,4.732,5.455h5.916a1.008,1.008,0,1,0,0-2.017H4.732c-1.472,0-2.715-1.574-2.715-3.438V27.34H45.534V37.53a2.293,2.293,0,0,0-.35-.029h0a2.235,2.235,0,0,0-1.591.659l-.273.271a10.645,10.645,0,0,0-1.864-.769V37.3a2.263,2.263,0,0,0-2.261-2.26H37.367A2.262,2.262,0,0,0,35.11,37.3v.384a10.7,10.7,0,0,0-1.821.763l-.261-.26a2.239,2.239,0,0,0-1.595-.663h0a2.245,2.245,0,0,0-1.6.66l-1.289,1.289a2.259,2.259,0,0,0,0,3.192l.278.279a10.648,10.648,0,0,0-.743,1.8h-.383a2.26,2.26,0,0,0-2.258,2.257v1.827a2.273,2.273,0,0,0,.013.24H19.582a1.008,1.008,0,0,0,0,2.017h8.5a10.586,10.586,0,0,0,.755,1.815l-.272.271a2.263,2.263,0,0,0,0,3.192l1.29,1.289a2.239,2.239,0,0,0,1.595.663h0a2.245,2.245,0,0,0,1.6-.661l.27-.27a10.655,10.655,0,0,0,1.822.755v.39a2.262,2.262,0,0,0,2.258,2.26h1.828a2.262,2.262,0,0,0,2.258-2.26v-.388a10.627,10.627,0,0,0,1.83-.758l.269.268a2.238,2.238,0,0,0,1.595.663h0a2.246,2.246,0,0,0,1.6-.661l1.286-1.289a2.259,2.259,0,0,0,0-3.2L47.8,52.9a10.647,10.647,0,0,0,.753-1.816h.381A2.262,2.262,0,0,0,51.2,48.832V47.005A2.261,2.261,0,0,0,48.937,44.748ZM2.017,25.323V17.451c0-1.863,1.243-3.438,2.715-3.438H42.819c1.472,0,2.715,1.574,2.715,3.438v7.873H2.017ZM49.181,48.832a.249.249,0,0,1-.244.24H47.783a1.008,1.008,0,0,0-.983.783,8.656,8.656,0,0,1-1.112,2.679,1.008,1.008,0,0,0,.141,1.25l.816.815a.242.242,0,0,1,.07.172.234.234,0,0,1-.071.17l-1.288,1.291a.243.243,0,0,1-.172.07h0a.235.235,0,0,1-.171-.071l-.819-.816a1.009,1.009,0,0,0-1.249-.139,8.64,8.64,0,0,1-2.69,1.114,1.009,1.009,0,0,0-.785.983v1.161a.249.249,0,0,1-.241.243H37.4a.249.249,0,0,1-.241-.243V57.37a1.008,1.008,0,0,0-.786-.984,8.652,8.652,0,0,1-2.685-1.112,1.008,1.008,0,0,0-1.248.142l-.816.815a.243.243,0,0,1-.172.07h0a.234.234,0,0,1-.17-.07l-1.292-1.291a.248.248,0,0,1,0-.339l.819-.816a1.008,1.008,0,0,0,.141-1.253,8.6,8.6,0,0,1-1.113-2.677,1.008,1.008,0,0,0-.983-.783H27.694a.244.244,0,0,1-.241-.24V47.005a.244.244,0,0,1,.241-.24H28.85a1.009,1.009,0,0,0,.983-.785,8.65,8.65,0,0,1,1.1-2.666,1.008,1.008,0,0,0-.141-1.246l-.825-.827a.231.231,0,0,1-.068-.167.241.241,0,0,1,.07-.172l1.289-1.289a.243.243,0,0,1,.172-.07h0a.236.236,0,0,1,.171.071l.813.81a1.008,1.008,0,0,0,1.252.137,8.7,8.7,0,0,1,2.682-1.124,1.008,1.008,0,0,0,.778-.982V37.3a.246.246,0,0,1,.241-.243h1.825a.247.247,0,0,1,.244.243v1.136a1.008,1.008,0,0,0,.789.984,8.645,8.645,0,0,1,2.721,1.122,1.009,1.009,0,0,0,1.248-.14l.822-.819a.232.232,0,0,1,.168-.068h0a.243.243,0,0,1,.172.07l1.289,1.288a.242.242,0,0,1,.07.172.235.235,0,0,1-.071.17l-.816.818a1.008,1.008,0,0,0-.139,1.25,8.631,8.631,0,0,1,1.116,2.694,1.008,1.008,0,0,0,.983.784h1.148a.249.249,0,0,1,.244.24Z" transform="translate(0 0)" fill="#fff" stroke="#000" stroke-width="0.8"/>
      <path id="Path_31025" data-name="Path 31025" d="M327.722,309.652a6.158,6.158,0,1,0,6.16,6.16A6.168,6.168,0,0,0,327.722,309.652Zm0,10.3a4.142,4.142,0,1,1,4.143-4.14A4.148,4.148,0,0,1,327.722,319.952Z" transform="translate(-289.405 -267.892)" fill="#fff" stroke="#000" stroke-width="0.8"/>
      <path id="Path_31026" data-name="Path 31026" d="M142.2,382.778h-.02a1.008,1.008,0,1,0,0,2.017h.02a1.008,1.008,0,1,0,0-2.017Z" transform="translate(-127.055 -333.706)" fill="#fff" stroke="#000" stroke-width="0.8"/>
    </g>
    <g id="Group_17268" data-name="Group 17268" transform="translate(190 -75)">
      <path id="Path_31014" data-name="Path 31014" d="M1167.606,513.134a5.154,5.154,0,0,0-5.153,5.153h0a5.153,5.153,0,1,0,5.153-5.153Zm.042,9.29a4.135,4.135,0,1,1,4.135-4.135A4.135,4.135,0,0,1,1167.648,522.424Z" transform="translate(-981.84 137.018)" fill="#93d500"/>
      <path id="Path_31015" data-name="Path 31015" d="M1189.009,514.154a4.135,4.135,0,0,1,4.135,4.133h.976a5.153,5.153,0,0,0-5.153-5.153v1.022Z" transform="translate(-1003.201 137.018)" fill="#e0e622"/>
      <path id="Path_31016" data-name="Path 31016" d="M1194.119,539.647h-.976v0a4.135,4.135,0,0,1-4.135,4.135l-.042,0V544.8a5.137,5.137,0,0,0,3.644-1.509h0A5.137,5.137,0,0,0,1194.119,539.647Z" transform="translate(-1003.201 115.657)" fill="#3bd4ae"/>
      <path id="Path_31017" data-name="Path 31017" d="M1163.513,539.649v0h-1.061a5.153,5.153,0,0,0,5.153,5.153v-1.018A4.133,4.133,0,0,1,1163.513,539.649Z" transform="translate(-981.84 115.657)" fill="#00b2e3"/>
    </g>
  </g>
</svg>
