<svg xmlns="http://www.w3.org/2000/svg" width="93.494" height="93.494" viewBox="0 0 93.494 93.494">
  <g id="Group_17302" data-name="Group 17302" transform="translate(-1325 -1900.132)">
    <g id="Group_17298" data-name="Group 17298" transform="translate(95 29.625)">
      <path id="bulb" d="M93.494,29.112V44.021A16.183,16.183,0,0,1,78.585,60.128V86.671a6.831,6.831,0,0,1-6.823,6.823h-40.5a6.831,6.831,0,0,1-6.823-6.823V83.134h-1.3a5.22,5.22,0,0,1-5.214-5.214V75.1a5.22,5.22,0,0,1-4.051-5.078V67.2a5.22,5.22,0,0,1-4.082-5.086V58.213c-.611-10.328-3.286-14.9-5.646-18.934C2.015,35.634,0,32.19,0,25.573a25.573,25.573,0,0,1,51.146,0c0,6.618-2.015,10.061-4.148,13.707-2.36,4.034-5.035,8.606-5.646,18.934v3.905a5.218,5.218,0,0,1-3.818,5.018v2.882A5.219,5.219,0,0,1,33.482,75.1V77.92a5.22,5.22,0,0,1-5.214,5.214h-1.3v3.538a4.3,4.3,0,0,0,4.3,4.3h40.5a4.3,4.3,0,0,0,4.3-4.3V60.128A16.183,16.183,0,0,1,61.15,44.02V29.112a1.263,1.263,0,0,1,1.263-1.263h4.2V15.9a4.2,4.2,0,1,1,8.407,0V27.849h4.6V15.9a4.2,4.2,0,1,1,8.407,0V27.849h4.2a1.263,1.263,0,0,1,1.263,1.263ZM6.329,38c2.413,4.125,5.137,8.778,5.91,18.9H38.907c.773-10.122,3.5-14.776,5.91-18.9,2.04-3.486,3.8-6.5,3.8-12.431a23.046,23.046,0,0,0-46.092,0c0,5.933,1.762,8.944,3.8,12.431Zm8.679,26.8h21.13a2.689,2.689,0,0,0,2.686-2.686V59.431h-26.5v2.688A2.69,2.69,0,0,0,15.008,64.8Zm4.083,7.9H32.32a2.69,2.69,0,0,0,2.686-2.687V67.332H16.4v2.687a2.69,2.69,0,0,0,2.687,2.687Zm4.051,7.9h5.126a2.69,2.69,0,0,0,2.687-2.687V75.233h-10.5V77.92A2.69,2.69,0,0,0,23.142,80.607ZM82.147,27.849H85.5V15.9a1.677,1.677,0,1,0-3.353,0V27.849Zm-13,0H72.5V15.9a1.677,1.677,0,1,0-3.353,0V27.849Zm21.823,2.527H63.677V44.021a13.645,13.645,0,0,0,27.29,0Z" transform="translate(1230 1870.507)" fill="#3a678d"/>
      <path id="bulb-2" data-name="bulb" d="M12.51,33.193a1.263,1.263,0,0,1-1.712-.512,13.349,13.349,0,0,1-1.751-7.108A16.544,16.544,0,0,1,25.572,9.047a1.263,1.263,0,0,1,0,2.527,14.147,14.147,0,0,0-8.029,2.538,13.863,13.863,0,0,0-5.969,11.461,10.835,10.835,0,0,0,1.448,5.909,1.263,1.263,0,0,1-.512,1.712Z" transform="translate(1228 1869.507)" fill="#00b2e3"/>
    </g>
  </g>
</svg>
