<svg xmlns="http://www.w3.org/2000/svg" width="94.864" height="109.085" viewBox="0 0 94.864 109.085">
  <g id="lighting" transform="translate(-55.998 -28.032)">
    <path id="Path_30714" data-name="Path 30714" d="M73.074,137.117h60.713a9.5,9.5,0,0,0,9.486-9.486V70.713h1.9a5.692,5.692,0,0,0,3.415-10.245l-41.74-31.3a5.722,5.722,0,0,0-6.83,0l-41.74,31.3a5.692,5.692,0,0,0,3.415,10.245h1.9v56.918a9.5,9.5,0,0,0,9.486,9.486Zm66.4-9.486a5.7,5.7,0,0,1-5.692,5.692H73.074a5.7,5.7,0,0,1-5.692-5.692V70.713h34.151V83.994h-1.9a1.9,1.9,0,0,0-1.9,1.9v8.873a13.281,13.281,0,1,0,11.384,0V85.891a1.9,1.9,0,0,0-1.9-1.9h-1.9V70.713h34.151ZM103.431,97.275a9.486,9.486,0,1,1-9.486,9.486,9.486,9.486,0,0,1,9.486-9.486Zm0-3.795a13.325,13.325,0,0,0-1.9.138v-5.83h3.795v5.83A13.325,13.325,0,0,0,103.431,93.48ZM61.691,66.918A1.9,1.9,0,0,1,60.552,63.5l41.74-31.3a1.907,1.907,0,0,1,2.277,0l41.74,31.3a1.9,1.9,0,0,1-1.138,3.415Z" transform="translate(0 0)" fill="#3a678d"/>
    <path id="Path_30715" data-name="Path 30715" d="M149.692,344H145.9a1.9,1.9,0,1,0,0,3.795h3.795a1.9,1.9,0,1,0,0-3.795Z" transform="translate(-67.131 -241.034)" fill="#00b2e3"/>
    <path id="Path_30716" data-name="Path 30716" d="M337.9,347.795h3.795a1.9,1.9,0,1,0,0-3.795H337.9a1.9,1.9,0,1,0,0,3.795Z" transform="translate(-213.597 -241.034)" fill="#00b2e3"/>
    <path id="Path_30717" data-name="Path 30717" d="M177.7,276.379a1.9,1.9,0,1,0,2.683-2.683l-2.683-2.684a1.9,1.9,0,1,0-2.684,2.684Z" transform="translate(-90.364 -184.931)" fill="#00b2e3"/>
    <path id="Path_30718" data-name="Path 30718" d="M313.464,406.781a1.9,1.9,0,1,0-2.683,2.683l2.683,2.684a1.9,1.9,0,0,0,2.684-2.684Z" transform="translate(-193.935 -288.501)" fill="#00b2e3"/>
    <path id="Path_30719" data-name="Path 30719" d="M177.7,406.784l-2.684,2.683a1.9,1.9,0,0,0,2.684,2.684l2.683-2.683a1.9,1.9,0,1,0-2.683-2.683Z" transform="translate(-90.364 -288.505)" fill="#00b2e3"/>
    <path id="Path_30720" data-name="Path 30720" d="M312.123,276.935a1.892,1.892,0,0,0,1.342-.556l2.684-2.683a1.9,1.9,0,0,0-2.684-2.684l-2.683,2.683a1.9,1.9,0,0,0,1.342,3.239Z" transform="translate(-193.935 -184.931)" fill="#00b2e3"/>
  </g>
</svg>
