<svg xmlns="http://www.w3.org/2000/svg" width="91.432" height="105.138" viewBox="0 0 91.432 105.138">
  <g id="lighting" transform="translate(-55.998 -28.032)">
    <path id="Path_30714" data-name="Path 30714" d="M72.456,133.17h58.516a9.154,9.154,0,0,0,9.143-9.143V69.168h1.829a5.486,5.486,0,0,0,3.292-9.875l-40.23-30.172a5.515,5.515,0,0,0-6.583,0L58.193,59.294a5.486,5.486,0,0,0,3.292,9.875h1.829v54.859a9.154,9.154,0,0,0,9.143,9.143Zm64-9.143a5.492,5.492,0,0,1-5.486,5.486H72.456a5.492,5.492,0,0,1-5.486-5.486V69.168H99.886v12.8H98.057A1.829,1.829,0,0,0,96.228,83.8v8.552a12.8,12.8,0,1,0,10.972,0V83.8a1.829,1.829,0,0,0-1.829-1.829h-1.829v-12.8h32.915ZM101.714,94.769a9.143,9.143,0,1,1-9.143,9.143,9.143,9.143,0,0,1,9.143-9.143Zm0-3.657a12.843,12.843,0,0,0-1.829.133V85.626h3.657v5.619A12.843,12.843,0,0,0,101.714,91.112Zm-40.23-25.6a1.829,1.829,0,0,1-1.1-3.292l40.23-30.172a1.838,1.838,0,0,1,2.194,0l40.23,30.172a1.829,1.829,0,0,1-1.1,3.292Z" transform="translate(0 0)" fill="#fff"/>
    <path id="Path_30715" data-name="Path 30715" d="M149.486,344h-3.657a1.829,1.829,0,1,0,0,3.657h3.657a1.829,1.829,0,1,0,0-3.657Z" transform="translate(-67.886 -243.745)" fill="#3bd4ae"/>
    <path id="Path_30716" data-name="Path 30716" d="M337.829,347.657h3.657a1.829,1.829,0,1,0,0-3.657h-3.657a1.829,1.829,0,1,0,0,3.657Z" transform="translate(-216 -243.745)" fill="#3bd4ae"/>
    <path id="Path_30717" data-name="Path 30717" d="M177.579,276.165a1.829,1.829,0,1,0,2.586-2.586l-2.586-2.587a1.829,1.829,0,1,0-2.587,2.587Z" transform="translate(-91.381 -187.012)" fill="#3bd4ae"/>
    <path id="Path_30718" data-name="Path 30718" d="M313.347,406.761a1.829,1.829,0,1,0-2.586,2.586l2.586,2.587a1.829,1.829,0,0,0,2.587-2.587Z" transform="translate(-196.117 -291.747)" fill="#3bd4ae"/>
    <path id="Path_30719" data-name="Path 30719" d="M177.579,406.764l-2.587,2.586a1.829,1.829,0,0,0,2.587,2.587l2.586-2.586a1.829,1.829,0,1,0-2.586-2.586Z" transform="translate(-91.381 -291.751)" fill="#3bd4ae"/>
    <path id="Path_30720" data-name="Path 30720" d="M312.054,276.7a1.823,1.823,0,0,0,1.293-.536l2.587-2.586a1.829,1.829,0,0,0-2.587-2.587l-2.586,2.586a1.829,1.829,0,0,0,1.293,3.122Z" transform="translate(-196.117 -187.012)" fill="#3bd4ae"/>
  </g>
</svg>
