<svg xmlns="http://www.w3.org/2000/svg" width="108.252" height="108.251" viewBox="0 0 108.252 108.251">
  <g id="Group_17303" data-name="Group 17303" transform="translate(-1320 -1866.749)">
    <g id="layer2" transform="translate(1319.471 1866.22)">
      <path id="path2639" d="M2.334.529a1.8,1.8,0,1,0,0,3.608h21.65V14.966a7.2,7.2,0,0,0,1.673,4.625,22.1,22.1,0,0,1-2.952,6c-1.779,2.793-3.833,5.489-4.954,7.432a19.738,19.738,0,0,0-2.784,10.8,23.454,23.454,0,0,0,46.909,0,19.87,19.87,0,0,0-2.784-10.8c-1.122-1.943-3.175-4.639-4.954-7.432a22.277,22.277,0,0,1-2.96-5.99,7.227,7.227,0,0,0,1.667-4.637V4.137h54.133a1.8,1.8,0,1,0,0-3.608ZM27.592,4.137H49.25V14.966a3.613,3.613,0,0,1-3.608,3.612H31.2a3.611,3.611,0,0,1-3.612-3.612ZM90.736,20.375A16.246,16.246,0,0,0,74.5,36.609a1.8,1.8,0,0,0,3.608,0,12.633,12.633,0,0,1,25.266,0,1.8,1.8,0,1,0,3.594,0A16.246,16.246,0,0,0,90.736,20.375ZM31.2,22.186H45.641a7.415,7.415,0,0,0,2.431-.427,28.871,28.871,0,0,0,3.013,5.78c.907,1.423,1.869,2.8,2.72,4.035a36.159,36.159,0,0,1-15.385,3.238,36.187,36.187,0,0,1-15.392-3.235c.851-1.233,1.807-2.616,2.713-4.038a28.484,28.484,0,0,0,3.027-5.779,7.382,7.382,0,0,0,2.435.426Zm59.531,5.406a9.015,9.015,0,0,0-9.017,9.017,1.806,1.806,0,0,0,3.612,0,5.413,5.413,0,0,1,10.825,0,1.806,1.806,0,0,0,3.612,0,9.027,9.027,0,0,0-9.032-9.017ZM55.8,34.6c.037.061.125.182.159.239a16.229,16.229,0,0,1,2.3,8.989,19.844,19.844,0,1,1-39.689,0,16.2,16.2,0,0,1,2.29-8.989c.034-.061.1-.173.134-.236a39.038,39.038,0,0,0,17.418,3.82A38.907,38.907,0,0,0,55.8,34.6Zm34.935.211a1.8,1.8,0,1,0,1.8,1.8A1.8,1.8,0,0,0,90.739,34.809ZM2.355,42.015a1.806,1.806,0,0,0,0,3.612H5.963a1.806,1.806,0,0,0,0-3.612Zm68.51,0a1.806,1.806,0,0,0,0,3.612h3.608a1.806,1.806,0,0,0,0-3.612Zm-19.91,3.372a1.8,1.8,0,0,0,3.58.451,16.219,16.219,0,0,0,.12-1.97,1.8,1.8,0,1,0-3.608-.014,12.616,12.616,0,0,1-.092,1.533Zm-1.6,4.754a12.638,12.638,0,0,1-7.671,5.888,1.806,1.806,0,1,0,.934,3.489,16.254,16.254,0,0,0,9.867-7.566,1.808,1.808,0,1,0-3.129-1.811Zm30.551-.892a7.166,7.166,0,0,0-7.2,7.2v45.112a7.188,7.188,0,0,0,7.2,7.217h21.657a7.2,7.2,0,0,0,7.217-7.217V56.452a7.188,7.188,0,0,0-7.217-7.2Zm0,3.594h21.657a3.61,3.61,0,0,1,3.608,3.608H76.312a3.593,3.593,0,0,1,3.594-3.608Zm-3.594,7.22h28.86V97.952H76.312ZM14.18,65.512l-2.555,2.555a1.808,1.808,0,1,0,2.555,2.558l2.544-2.558a1.8,1.8,0,0,0-1.332-3.08A1.717,1.717,0,0,0,14.18,65.512ZM60.1,68.066l2.558,2.558a1.808,1.808,0,0,0,2.555-2.558l-2.555-2.555a1.737,1.737,0,0,0-1.272-.525A1.808,1.808,0,0,0,60.1,68.066ZM38.393,74.5a1.782,1.782,0,0,0-1.783,1.811v3.594a1.8,1.8,0,1,0,3.608,0V76.312A1.781,1.781,0,0,0,38.393,74.5Zm37.92,27.063h28.86a3.6,3.6,0,0,1-3.608,3.608H79.906a3.587,3.587,0,0,1-3.594-3.608Z" fill="#3a678d"/>
    </g>
    <g id="layer2-2" data-name="layer2" transform="translate(1319.471 1865.22)">
      <path id="path2639-2" data-name="path2639" d="M88.938,70.889v7.22a1.8,1.8,0,1,0,3.608,0v-7.22a1.8,1.8,0,0,0-3.608,0Zm8.471,11.787a7.219,7.219,0,1,1-11.777-7.869,1.8,1.8,0,1,0-2.562-2.53,10.823,10.823,0,1,0,15.322-.014,1.687,1.687,0,0,0-1.247-.532,1.8,1.8,0,0,0-1.307,3.076,7.215,7.215,0,0,1,1.572,7.869Z" fill="#00b2e3"/>
    </g>
  </g>
</svg>
