<svg xmlns="http://www.w3.org/2000/svg" width="18.943" height="24.865" viewBox="0 0 18.943 24.865">
  <g id="Group_17277" data-name="Group 17277" transform="translate(-1552 -8236)">
    <g id="Group_361" data-name="Group 361" transform="translate(1552 8236)">
      <path id="Path_289" data-name="Path 289" d="M79.454,6.515A9.269,9.269,0,0,0,73.444.456,9.527,9.527,0,0,0,60.971,9.515a9.393,9.393,0,0,0,1.89,5.679l7.582,9.672,7.573-9.659.009-.012A9.577,9.577,0,0,0,79.454,6.515Zm-2.589,7.8L70.444,22.5l-6.421-8.191a7.947,7.947,0,0,1-1.594-4.8A8.07,8.07,0,0,1,73.013,1.848a7.793,7.793,0,0,1,5.049,5.1A8.136,8.136,0,0,1,76.865,14.313Z" transform="translate(-60.971 0)" fill="#bcbdc2"/>
    </g>
    <g id="Group_363" data-name="Group 363" transform="translate(1556.372 8240.414)">
      <path id="Path_290" data-name="Path 290" d="M156.095,90.895a5.1,5.1,0,1,0,5.1,5.1A5.106,5.106,0,0,0,156.095,90.895Zm0,8.744A3.643,3.643,0,1,1,159.738,96,3.647,3.647,0,0,1,156.095,99.639Z" transform="translate(-150.994 -90.895)" fill="#bcbdc2"/>
    </g>
  </g>
</svg>
