<svg xmlns="http://www.w3.org/2000/svg" width="44.604" height="27.216" viewBox="0 0 44.604 27.216">
  <g id="list" transform="translate(0 0)">
    <g id="Group_17238" data-name="Group 17238" transform="translate(0 0)">
      <g id="Group_17237" data-name="Group 17237">
        <g id="Group_17236" data-name="Group 17236">
          <path id="Path_30917" data-name="Path 30917" d="M4.012,17.524h41.58a1.512,1.512,0,1,0,0-3.024H4.012a1.512,1.512,0,1,0,0,3.024Z" transform="translate(-2.5 -14.5)" fill="#fff"/>
        </g>
      </g>
    </g>
    <g id="Group_17241" data-name="Group 17241" transform="translate(21.168 12.096)">
      <g id="Group_17240" data-name="Group 17240">
        <g id="Group_17239" data-name="Group 17239">
          <path id="Path_30918" data-name="Path 30918" d="M4.012,33.524H24.424a1.512,1.512,0,1,0,0-3.024H4.012a1.512,1.512,0,1,0,0,3.024Z" transform="translate(-2.5 -30.5)" fill="#fff"/>
        </g>
      </g>
    </g>
    <g id="Group_17244" data-name="Group 17244" transform="translate(21.168 24.192)">
      <g id="Group_17243" data-name="Group 17243">
        <g id="Group_17242" data-name="Group 17242">
          <path id="Path_30919" data-name="Path 30919" d="M4.012,49.524H24.424a1.512,1.512,0,1,0,0-3.024H4.012a1.512,1.512,0,1,0,0,3.024Z" transform="translate(-2.5 -46.5)" fill="#fff"/>
        </g>
      </g>
    </g>
  </g>
</svg>
