<svg id="phone-ringing" xmlns="http://www.w3.org/2000/svg" width="25.018" height="25.018" viewBox="0 0 25.018 25.018">
  <path id="Path_285" data-name="Path 285" d="M17.981,25.018a6.97,6.97,0,0,1-2.391-.427,25.5,25.5,0,0,1-9.26-5.9,25.5,25.5,0,0,1-5.9-9.26,6.92,6.92,0,0,1-.353-3.4A7.1,7.1,0,0,1,3.722.833,6.966,6.966,0,0,1,7.057,0a.782.782,0,0,1,.764.618L9.049,6.344a.782.782,0,0,1-.212.717l-2.1,2.1a20.579,20.579,0,0,0,9.12,9.12l2.1-2.1a.782.782,0,0,1,.717-.212L24.4,17.2a.782.782,0,0,1,.618.764,6.966,6.966,0,0,1-.833,3.336,7.1,7.1,0,0,1-5.194,3.647,6.954,6.954,0,0,1-1.01.074ZM6.432,1.6A5.478,5.478,0,0,0,1.9,8.9,23.713,23.713,0,0,0,16.123,23.121a5.478,5.478,0,0,0,7.3-4.535l-4.659-1-2.19,2.19a.782.782,0,0,1-.885.155,22.137,22.137,0,0,1-10.6-10.6.782.782,0,0,1,.155-.885l2.19-2.19Z" transform="translate(0 0)" fill="#bcbdc2"/>
  <path id="Path_286" data-name="Path 286" d="M252.529,13.29a.782.782,0,0,1-.782-.782A10.957,10.957,0,0,0,240.8,1.564.782.782,0,1,1,240.8,0,12.508,12.508,0,0,1,253.31,12.509.782.782,0,0,1,252.529,13.29Z" transform="translate(-228.292 0)" fill="#bcbdc2"/>
  <path id="Path_287" data-name="Path 287" d="M249.4,74.163a.782.782,0,0,1-.782-.782,7.827,7.827,0,0,0-7.818-7.818.782.782,0,1,1,0-1.564,9.392,9.392,0,0,1,9.381,9.381A.782.782,0,0,1,249.4,74.163Z" transform="translate(-228.292 -60.873)" fill="#bcbdc2"/>
  <path id="Path_288" data-name="Path 288" d="M246.274,135.036a.782.782,0,0,1-.782-.782,4.7,4.7,0,0,0-4.691-4.691.782.782,0,1,1,0-1.564,6.261,6.261,0,0,1,6.254,6.254A.782.782,0,0,1,246.274,135.036Z" transform="translate(-228.292 -121.746)" fill="#bcbdc2"/>
</svg>
