<svg xmlns="http://www.w3.org/2000/svg" width="108.165" height="96.67" viewBox="0 0 108.165 96.67">
  <g id="Group_17301" data-name="Group 17301" transform="translate(-875 -1879.456)">
    <g id="partnership" transform="translate(868 1871.459)">
      <path id="Path_31283" data-name="Path 31283" d="M19.689,42.65a2.013,2.013,0,0,1-2.014-2.014V28.955a2.014,2.014,0,1,1,4.028,0V40.637A2.012,2.012,0,0,1,19.689,42.65Z" transform="translate(10.822 19.204)" fill="#3a678d"/>
      <path id="Path_31284" data-name="Path 31284" d="M46.339,44.967a2.013,2.013,0,0,1-2.014-2.014V31.272a2.014,2.014,0,1,1,4.028,0V42.954A2.014,2.014,0,0,1,46.339,44.967Z" transform="translate(37.838 21.553)" fill="#3a678d"/>
      <path id="Path_31285" data-name="Path 31285" d="M20.47,21.745a2.015,2.015,0,0,1-1.488-3.371,8.074,8.074,0,0,1,5.955-2.632,2.014,2.014,0,0,1,0,4.028,4.037,4.037,0,0,0-2.978,1.317A2.006,2.006,0,0,1,20.47,21.745Z" transform="translate(11.615 7.851)" fill="#3a678d"/>
      <path id="Path_31286" data-name="Path 31286" d="M43.339,51.279a2.014,2.014,0,1,1,0-4.028,4.037,4.037,0,0,0,2.978-1.317A2.015,2.015,0,0,1,49.3,48.649,8.093,8.093,0,0,1,43.339,51.279Z" transform="translate(34.797 37.794)" fill="#3a678d"/>
      <path id="Path_31287" data-name="Path 31287" d="M47.038,30.286H39.69a2.014,2.014,0,0,1,0-4.028h7.348a2.014,2.014,0,1,1,0,4.028Z" transform="translate(31.098 18.512)" fill="#3a678d"/>
      <path id="Path_31288" data-name="Path 31288" d="M36.739,30.286h-7.4a2.014,2.014,0,1,1,0-4.028h7.4a2.014,2.014,0,1,1,0,4.028Z" transform="translate(20.605 18.512)" fill="#3a678d"/>
      <path id="Path_31289" data-name="Path 31289" d="M33.014,49.384A2.013,2.013,0,0,1,31,47.37v-19.1a2.014,2.014,0,0,1,4.028,0v19.1A2.013,2.013,0,0,1,33.014,49.384Z" transform="translate(24.33 18.512)" fill="#3a678d"/>
      <path id="Path_31290" data-name="Path 31290" d="M30.038,39.77H22.69a2.014,2.014,0,0,1,0-4.028h7.348a2.014,2.014,0,0,1,0,4.028Z" transform="translate(13.864 28.127)" fill="#3a678d"/>
      <path id="Path_31291" data-name="Path 31291" d="M40.414,39.77h-7.4a2.014,2.014,0,0,1,0-4.028h7.4a2.014,2.014,0,0,1,0,4.028Z" transform="translate(24.33 28.127)" fill="#3a678d"/>
      <path id="Path_31292" data-name="Path 31292" d="M36.689,42.811a2.014,2.014,0,1,1,0-4.028,4.032,4.032,0,0,0,4.028-4.028,2.014,2.014,0,0,1,4.028,0A8.063,8.063,0,0,1,36.689,42.811Z" transform="translate(28.056 25.085)" fill="#3a678d"/>
      <path id="Path_31293" data-name="Path 31293" d="M39.689,50.962a2.013,2.013,0,0,1-2.014-2.014V20.756a2.014,2.014,0,1,1,4.028,0V48.948A2.012,2.012,0,0,1,39.689,50.962Z" transform="translate(31.097 10.893)" fill="#3a678d"/>
      <path id="Path_31294" data-name="Path 31294" d="M26.339,36.327a2.013,2.013,0,0,1-2.014-2.014,8.063,8.063,0,0,1,8.055-8.055,2.014,2.014,0,0,1,0,4.028,4.032,4.032,0,0,0-4.028,4.028A2.013,2.013,0,0,1,26.339,36.327Z" transform="translate(17.563 18.512)" fill="#3a678d"/>
      <path id="Path_31295" data-name="Path 31295" d="M26.339,61.478a2.013,2.013,0,0,1-2.014-2.014V31.272a2.014,2.014,0,1,1,4.028,0V59.464A2.013,2.013,0,0,1,26.339,61.478Z" transform="translate(17.563 21.553)" fill="#3a678d"/>
      <path id="Path_31296" data-name="Path 31296" d="M25.73,42.811a8.063,8.063,0,0,1-8.055-8.055,2.014,2.014,0,0,1,4.028,0,4.032,4.032,0,0,0,4.028,4.028,2.014,2.014,0,0,1,0,4.028Z" transform="translate(10.822 25.085)" fill="#3a678d"/>
      <path id="Path_31297" data-name="Path 31297" d="M42.73,25.811A2.013,2.013,0,0,1,40.716,23.8a4.032,4.032,0,0,0-4.028-4.028,2.014,2.014,0,1,1,0-4.028A8.063,8.063,0,0,1,44.744,23.8,2.012,2.012,0,0,1,42.73,25.811Z" transform="translate(28.056 7.851)" fill="#3a678d"/>
      <path id="Path_31298" data-name="Path 31298" d="M50.881,19.77H22.689a2.014,2.014,0,0,1,0-4.028H50.881a2.014,2.014,0,0,1,0,4.028Z" transform="translate(13.863 7.851)" fill="#3a678d"/>
      <path id="Path_31299" data-name="Path 31299" d="M49.38,36.327a2.013,2.013,0,0,1-2.014-2.014,4.032,4.032,0,0,0-4.028-4.028,2.014,2.014,0,1,1,0-4.028,8.063,8.063,0,0,1,8.055,8.055A2.013,2.013,0,0,1,49.38,36.327Z" transform="translate(34.797 18.512)" fill="#3a678d"/>
      <path id="Path_31300" data-name="Path 31300" d="M32.38,53.327a8.063,8.063,0,0,1-8.055-8.055,2.014,2.014,0,1,1,4.028,0A4.032,4.032,0,0,0,32.38,49.3a2.014,2.014,0,0,1,0,4.028Z" transform="translate(17.563 35.746)" fill="#3a678d"/>
      <path id="Path_31301" data-name="Path 31301" d="M57.531,50.285H29.339a2.014,2.014,0,1,1,0-4.028H57.531a2.014,2.014,0,1,1,0,4.028Z" transform="translate(20.605 38.787)" fill="#3a678d"/>
      <path id="Path_31302" data-name="Path 31302" d="M47.62,62.289a2.007,2.007,0,0,1-1.166-.375l-16.847-12a2.014,2.014,0,0,1,2.338-3.28l16.847,12a2.015,2.015,0,0,1-1.172,3.655Z" transform="translate(22.06 38.786)" fill="#3a678d"/>
      <path id="Path_31303" data-name="Path 31303" d="M54.193,51.8a1.994,1.994,0,0,1-.727-.135,33.02,33.02,0,0,0-6.619-1.528c-3.806-.62-7.743-1.259-11.1-3.731a2.014,2.014,0,0,1,2.386-3.244c2.58,1.895,5.876,2.433,9.364,3a36.554,36.554,0,0,1,7.427,1.748,2.014,2.014,0,0,1-.727,3.893Z" transform="translate(28.306 35.255)" fill="#3a678d"/>
      <path id="Path_31304" data-name="Path 31304" d="M44.879,56.022a2.014,2.014,0,0,1,0-4.028,1.493,1.493,0,0,0,.536-2.845A2.012,2.012,0,1,1,46.872,45.4a5.517,5.517,0,0,1-1.994,10.625Z" transform="translate(36.358 37.773)" fill="#3a678d"/>
      <path id="Path_31305" data-name="Path 31305" d="M37.673,50.18a2,2,0,0,1-1.2-.4,5.611,5.611,0,0,1-1.943-6.468,5.521,5.521,0,0,1,5.542-3.866,2.013,2.013,0,0,1,1.949,2.074,1.971,1.971,0,0,1-2.076,1.949h-.06a1.736,1.736,0,0,0-1.009,3.077,2.014,2.014,0,0,1-1.2,3.631Z" transform="translate(27.567 31.874)" fill="#3a678d"/>
      <path id="Path_31306" data-name="Path 31306" d="M44.737,43.685c-.022,0-.042,0-.064,0l-6.639-.211a2.013,2.013,0,1,1,.127-4.023l6.639.211a2.013,2.013,0,0,1-.062,4.025Z" transform="translate(29.483 31.878)" fill="#3a678d"/>
      <path id="Path_31307" data-name="Path 31307" d="M54.018,43.71a2.144,2.144,0,0,1-.226-.012l-5.542-.616a2.014,2.014,0,0,1,.445-4l5.542.616a2.014,2.014,0,0,1-.22,4.015Z" transform="translate(40.003 31.498)" fill="#3a678d"/>
      <path id="Path_31308" data-name="Path 31308" d="M42.028,44.127c-.232,0-.463,0-.7-.012a2.013,2.013,0,0,1-1.949-2.074,1.981,1.981,0,0,1,2.076-1.949,36.333,36.333,0,0,0,6.12-.516,33.135,33.135,0,0,1,8.293-.445,2.015,2.015,0,1,1-.437,4.005,29.554,29.554,0,0,0-7.3.431,44.15,44.15,0,0,1-6.1.56Z" transform="translate(32.824 31.445)" fill="#3a678d"/>
      <path id="Path_31309" data-name="Path 31309" d="M50.325,59.839a21.22,21.22,0,0,1-12.352-3.967,2.014,2.014,0,1,1,2.338-3.28,17.2,17.2,0,0,0,12.739,3,2.015,2.015,0,0,1,.624,3.981,21.623,21.623,0,0,1-3.349.262Z" transform="translate(30.541 44.828)" fill="#3a678d"/>
      <path id="Path_31310" data-name="Path 31310" d="M46.2,59.631a2.015,2.015,0,0,1-.308-4.005L67.664,52.21a2.015,2.015,0,0,1,.624,3.981L46.515,59.607A2.109,2.109,0,0,1,46.2,59.631Z" transform="translate(37.7 44.799)" fill="#3a678d"/>
      <path id="Path_31311" data-name="Path 31311" d="M62.882,49.023a2.013,2.013,0,0,1-.646-.107,24.048,24.048,0,0,1-5.28-2.805C54.972,44.833,53.1,43.624,51,43.387a2.014,2.014,0,0,1,.453-4c3.035.344,5.4,1.869,7.687,3.343a20.7,20.7,0,0,0,4.39,2.374,2.015,2.015,0,0,1-.646,3.923Z" transform="translate(42.792 31.807)" fill="#3a678d"/>
      <path id="Path_31312" data-name="Path 31312" d="M57.014,66.376A2.013,2.013,0,0,1,55,64.363V44.179a2.014,2.014,0,0,1,4.028,0V64.361A2.015,2.015,0,0,1,57.014,66.376Z" transform="translate(48.66 34.638)" fill="#3a678d"/>
      <path id="Path_31313" data-name="Path 31313" d="M43.731,25.813a2.007,2.007,0,0,1-1.166-.375l-16.847-12a2.014,2.014,0,1,1,2.338-3.28l16.847,12a2.015,2.015,0,0,1-1.172,3.655Z" transform="translate(18.118 1.808)" fill="#3a678d"/>
      <path id="Path_31314" data-name="Path 31314" d="M37.777,25.772a2,2,0,0,1-1.19-.391c-2.58-1.895-5.876-2.433-9.364-3A36.554,36.554,0,0,1,19.8,20.635a2.014,2.014,0,0,1,1.456-3.756,33.02,33.02,0,0,0,6.619,1.528c3.806.62,7.743,1.259,11.1,3.731a2.012,2.012,0,0,1-1.2,3.633Z" transform="translate(11.667 8.867)" fill="#3a678d"/>
      <path id="Path_31315" data-name="Path 31315" d="M21.606,24.159a1.981,1.981,0,0,1-.729-.137A5.517,5.517,0,0,1,22.869,13.4a2.014,2.014,0,0,1,0,4.028,1.493,1.493,0,0,0-.536,2.845,2.012,2.012,0,0,1-.727,3.889Z" transform="translate(10.58 5.475)" fill="#3a678d"/>
      <path id="Path_31316" data-name="Path 31316" d="M28.057,29.961c-.062,0-.125,0-.189,0a2.013,2.013,0,0,1-1.949-2.074,1.977,1.977,0,0,1,2.076-1.949,1.7,1.7,0,0,0,1.611-1.168,1.636,1.636,0,0,0-.542-1.909,2.013,2.013,0,1,1,2.4-3.232A5.76,5.76,0,0,1,28.057,29.96Z" transform="translate(19.178 11.386)" fill="#3a678d"/>
      <path id="Path_31317" data-name="Path 31317" d="M31.276,26.693c-.022,0-.042,0-.064,0L24.57,26.48A2.015,2.015,0,0,1,22.62,24.4,1.993,1.993,0,0,1,24.7,22.456l6.641.211a2.013,2.013,0,0,1-.062,4.025Z" transform="translate(15.834 14.651)" fill="#3a678d"/>
      <path id="Path_31318" data-name="Path 31318" d="M20.347,27.27a2.145,2.145,0,0,1-.226-.012l-5.542-.616a2.014,2.014,0,0,1,.445-4l5.542.616a2.014,2.014,0,0,1-.22,4.015Z" transform="translate(5.868 14.832)" fill="#3a678d"/>
      <path id="Path_31319" data-name="Path 31319" d="M19.533,27.556a20.255,20.255,0,0,1-2.2-.115,2.015,2.015,0,1,1,.437-4.005,29.441,29.441,0,0,0,7.3-.431,39.878,39.878,0,0,1,6.8-.548,2.013,2.013,0,0,1,1.949,2.074,1.975,1.975,0,0,1-2.076,1.949,37.116,37.116,0,0,0-6.12.516,43.646,43.646,0,0,1-6.1.56Z" transform="translate(8.658 14.647)" fill="#3a678d"/>
      <path id="Path_31320" data-name="Path 31320" d="M34.043,15.619a2.007,2.007,0,0,1-1.166-.375,17.2,17.2,0,0,0-12.739-3,2.015,2.015,0,0,1-.624-3.981,21.229,21.229,0,0,1,15.7,3.705,2.015,2.015,0,0,1-1.17,3.655Z" transform="translate(10.96 0)" fill="#3a678d"/>
      <path id="Path_31321" data-name="Path 31321" d="M9.011,15.56a2.015,2.015,0,0,1-.31-4.005L30.474,8.139A2.015,2.015,0,0,1,31.1,12.12L9.325,15.535a2.083,2.083,0,0,1-.314.024Z" transform="translate(0.001 0.122)" fill="#3a678d"/>
      <path id="Path_31322" data-name="Path 31322" d="M20.673,29.486a2.192,2.192,0,0,1-.23-.012c-3.035-.344-5.4-1.869-7.686-3.343a20.7,20.7,0,0,0-4.39-2.374,2.015,2.015,0,1,1,1.295-3.816,24.048,24.048,0,0,1,5.28,2.805c1.984,1.279,3.858,2.487,5.957,2.725a2.014,2.014,0,0,1-.226,4.015Z" transform="translate(0 11.999)" fill="#3a678d"/>
      <path id="Path_31323" data-name="Path 31323" d="M9.014,34.022A2.013,2.013,0,0,1,7,32.009V11.827a2.014,2.014,0,0,1,4.028,0V32.009A2.013,2.013,0,0,1,9.014,34.022Z" transform="translate(0 1.841)" fill="#3a678d"/>
    </g>
    <g id="Group_17300" data-name="Group 17300" transform="translate(369 21)">
      <path id="Path_31324" data-name="Path 31324" d="M55,1h3.715V8.43H55Z" transform="translate(544.306 1859.961)" fill="#00b2e3"/>
      <path id="Path_31325" data-name="Path 31325" d="M0,0H3.715V7.419H0Z" transform="matrix(0.923, -0.386, 0.386, 0.923, 590.205, 1863.526)" fill="#00b2e3"/>
      <path id="Path_31326" data-name="Path 31326" d="M0,0H7.441V3.715H0Z" transform="translate(605.815 1868.927) rotate(-66.922)" fill="#00b2e3"/>
      <path id="Path_31327" data-name="Path 31327" d="M62,7A13.017,13.017,0,0,0,49,20c0,4.547,1.887,7.354,3.4,9.609,1.213,1.805,2.171,3.232,2.171,5.251V36.72a7.43,7.43,0,0,0,14.86,0V34.863c0-2.019.958-3.446,2.171-5.251,1.514-2.255,3.4-5.062,3.4-9.609A13.017,13.017,0,0,0,62,7Zm0,33.435a3.719,3.719,0,0,1-3.715-3.715h7.43A3.719,3.719,0,0,1,62,40.435ZM60.145,20A1.858,1.858,0,1,1,62,21.86,1.861,1.861,0,0,1,60.145,20Zm8.375,7.538a14.72,14.72,0,0,0-2.615,5.465H63.86V25.233a5.573,5.573,0,1,0-3.715,0v7.772H58.1a14.692,14.692,0,0,0-2.615-5.465c-1.425-2.119-2.77-4.122-2.77-7.538A9.288,9.288,0,1,1,71.29,20c0,3.416-1.345,5.418-2.77,7.538Z" transform="translate(539.16 1865.105)" fill="#00b2e3"/>
    </g>
  </g>
</svg>
