<svg xmlns="http://www.w3.org/2000/svg" width="106.396" height="89.771" viewBox="0 0 106.396 89.771">
  <g id="hand_2_" data-name="hand (2)" transform="translate(0 -5)">
    <path id="Path_31197" data-name="Path 31197" d="M6.7,53H6.678A1.672,1.672,0,1,0,6.7,53Z" transform="translate(3.329 31.797)" fill="#3a678d"/>
    <path id="Path_31198" data-name="Path 31198" d="M98.084,54.873a8.54,8.54,0,0,0-1.411.116L96.654,55l-5.22.8V6.662c0-.032-.017-.057-.018-.086a1.667,1.667,0,0,0-.108-.547,1.69,1.69,0,0,0-.339-.51c-.008-.008-.01-.02-.018-.028A1.675,1.675,0,0,0,89.768,5H39.905a1.65,1.65,0,0,0-.647.128,1.673,1.673,0,0,0-.5.332c-.01.01-.025.013-.035.023l0,0,0,0L32.073,12.1a1.668,1.668,0,0,0-.362.542,1.641,1.641,0,0,0-.128.635V48.223H19.949V46.561A1.661,1.661,0,0,0,18.287,44.9H1.662A1.661,1.661,0,0,0,0,46.561V91.447a1.661,1.661,0,0,0,1.662,1.662H18.287a1.661,1.661,0,0,0,1.662-1.662V90.015l36.359,4.743a1.908,1.908,0,0,0,.216.013,1.617,1.617,0,0,0,.52-.1c.045-.015.088-.033.131-.05s.09-.03.133-.052l44.886-24.167.008-.007c.013-.007.027-.01.038-.017a8.313,8.313,0,0,0-4.158-15.511Zm-13.3,1.93V53.862l3.322-3.322V56.3ZM66.255,59.624a8.245,8.245,0,0,0-3.164-4.788H81.464v2.472ZM44.4,43.687a1.661,1.661,0,0,0-2.351,0L38.72,47.011a1.648,1.648,0,0,0-.08,2.231l-3.732-.728V41.537H81.463v9.975H50.279l-9.621-1.875a1.636,1.636,0,0,0,.412-.274L44.4,46.037a1.661,1.661,0,0,0,0-2.351ZM40.58,8.325H85.745l-3.3,3.29H37.275ZM88.109,45.838l-3.322,3.323V40.6l3.322-3.32Zm-53.2-17.6H81.463v9.975H34.908Zm0-13.3H81.463v9.975H34.908Zm53.2,4.374-3.322,3.323v-8.67l3.322-3.3Zm0,13.265L84.787,35.9V27.34l3.322-3.325ZM16.624,89.784H3.325V48.223h13.3Zm83.978-22.3-44.4,23.9-36.256-4.73V51.548h13.14L59.01,56.6a.118.118,0,0,0,.023,0s.007,0,.012,0a4.988,4.988,0,0,1-.859,9.9,4.727,4.727,0,0,1-.51-.028c-.012,0-.02,0-.032,0s-.02-.007-.032-.008L36.7,64.851a1.662,1.662,0,1,0-.256,3.315L57.356,69.79c.043,0,.088,0,.13,0h0c.231.02.46.04.7.04a8.313,8.313,0,0,0,8.166-6.863l30.848-4.7c.007,0,.01,0,.017-.007h.007a5.22,5.22,0,0,1,.861-.071,4.986,4.986,0,0,1,2.519,9.29Z" transform="translate(0 0)" fill="#3a678d"/>
    <path id="Path_31199" data-name="Path 31199" d="M47.7,12.979h-.018a1.672,1.672,0,1,0,.018,0Z" transform="translate(30.49 5.286)" fill="#00b2e3"/>
    <path id="Path_31200" data-name="Path 31200" d="M26.81,12.465,23.485,15.79a1.662,1.662,0,1,0,2.351,2.351l3.325-3.325a1.662,1.662,0,0,0-2.351-2.351Z" transform="translate(15.234 4.623)" fill="#00b2e3"/>
    <path id="Path_31201" data-name="Path 31201" d="M31.81,12.465,28.485,15.79a1.662,1.662,0,1,0,2.351,2.351l3.325-3.325a1.662,1.662,0,0,0-2.351-2.351Z" transform="translate(18.547 4.623)" fill="#00b2e3"/>
    <path id="Path_31202" data-name="Path 31202" d="M36.81,12.465,33.485,15.79a1.662,1.662,0,1,0,2.351,2.351l3.325-3.325a1.662,1.662,0,0,0-2.351-2.351Z" transform="translate(21.859 4.623)" fill="#00b2e3"/>
    <path id="Path_31203" data-name="Path 31203" d="M47.7,20.979h-.018a1.672,1.672,0,1,0,.018,0Z" transform="translate(30.49 10.585)" fill="#00b2e3"/>
    <path id="Path_31204" data-name="Path 31204" d="M26.81,20.465,23.485,23.79a1.662,1.662,0,1,0,2.351,2.351l3.325-3.325a1.662,1.662,0,0,0-2.351-2.351Z" transform="translate(15.234 9.922)" fill="#00b2e3"/>
    <path id="Path_31205" data-name="Path 31205" d="M31.81,20.465,28.485,23.79a1.662,1.662,0,1,0,2.351,2.351l3.325-3.325a1.662,1.662,0,0,0-2.351-2.351Z" transform="translate(18.547 9.922)" fill="#00b2e3"/>
    <path id="Path_31206" data-name="Path 31206" d="M36.81,20.465,33.485,23.79a1.662,1.662,0,1,0,2.351,2.351l3.325-3.325a1.662,1.662,0,0,0-2.351-2.351Z" transform="translate(21.859 9.922)" fill="#00b2e3"/>
    <path id="Path_31207" data-name="Path 31207" d="M47.7,32.3a1.662,1.662,0,0,0,0-3.325h-.018A1.662,1.662,0,0,0,47.7,32.3Z" transform="translate(30.49 15.885)" fill="#3a678d"/>
    <path id="Path_31208" data-name="Path 31208" d="M29.661,34.629a1.658,1.658,0,0,0,1.175-.487l3.325-3.325a1.662,1.662,0,0,0-2.351-2.351l-3.325,3.325a1.662,1.662,0,0,0,1.175,2.838Z" transform="translate(18.547 15.222)" fill="#3a678d"/>
    <path id="Path_31209" data-name="Path 31209" d="M34.661,34.629a1.658,1.658,0,0,0,1.175-.487l3.325-3.325a1.662,1.662,0,0,0-2.351-2.351l-3.325,3.325a1.662,1.662,0,0,0,1.175,2.838Z" transform="translate(21.859 15.222)" fill="#3a678d"/>
  </g>
</svg>
