<svg id="XMLID_98_" xmlns="http://www.w3.org/2000/svg" width="111.457" height="111.457" viewBox="0 0 111.457 111.457">
  <g id="XMLID_572_" transform="translate(0 0)">
    <path id="XMLID_779_" d="M104.056,0h-38.5a2.177,2.177,0,0,0,0,4.354H93.077A16.135,16.135,0,0,0,107.1,18.38V43.444A16.135,16.135,0,0,0,93.077,57.47H64V46.732a17.85,17.85,0,1,0-16.544,0V57.47H18.38A16.135,16.135,0,0,0,4.354,43.444V18.38A16.135,16.135,0,0,0,18.38,4.354H45.96A2.177,2.177,0,0,0,45.96,0H7.4A7.41,7.41,0,0,0,0,7.4V54.422a7.41,7.41,0,0,0,7.4,7.4H32.965a7.017,7.017,0,0,0,6.493,9.687h5.073a28.355,28.355,0,0,0,.023,23.4h-.568a2.177,2.177,0,0,0-2.177,2.177V109.28a2.177,2.177,0,0,0,2.177,2.177H81.428a2.177,2.177,0,0,0,2.177-2.177V97.09a2.177,2.177,0,0,0-2.177-2.177H78.712l3.944-7.529a35.05,35.05,0,0,0,3.986-16.2v-9.36h17.414a7.41,7.41,0,0,0,7.4-7.4V7.4a7.41,7.41,0,0,0-7.4-7.4ZM97.474,4.354h6.582A3.051,3.051,0,0,1,107.1,7.4v6.582A11.782,11.782,0,0,1,97.474,4.354ZM70.1,61.824V64.98a3.048,3.048,0,0,1-6.1,0V61.824ZM42.232,30.912A13.5,13.5,0,1,1,63.143,42.195a8.268,8.268,0,0,0-14.826,0,13.484,13.484,0,0,1-6.085-11.283ZM7.4,4.354h6.582a11.782,11.782,0,0,1-9.63,9.63V7.4A3.051,3.051,0,0,1,7.4,4.354ZM4.354,54.422V47.84a11.782,11.782,0,0,1,9.63,9.63H7.4A3.051,3.051,0,0,1,4.354,54.422ZM36.791,64.491a2.67,2.67,0,0,1,2.667-2.667h8v4.408l-.551.925H39.458A2.67,2.67,0,0,1,36.791,64.491ZM79.252,107.1H46.163V99.267H79.252Zm3.037-35.919A30.68,30.68,0,0,1,78.8,85.364l-5,9.549H49.358L48.65,93.4a24.038,24.038,0,0,1,1.1-22.514l1.754-2.946a2.177,2.177,0,0,0,.306-1.113V45.86a3.918,3.918,0,0,1,7.837,0V64.98a7.4,7.4,0,0,0,14.8,0V61.824h7.837ZM104.056,57.47H97.474a11.782,11.782,0,0,1,9.63-9.63v6.582A3.051,3.051,0,0,1,104.056,57.47Z" transform="translate(0 0)" fill="#3a678d"/>
    <path id="XMLID_790_" d="M383.925,116.966a6.966,6.966,0,1,0-6.966,6.966A6.974,6.974,0,0,0,383.925,116.966Zm-9.578,0a2.612,2.612,0,1,1,2.612,2.612A2.615,2.615,0,0,1,374.347,116.966Z" transform="translate(-289.449 -86.054)" fill="#00b2e3"/>
    <path id="XMLID_793_" d="M78.007,116.966A6.966,6.966,0,1,0,84.973,110,6.974,6.974,0,0,0,78.007,116.966Zm9.578,0a2.612,2.612,0,1,1-2.612-2.612A2.615,2.615,0,0,1,87.585,116.966Z" transform="translate(-61.026 -86.054)" fill="#00b2e3"/>
    <path id="XMLID_794_" d="M248.177,4.354a2.178,2.178,0,0,0,2.177-2.177,2.177,2.177,0,1,0-3.716,1.539A2.193,2.193,0,0,0,248.177,4.354Z" transform="translate(-192.448 0)" fill="#3a678d"/>
  </g>
</svg>
