<svg xmlns="http://www.w3.org/2000/svg" width="81.828" height="101.466" viewBox="0 0 81.828 101.466">
  <g id="solution" transform="translate(-7 -1)">
    <path id="Path_31036" data-name="Path 31036" d="M67.368,1H44.456a4.916,4.916,0,0,0-4.91,4.91V9.183a6.546,6.546,0,0,0,0,13.092v8.183H52.639V27.185a3.273,3.273,0,1,1,6.546,0v3.273h8.183a4.916,4.916,0,0,0,4.91-4.91V5.91A4.916,4.916,0,0,0,67.368,1ZM69,25.548a1.638,1.638,0,0,1-1.637,1.637h-4.91a6.546,6.546,0,1,0-13.092,0H42.819V19H39.546a3.273,3.273,0,0,1,0-6.546h3.273V5.91a1.638,1.638,0,0,1,1.637-1.637H67.368A1.638,1.638,0,0,1,69,5.91Z" transform="translate(16.55 0)" fill="#3bd4ae"/>
    <path id="Path_31037" data-name="Path 31037" d="M56.1,29.912a6.553,6.553,0,0,0-6.546,6.546H43V28.275H39.731a3.273,3.273,0,1,1,0-6.546H43V7H38.617A31.616,31.616,0,0,0,18.6,63.086L25,68.328v4.437a4.882,4.882,0,0,0,.36,9.328,4.862,4.862,0,0,0,3,6.461,11.448,11.448,0,0,0,22.735,0,4.864,4.864,0,0,0,3-6.463,4.882,4.882,0,0,0,.36-9.328V68.327l6.405-5.242a31.5,31.5,0,0,0,11.6-24.468V36.458H62.643A6.553,6.553,0,0,0,56.1,29.912ZM38.617,10.273h1.114v8.183a6.546,6.546,0,1,0,0,13.092v4.91H33.185a6.546,6.546,0,1,0-13.092,0H10.355A28.381,28.381,0,0,1,38.617,10.273ZM20.668,60.553A28.221,28.221,0,0,1,10.3,39.731h13.07V36.458a3.273,3.273,0,0,1,6.546,0v3.273h9.819v6.546a6.546,6.546,0,1,0,0,13.092V72.462H28.275V66.777ZM39.731,95.374a8.2,8.2,0,0,1-8.017-6.546H47.749A8.2,8.2,0,0,1,39.731,95.374Zm9.819-9.819H29.912a1.637,1.637,0,1,1,0-3.273H49.55a1.637,1.637,0,0,1,0,3.273Zm3.273-6.546H26.639a1.637,1.637,0,1,1,0-3.273H52.823a1.637,1.637,0,0,1,0,3.273Zm5.97-18.455-7.607,6.224v5.685H43V56.1H39.731a3.273,3.273,0,1,1,0-6.546H43V39.731h9.819V36.458a3.273,3.273,0,1,1,6.546,0v3.273h9.8A28.221,28.221,0,0,1,58.794,60.553Z" transform="translate(0 3.819)" fill="#3a678d"/>
  </g>
</svg>
