<svg xmlns="http://www.w3.org/2000/svg" width="102.63" height="109.626" viewBox="0 0 102.63 109.626">
  <g id="save-energy" transform="translate(-3.027 -1)">
    <path id="Path_30721" data-name="Path 30721" d="M34.137,38.726a1.787,1.787,0,0,0,2.106-.51L50.412,20.505a1.771,1.771,0,0,0-1.383-2.878H42.265l1.417-8.563a1.771,1.771,0,0,0-3.13-1.4L26.383,25.376a1.771,1.771,0,0,0,1.392,2.878h6.764l-1.417,8.563A1.771,1.771,0,0,0,34.137,38.726ZM31.461,24.711l7.616-9.523-.652,3.918a1.771,1.771,0,0,0,1.748,2.063h5.17l-7.616,9.523.652-3.918a1.771,1.771,0,0,0-1.748-2.063Z" transform="translate(17.711 4.627)" fill="#00b2e3"/>
    <path id="Path_30722" data-name="Path 30722" d="M24.152,15.8a1.794,1.794,0,0,0,2.187,1.22,1.771,1.771,0,0,0,1.22-2.187L25.895,8.97a1.861,1.861,0,0,0-1.006-1.128,1.886,1.886,0,0,0-1.394-.016l-5.421,2.32a1.771,1.771,0,1,0,1.4,3.255l1.048-.448a26.567,26.567,0,0,0,38.7,32.1,1.771,1.771,0,1,0-1.856-3.011,23.025,23.025,0,0,1-33.6-27.651Z" transform="translate(10.775 5.167)" fill="#3a678d"/>
    <path id="Path_30723" data-name="Path 30723" d="M39.444,1A26.475,26.475,0,0,0,25.569,4.911a1.771,1.771,0,1,0,1.856,3.011,23.025,23.025,0,0,1,33.6,27.651l-.4-1.4a1.771,1.771,0,1,0-3.408.967L58.887,41a1.867,1.867,0,0,0,.871,1.063,1.743,1.743,0,0,0,1.528.076l5.421-2.32a1.771,1.771,0,1,0-1.4-3.256l-1.048.448A26.546,26.546,0,0,0,39.444,1Z" transform="translate(16.669 0)" fill="#3a678d"/>
    <path id="Path_30724" data-name="Path 30724" d="M25.221,88.813a9.033,9.033,0,0,0,12.548,0l5.117-5.136a8.969,8.969,0,0,0,1.771-9.966h19.2a19.334,19.334,0,0,0,13.8-5.749L102.91,42.48a10.1,10.1,0,0,0,.262-13.556,10.223,10.223,0,0,0-14.337.023L67.1,50.838a1.771,1.771,0,1,0,2.513,2.494L91.348,31.442a6.488,6.488,0,0,1,9.224-.113,6.311,6.311,0,0,1-.177,8.652L75.146,65.466a15.818,15.818,0,0,1-11.286,4.7h-22.7a1.771,1.771,0,0,0-1.635,2.448,3.473,3.473,0,0,0,.861,1.054,5.437,5.437,0,0,1,0,7.5L35.265,86.31a5.441,5.441,0,0,1-7.536,0L8.115,66.666a5.352,5.352,0,0,1,0-7.5l5.136-5.136a5.42,5.42,0,0,1,7.515,0L33.66,66.939a1.775,1.775,0,0,0,2.513-2.506L24.612,52.855l2.82-3.471A15.887,15.887,0,0,1,39.721,43.6H54.4a5.313,5.313,0,0,1,0,10.627H47.319a1.771,1.771,0,1,0,0,3.542H54.4a8.856,8.856,0,1,0,0-17.711H39.721A19.431,19.431,0,0,0,24.69,47.14l-2.7,3.319a8.824,8.824,0,0,0-11.243,1.063L5.615,56.658a8.856,8.856,0,0,0,0,12.511Z" transform="translate(0 19.279)" fill="#3a678d"/>
  </g>
</svg>
