<svg xmlns="http://www.w3.org/2000/svg" width="100.111" height="99.339" viewBox="0 0 100.111 99.339">
  <g id="plug_1_" data-name="plug (1)" transform="translate(0 -1.976)">
    <g id="Group_17121" data-name="Group 17121" transform="translate(0 22.095)">
      <g id="Group_17120" data-name="Group 17120">
        <path id="Path_30725" data-name="Path 30725" d="M21.9,162.849a8.29,8.29,0,0,0-9.561-1.555,46.435,46.435,0,0,1,.094-53.335A1.955,1.955,0,0,0,9.25,105.69a50.091,50.091,0,0,0,.1,58.14,8.284,8.284,0,1,0,12.555-.981Zm-2.765,8.95a4.374,4.374,0,1,1,0-6.185A4.379,4.379,0,0,1,19.136,171.8Z" transform="translate(0 -104.869)" fill="#3a678d"/>
      </g>
    </g>
    <g id="Group_17123" data-name="Group 17123" transform="translate(26.983 12.032)">
      <g id="Group_17122" data-name="Group 17122">
        <path id="Path_30726" data-name="Path 30726" d="M190.786,131.174a1.955,1.955,0,0,0-2.73-.44,45.574,45.574,0,0,1-18.677,7.953,5.352,5.352,0,0,1-6.327-5.254V119.1h.171A4.111,4.111,0,0,0,167.33,115v-3.3A17.627,17.627,0,0,0,178.67,95.247V85.99a7.428,7.428,0,0,0-.978-14.531V59.27a5.866,5.866,0,0,0-11.732,0V71.393h-9.776V59.27a5.866,5.866,0,0,0-11.732,0V71.459a7.428,7.428,0,0,0-.978,14.531v9.257a17.627,17.627,0,0,0,11.341,16.447V115a4.111,4.111,0,0,0,4.106,4.106h.22v14.332a9.26,9.26,0,0,0,9.261,9.253,9.356,9.356,0,0,0,1.676-.152,49.454,49.454,0,0,0,20.266-8.631A1.955,1.955,0,0,0,190.786,131.174Zm-20.914-71.9a1.955,1.955,0,1,1,3.911,0V71.393h-3.911Zm-21.508,0a1.955,1.955,0,1,1,3.911,0V71.393h-3.911Zm-6.452,19.553a3.524,3.524,0,0,1,3.52-3.52h31.285a3.52,3.52,0,0,1,0,7.039H145.43A3.524,3.524,0,0,1,141.911,78.823Zm5.475,16.425V86.253H174.76v8.994a13.687,13.687,0,0,1-27.374,0Zm13.761,19.944-.049,0-.049,0h-2.126a.2.2,0,0,1-.2-.2v-2.308a17.631,17.631,0,0,0,4.693,0V115a.2.2,0,0,1-.2.2Z" transform="translate(-138 -53.404)" fill="#3a678d"/>
      </g>
    </g>
    <g id="Group_17125" data-name="Group 17125" transform="translate(82.108 83.976)">
      <g id="Group_17124" data-name="Group 17124">
        <path id="Path_30727" data-name="Path 30727" d="M423.221,421.878a1.955,1.955,0,0,0-2.723.054l-.044.046a1.955,1.955,0,0,0,2.819,2.71l.044-.046A1.955,1.955,0,0,0,423.221,421.878Z" transform="translate(-419.927 -421.352)" fill="#3a678d"/>
      </g>
    </g>
    <g id="Group_17127" data-name="Group 17127" transform="translate(20.249 1.976)">
      <g id="Group_17126" data-name="Group 17126">
        <path id="Path_30728" data-name="Path 30728" d="M183.292,48.265a50.165,50.165,0,0,0-78.9-37.148,1.955,1.955,0,0,0,2.257,3.193A46.679,46.679,0,0,1,166,19.291a45.876,45.876,0,0,1,4.658,59.824,1.955,1.955,0,1,0,3.157,2.308A50.059,50.059,0,0,0,183.292,48.265Z" transform="translate(-103.563 -1.976)" fill="#3a678d"/>
      </g>
    </g>
    <g id="Group_17129" data-name="Group 17129" transform="translate(13.825 16.185)">
      <g id="Group_17128" data-name="Group 17128">
        <path id="Path_30729" data-name="Path 30729" d="M74.069,75.214a1.955,1.955,0,0,0-2.765.012l-.032.032a1.955,1.955,0,0,0,2.778,2.753l.032-.032A1.955,1.955,0,0,0,74.069,75.214Z" transform="translate(-70.706 -74.647)" fill="#3a678d"/>
      </g>
    </g>
    <g id="Group_17131" data-name="Group 17131" transform="translate(45.381 45.76)">
      <g id="Group_17130" data-name="Group 17130">
        <path id="Path_30730" data-name="Path 30730" d="M241.175,233.294a1.955,1.955,0,0,0-1.689-.971h-1.4l2.574-3.251a1.955,1.955,0,0,0-3.066-2.427l-5.082,6.42a1.955,1.955,0,0,0,1.533,3.169h2.084l-2.394,4.228a1.955,1.955,0,1,0,3.4,1.927l4.048-7.147A1.955,1.955,0,0,0,241.175,233.294Z" transform="translate(-232.091 -225.904)" fill="#00b2e3"/>
      </g>
    </g>
  </g>
</svg>
