<svg id="resize-square-and-arrow" xmlns="http://www.w3.org/2000/svg" width="88.103" height="88.103" viewBox="0 0 88.103 88.103">
  <path id="Path_31110" data-name="Path 31110" d="M38.326,145.1H2.446A2.446,2.446,0,0,0,0,147.549v35.88a2.446,2.446,0,0,0,2.446,2.446h35.88a2.446,2.446,0,0,0,2.446-2.446v-35.88A2.447,2.447,0,0,0,38.326,145.1Zm-2.446,35.88H4.893V150H35.88Z" transform="translate(0 -97.773)" fill="#3a678d"/>
  <path id="Path_31111" data-name="Path 31111" d="M257.381,254.853a2.487,2.487,0,1,0-.082,4.974h.082a2.446,2.446,0,0,0,2.446-2.446V257.3A2.446,2.446,0,0,0,257.381,254.853Z" transform="translate(-171.725 -171.725)" fill="#3a678d"/>
  <path id="Path_31112" data-name="Path 31112" d="M155.42,255.1h-.165a2.446,2.446,0,0,0,0,4.893h.165a2.446,2.446,0,0,0,0-4.893Z" transform="translate(-102.966 -171.893)" fill="#3a678d"/>
  <path id="Path_31113" data-name="Path 31113" d="M206.442,255.1h-.165a2.446,2.446,0,1,0,0,4.893h.165a2.446,2.446,0,0,0,0-4.893Z" transform="translate(-137.345 -171.893)" fill="#3a678d"/>
  <path id="Path_31114" data-name="Path 31114" d="M2.446,55.823a2.446,2.446,0,0,0,2.446-2.446v-.165a2.446,2.446,0,1,0-4.893,0v.165A2.446,2.446,0,0,0,2.446,55.823Z" transform="translate(0 -34.207)" fill="#3a678d"/>
  <path id="Path_31115" data-name="Path 31115" d="M2.446,106.845A2.446,2.446,0,0,0,4.893,104.4v-.165a2.446,2.446,0,1,0-4.893,0v.165A2.446,2.446,0,0,0,2.446,106.845Z" transform="translate(0 -68.587)" fill="#3a678d"/>
  <path id="Path_31116" data-name="Path 31116" d="M2.446,4.974a2.44,2.44,0,0,0,1.77-.758A2.446,2.446,0,0,0,2.528,0H2.446A2.446,2.446,0,0,0,0,2.446v.082A2.446,2.446,0,0,0,2.446,4.974Z" fill="#3a678d"/>
  <path id="Path_31117" data-name="Path 31117" d="M104.234,4.893h.165A2.446,2.446,0,1,0,104.4,0h-.165a2.446,2.446,0,1,0,0,4.893Z" transform="translate(-68.587)" fill="#3a678d"/>
  <path id="Path_31118" data-name="Path 31118" d="M53.213,4.893h.165a2.446,2.446,0,1,0,0-4.893h-.165a2.446,2.446,0,1,0,0,4.893Z" transform="translate(-34.208)" fill="#3a678d"/>
  <path id="Path_31119" data-name="Path 31119" d="M155.256,4.893h.165a2.446,2.446,0,0,0,0-4.893h-.165a2.446,2.446,0,0,0,0,4.893Z" transform="translate(-102.966)" fill="#3a678d"/>
  <path id="Path_31120" data-name="Path 31120" d="M206.277,4.893h.165a2.446,2.446,0,0,0,0-4.893h-.165a2.446,2.446,0,1,0,0,4.893Z" transform="translate(-137.345)" fill="#3a678d"/>
  <path id="Path_31121" data-name="Path 31121" d="M257.381,0H257.3a2.446,2.446,0,0,0-1.689,4.217,2.446,2.446,0,0,0,4.217-1.689V2.446A2.446,2.446,0,0,0,257.381,0Z" transform="translate(-171.725)" fill="#3a678d"/>
  <path id="Path_31122" data-name="Path 31122" d="M257.549,50.767a2.446,2.446,0,0,0-2.446,2.446v.165a2.446,2.446,0,1,0,4.893,0v-.165A2.446,2.446,0,0,0,257.549,50.767Z" transform="translate(-171.893 -34.208)" fill="#3a678d"/>
  <path id="Path_31123" data-name="Path 31123" d="M257.549,101.788a2.446,2.446,0,0,0-2.446,2.446v.165a2.446,2.446,0,1,0,4.893,0v-.165A2.446,2.446,0,0,0,257.549,101.788Z" transform="translate(-171.893 -68.587)" fill="#3a678d"/>
  <path id="Path_31124" data-name="Path 31124" d="M257.549,152.81a2.446,2.446,0,0,0-2.446,2.446v.165a2.446,2.446,0,1,0,4.893,0v-.165A2.446,2.446,0,0,0,257.549,152.81Z" transform="translate(-171.893 -102.966)" fill="#3a678d"/>
  <path id="Path_31125" data-name="Path 31125" d="M257.549,203.831a2.446,2.446,0,0,0-2.446,2.446v.165a2.446,2.446,0,1,0,4.893,0v-.165A2.446,2.446,0,0,0,257.549,203.831Z" transform="translate(-171.893 -137.345)" fill="#3a678d"/>
  <path id="Path_31126" data-name="Path 31126" d="M164.423,47.6H149.762a2.446,2.446,0,0,0,0,4.893H158.8L139.884,71.4a2.446,2.446,0,1,0,3.459,3.459l18.634-18.634V64.7a2.446,2.446,0,1,0,4.893,0V50.042A2.446,2.446,0,0,0,164.423,47.6Z" transform="translate(-93.773 -32.071)" fill="#00b2e3"/>
</svg>
