<svg id="XMLID_1371_" xmlns="http://www.w3.org/2000/svg" width="103.086" height="103.086" viewBox="0 0 103.086 103.086">
  <g id="XMLID_174_" transform="translate(0 0)">
    <path id="XMLID_175_" d="M204.4,12.178a2.013,2.013,0,0,0-.487-2.805,51.626,51.626,0,0,0-48.991-5.618,2.013,2.013,0,0,0,1.512,3.732,47.6,47.6,0,0,1,45.16,5.179,2.013,2.013,0,0,0,2.805-.487Z" transform="translate(-122.725 0)" fill="#3a678d"/>
    <path id="XMLID_216_" d="M417.566,138.405a51.291,51.291,0,0,0-8.761-28.756,2.013,2.013,0,0,0-3.34,2.249,47.535,47.535,0,0,1-.9,54.3,7.668,7.668,0,1,0,3.105,2.577,51.023,51.023,0,0,0,9.9-30.37ZM401.41,176.79a3.624,3.624,0,1,1,3.624-3.624A3.628,3.628,0,0,1,401.41,176.79Z" transform="translate(-314.48 -86.862)" fill="#3a678d"/>
    <path id="XMLID_219_" d="M69.377,131.822A47.545,47.545,0,0,1,4.027,87.765,47.03,47.03,0,0,1,13,59.972,7.668,7.668,0,1,0,9.9,57.4a51.544,51.544,0,0,0,41.647,81.913,51.275,51.275,0,0,0,19.347-3.754,2.014,2.014,0,0,0-1.512-3.732ZM16.156,49.381A3.624,3.624,0,1,1,12.532,53,3.628,3.628,0,0,1,16.156,49.381Z" transform="translate(0 -36.222)" fill="#3a678d"/>
    <path id="XMLID_222_" d="M225.417,233.77a7.711,7.711,0,0,0-6.04,12.5v6.012a6.04,6.04,0,1,0,12.08,0v-6.012a7.711,7.711,0,0,0-6.04-12.5Zm2.6,10.315a2.014,2.014,0,0,0-.59,1.424v6.776a2.013,2.013,0,1,1-4.027,0v-6.776a2.014,2.014,0,0,0-.59-1.424,3.683,3.683,0,1,1,5.207,0Z" transform="translate(-173.874 -186.703)" fill="#00b2e3"/>
    <path id="XMLID_225_" d="M183.466,105.809v-4.128a18.513,18.513,0,0,0-37.027,0v4.128a7.293,7.293,0,0,0-4.439,6.7v26.509a7.29,7.29,0,0,0,7.282,7.282h31.342a7.29,7.29,0,0,0,7.282-7.282V112.513A7.293,7.293,0,0,0,183.466,105.809Zm-33-4.128a14.487,14.487,0,0,1,28.973,0v3.55h-4.223v-3.55a10.264,10.264,0,0,0-20.527,0v3.55h-4.223v-3.55Zm8.25,3.55v-3.55a6.237,6.237,0,0,1,12.473,0v3.55Zm25.163,33.791a3.259,3.259,0,0,1-3.255,3.255H149.282a3.259,3.259,0,0,1-3.255-3.255V112.513a3.259,3.259,0,0,1,3.255-3.255h31.342a3.259,3.259,0,0,1,3.255,3.255Z" transform="translate(-113.41 -66.423)" fill="#3a678d"/>
    <path id="XMLID_233_" d="M423.773,77.915a2.011,2.011,0,1,0-1.423-.588A2.027,2.027,0,0,0,423.773,77.915Z" transform="translate(-336.843 -59.013)" fill="#3a678d"/>
  </g>
</svg>
