<svg id="layer1" xmlns="http://www.w3.org/2000/svg" width="111" height="111" viewBox="0 0 111 111">
  <path id="rect906" d="M102.355,13.855a1.733,1.733,0,0,0-1.741,1.728V17.4c-4.774,0-11.911-1.819-20.829-1.819-4.059,0-7.679,1.967-10.593,4.278a33.241,33.241,0,0,0-5.43,5.5,30.419,30.419,0,0,0-8.262-1.1,29.085,29.085,0,0,0-13.147,2.991c-3.015-2.529-6.821-4.736-11.155-4.736-8.919,0-16.039,1.822-20.813,1.822V22.523A1.733,1.733,0,0,0,8.645,20.8H1.728a1.736,1.736,0,0,0,0,3.472h5.19V48.546H1.728a1.734,1.734,0,0,0,0,3.469H8.645a1.733,1.733,0,0,0,1.741-1.728c.849,0,3.032,1.073,5.7,2.408a21.933,21.933,0,0,0,9.888,2.788h2c.968,7.172,4.679,12.325,8.066,16.4,1.809,2.174,3.542,4.073,4.742,5.776A8.428,8.428,0,0,1,42.6,81.936a5.188,5.188,0,0,0,2.483,7.937V98.86a5.241,5.241,0,0,0,3.476,4.9V105.8a5.232,5.232,0,0,0,5.21,5.2h3.459a5.235,5.235,0,0,0,5.213-5.2v-2.043a5.239,5.239,0,0,0,3.472-4.9V89.873a5.231,5.231,0,0,0,3.469-4.895,5.132,5.132,0,0,0-.993-3.015,8.76,8.76,0,0,1,2-4.539c1.3-1.8,3.142-3.8,5.044-6.125,3.8-4.653,7.825-10.75,7.825-19.488a30.894,30.894,0,0,0-.19-3.266h1.958A21.887,21.887,0,0,0,94.9,45.768c2.669-1.336,4.866-2.422,5.715-2.422a1.736,1.736,0,0,0,1.741,1.731h6.9a1.736,1.736,0,1,0,0-3.472h-5.176V17.323h5.176a1.734,1.734,0,1,0,0-3.469Zm-22.571,5.2c8.433,0,15.242,1.816,20.829,1.816V39.877c-2.6,0-4.733,1.511-7.263,2.778a18.733,18.733,0,0,1-8.33,2.422H75.456a2.6,2.6,0,0,1,0-5.2h6.1a1.736,1.736,0,0,0,0-3.472H78.847a26.133,26.133,0,0,0-11.6-9.81,29.517,29.517,0,0,1,4.1-4.007c2.553-2.025,5.532-3.533,8.438-3.533ZM31.2,26a13.862,13.862,0,0,1,7.977,3.164A25.948,25.948,0,0,0,28.963,43.336l-1.219.01a1.736,1.736,0,1,0,0,3.472h6.074a2.6,2.6,0,0,1,0,5.2H25.975A18.716,18.716,0,0,1,17.649,49.6c-2.53-1.266-4.666-2.778-7.263-2.778v-19C15.974,27.814,22.766,26,31.2,26Zm22.557,1.8V34.9a5.92,5.92,0,0,0-1.728-.237,6.941,6.941,0,1,0,0,13.882,7.189,7.189,0,0,0,1.728-.207v3.675H39.291a6,6,0,0,0,.593-2.6,6.091,6.091,0,0,0-6.067-6.07h-1.2c3-8.681,10.579-14.935,21.138-15.555Zm3.472,0a23.379,23.379,0,0,1,17.384,8.672,6.071,6.071,0,0,0,.843,12.083h4.116a27.451,27.451,0,0,1,.224,3.448l-8.438.02a1.734,1.734,0,0,0-1.294,2.893,3.485,3.485,0,0,1,.884,2.31,3.464,3.464,0,1,1-6.927,0,3.483,3.483,0,0,1,.881-2.314,1.733,1.733,0,0,0-1.291-2.893H57.228V45.487a1.737,1.737,0,0,0-2.9-1.294,3.479,3.479,0,1,1,0-5.162,1.737,1.737,0,0,0,2.9-1.294ZM31.483,55.483H53.756v3.689a5.883,5.883,0,0,0-1.728-.213,6.941,6.941,0,1,0,0,13.882,6.246,6.246,0,0,0,1.728-.227v7.165H46.828a5.126,5.126,0,0,0-1.06.112,13.985,13.985,0,0,0-2.154-4.234c-1.393-1.976-3.15-3.9-4.895-6-3.186-3.829-6.305-8.165-7.236-14.177Zm25.745,0h3.506a7.116,7.116,0,0,0-.19,1.734,6.938,6.938,0,0,0,13.875,0,5.936,5.936,0,0,0-.22-1.734h5.322c-.883,5.729-3.759,9.916-6.782,13.614-1.817,2.223-3.684,4.233-5.173,6.291a14.368,14.368,0,0,0-2.337,4.5,5.152,5.152,0,0,0-1.057-.108H57.228V69.765a1.737,1.737,0,0,0-2.9-1.294,3.464,3.464,0,1,1,0-5.159,1.737,1.737,0,0,0,2.9-1.294ZM46.811,83.237H64.172a1.734,1.734,0,1,1,0,3.469H46.828a1.725,1.725,0,0,1-1.745-1.728,1.771,1.771,0,0,1,1.728-1.741Zm1.748,6.941H62.441V98.86a1.694,1.694,0,0,1-1.741,1.728H50.3a1.693,1.693,0,0,1-1.741-1.728Zm3.469,13.882h6.944V105.8a1.7,1.7,0,0,1-1.745,1.728H53.769a1.693,1.693,0,0,1-1.741-1.728Z" transform="translate(0 0)" fill="#3a678d"/>
  <path id="rect906-2" data-name="rect906" d="M55.453,0a1.743,1.743,0,0,0-1.7,1.728v5.3a1.736,1.736,0,0,0,3.472,0v-5.3A1.745,1.745,0,0,0,55.453,0ZM41.263,3.164a1.742,1.742,0,0,0-1.148,2.967l3.743,3.743a1.734,1.734,0,1,0,2.456-2.449l-3.736-3.75a1.736,1.736,0,0,0-1.314-.512Zm28.39.01a1.737,1.737,0,0,0-1.23.5l-3.74,3.75a1.735,1.735,0,0,0,2.459,2.449l3.74-3.743a1.729,1.729,0,0,0-1.23-2.957Z" fill="#00b2e3"/>
</svg>
