<svg xmlns="http://www.w3.org/2000/svg" width="113.714" height="125.5" viewBox="0 0 113.714 125.5">
  <g id="mechanic" transform="translate(-4.207 -2)">
    <path id="Path_31038" data-name="Path 31038" d="M26.6,7.646a1.336,1.336,0,0,0,1.559-2.17,23.461,23.461,0,0,0-4.986-2.738,1.335,1.335,0,1,0-.994,2.477A20.816,20.816,0,0,1,26.6,7.646Z" transform="translate(28.62 1.071)" fill="#00b2e3"/>
    <path id="Path_31039" data-name="Path 31039" d="M28.082,10.228a1.336,1.336,0,0,0,1.094-2.1A23.72,23.72,0,0,0,26.5,4.93,1.336,1.336,0,0,0,24.6,6.818a20.852,20.852,0,0,1,2.381,2.84A1.331,1.331,0,0,0,28.082,10.228Z" transform="translate(33.418 4.241)" fill="#00b2e3"/>
    <path id="Path_31040" data-name="Path 31040" d="M23.974,5.173a1.335,1.335,0,0,0,.6-2.6A22.914,22.914,0,0,0,19.442,2a1.335,1.335,0,0,0,0,2.67,20.2,20.2,0,0,1,4.532.5Z" transform="translate(23.216 0)" fill="#00b2e3"/>
    <path id="Path_31041" data-name="Path 31041" d="M91.771,83.88,88.565,79.3a6.843,6.843,0,0,0-.85-8.023,6.7,6.7,0,0,0-4.49-2.163,6.856,6.856,0,0,0-1.146-7.507,6.556,6.556,0,0,0-4.709-2.193A7.513,7.513,0,0,0,76,51.455a7.192,7.192,0,0,0-5.519-2.383,8.261,8.261,0,0,0-1.5-8.8,7.985,7.985,0,0,0-9.2-1.951L55.6,32.372a19.391,19.391,0,0,0-1.224-20.264A19.034,19.034,0,0,0,41.731,4.16a19.344,19.344,0,0,0-6.87.138,1.336,1.336,0,0,0-.823,2.078l6.647,9.442a5.942,5.942,0,0,1,1.005,4.459A5.857,5.857,0,0,1,39.3,24.1a5.752,5.752,0,0,1-1.213.649,5.91,5.91,0,0,1-7.1-2.07l-6.648-9.445a1.416,1.416,0,0,0-1.138-.566,1.335,1.335,0,0,0-1.1.644,19.249,19.249,0,0,0,.741,21.007A19.05,19.05,0,0,0,41.452,42.3l.043,0,.067.1a38.916,38.916,0,0,0-5.334,1.7A20.8,20.8,0,0,0,23.438,62.281a102.165,102.165,0,0,0,.124,11.278,18.522,18.522,0,0,1-3.089,11.431,4.693,4.693,0,0,0-6.074.162L8.108,91.028a4.513,4.513,0,0,0-1.488,3.2,4.462,4.462,0,0,0,1.216,3.26L30.96,122.781a4.561,4.561,0,0,0,3.211,1.51c.064,0,.126.005.19.005a4.587,4.587,0,0,0,3.151-1.257l6.308-5.857a4.628,4.628,0,0,0,.258-6.477l-.008-.008.052-.049a14.119,14.119,0,0,1,7.149-3.57l4.872-.876a16.773,16.773,0,0,0,8.535-4.243L76,91.427l1.676,2.383a19.229,19.229,0,0,0,20.714,28.053A1.333,1.333,0,0,0,99.439,121a1.221,1.221,0,0,0-.278-1.267l-6.6-9.393a5.941,5.941,0,1,1,9.7-6.855l6.647,9.442a1.372,1.372,0,0,0,1.14.566,1.34,1.34,0,0,0,1.1-.647A19.252,19.252,0,0,0,91.771,83.88Zm-6.256-4.936-10.1,9.38-.016.016c-.007.006-.01.015-.017.021a4.054,4.054,0,0,1-5.771-.253,4.172,4.172,0,0,1,.232-5.857l10.123-9.408a4.064,4.064,0,0,1,5.784.245,4.172,4.172,0,0,1-.232,5.857ZM67.04,42.1a5.567,5.567,0,0,1-.336,7.818L62.79,53.564A1.334,1.334,0,1,0,64.6,55.52l2.765-2.571a4.7,4.7,0,0,1,6.667.316,4.833,4.833,0,0,1-.269,6.782l-3.094,2.876a1.335,1.335,0,1,0,1.817,1.956l1.844-1.714c3.945-3.645,9.573,2.365,5.543,6.111L69.757,78.684a4.055,4.055,0,0,1-5.784-.246,4.172,4.172,0,0,1,.232-5.857L68.593,68.5a1.335,1.335,0,1,0-1.817-1.956L64.6,68.571a4.708,4.708,0,0,1-6.706-.287A4.833,4.833,0,0,1,58.16,61.5a1.313,1.313,0,0,0,.4-.83,12.655,12.655,0,0,0,3.092-2.416A1.335,1.335,0,1,0,59.837,56.3c-.991.816-1.386,1.6-3.052,2.209-.245-1.542-.289-1.045-3.838-10.838l6.35-5.9a5.4,5.4,0,0,1,7.743.329ZM41.11,39.652a16.6,16.6,0,0,1-17.7-23.091L28.8,24.21a8.566,8.566,0,0,0,10.269,3.02,8.37,8.37,0,0,0,1.741-.928A8.629,8.629,0,0,0,42.868,14.28L37.48,6.627a17.175,17.175,0,0,1,3.828.17,16.377,16.377,0,0,1,10.88,6.848,16.719,16.719,0,0,1,.685,18.126,1.336,1.336,0,0,0,.056,1.447l4.606,6.55-5.8,5.377a8.022,8.022,0,0,0-6.908-3.388c-.147.007-.293.007-.441.022L43.2,40.08a1.343,1.343,0,0,0-1.348-.548C41.637,39.577,41.4,39.621,41.11,39.652ZM62.863,100a14.115,14.115,0,0,1-7.183,3.572l-4.875.876a16.8,16.8,0,0,0-8.5,4.248l-.03.029-2.233-2.443a1.334,1.334,0,1,0-1.971,1.8l3.115,3.409c.017.02.022.045.04.065s.036.021.051.036l.83.908a1.974,1.974,0,0,1-.1,2.728l-6.313,5.859a1.979,1.979,0,0,1-1.411.537,1.917,1.917,0,0,1-1.346-.639L9.79,95.667a1.825,1.825,0,0,1-.5-1.34,1.874,1.874,0,0,1,.626-1.332l6.292-5.875a2.009,2.009,0,0,1,2.773.086l.477.522a1.314,1.314,0,0,0,.318.38c.018.015.041.019.06.033l14.512,15.873a1.334,1.334,0,1,0,1.971-1.8L22.353,86.939A21.159,21.159,0,0,0,26.227,73.4a99.857,99.857,0,0,1-.121-10.991A18.126,18.126,0,0,1,37.239,46.557a36.088,36.088,0,0,1,7-2.068,5.317,5.317,0,0,1,5.9,3.3v0l3.823,10.326a4.615,4.615,0,0,1-4.247,6.206h-.037a4.543,4.543,0,0,1-4.252-3,25.6,25.6,0,0,1-1.259-9.682,1.337,1.337,0,0,0-1.3-1.372,1.3,1.3,0,0,0-1.372,1.3,28.123,28.123,0,0,0,1.421,10.668c1.341,3.8,8.708,7.355,6.34,15.247a1.334,1.334,0,0,0,.9,1.661,1.308,1.308,0,0,0,.383.057,1.335,1.335,0,0,0,1.279-.952,12.79,12.79,0,0,0-1.97-11.27,7.134,7.134,0,0,0,4.166-1.451,7.443,7.443,0,0,0,1.915,4.57A7.348,7.348,0,0,0,61,72.488a6.845,6.845,0,0,0,1,7.759,6.7,6.7,0,0,0,4.49,2.16,6.862,6.862,0,0,0,1.145,7.509,6.686,6.686,0,0,0,3.846,2.073Zm46.968,9.591-5.37-7.627a8.611,8.611,0,1,0-14.081,9.914l5.378,7.659A16.612,16.612,0,0,1,80.4,94.428c.749-1.247-.739-2.1-2.421-4.829l8.811-8.183,3.286,4.694a1.337,1.337,0,0,0,1.357.542,16.575,16.575,0,0,1,18.4,22.939Z" transform="translate(4.026 3.204)" fill="#3a678d"/>
    <path id="Path_31042" data-name="Path 31042" d="M11.449,44.342a1.334,1.334,0,1,0-1.971,1.8l1.747,1.911a1.334,1.334,0,1,0,1.971-1.8Z" transform="translate(8.22 69.991)" fill="#00b2e3"/>
    <path id="Path_31043" data-name="Path 31043" d="M9.534,36.967A1.335,1.335,0,1,0,7.74,34.99a10.945,10.945,0,0,0-3.532,7.679,1.336,1.336,0,0,0,1.284,1.385h.051a1.334,1.334,0,0,0,1.332-1.286A8.378,8.378,0,0,1,9.534,36.967Z" transform="translate(0 54.522)" fill="#00b2e3"/>
    <path id="Path_31044" data-name="Path 31044" d="M7.517,40.227a1.334,1.334,0,1,0-1.971,1.8l1.747,1.911a1.334,1.334,0,1,0,1.971-1.8Z" transform="translate(1.653 63.118)" fill="#00b2e3"/>
    <path id="Path_31045" data-name="Path 31045" d="M9.483,42.282a1.336,1.336,0,0,0-1.971,1.8L9.26,46a1.336,1.336,0,0,0,1.971-1.8Z" transform="translate(4.936 66.555)" fill="#00b2e3"/>
  </g>
</svg>
