<svg xmlns="http://www.w3.org/2000/svg" width="94.297" height="117.489" viewBox="0 0 94.297 117.489">
  <g id="idea_4_" data-name="idea (4)" transform="translate(-50.534)">
    <path id="Path_31134" data-name="Path 31134" d="M424.282,197.966h-7.119a1.721,1.721,0,1,0,0,3.442h7.119a1.721,1.721,0,0,0,0-3.442Z" transform="translate(-281.172 -152.539)" fill="#00b2e3"/>
    <path id="Path_31135" data-name="Path 31135" d="M59.374,197.966H52.255a1.721,1.721,0,0,0,0,3.442h7.119a1.721,1.721,0,1,0,0-3.442Z" transform="translate(0 -152.539)" fill="#00b2e3"/>
    <path id="Path_31136" data-name="Path 31136" d="M372.083,58.487l-5.034,5.034a1.721,1.721,0,1,0,2.434,2.434l5.034-5.034a1.721,1.721,0,0,0-2.434-2.434Z" transform="translate(-243.496 -44.677)" fill="#00b2e3"/>
    <path id="Path_31137" data-name="Path 31137" d="M114.054,316.516l-5.034,5.034a1.721,1.721,0,1,0,2.434,2.434l5.034-5.034a1.721,1.721,0,0,0-2.434-2.434Z" transform="translate(-44.677 -243.496)" fill="#00b2e3"/>
    <path id="Path_31138" data-name="Path 31138" d="M251.942,8.84V1.721a1.721,1.721,0,1,0-3.442,0V8.84a1.721,1.721,0,1,0,3.442,0Z" transform="translate(-152.539)" fill="#00b2e3"/>
    <path id="Path_31139" data-name="Path 31139" d="M114.055,65.955a1.721,1.721,0,1,0,2.434-2.434l-5.034-5.034a1.721,1.721,0,0,0-2.434,2.434Z" transform="translate(-44.678 -44.678)" fill="#00b2e3"/>
    <path id="Path_31140" data-name="Path 31140" d="M369.484,316.515a1.721,1.721,0,0,0-2.434,2.434l5.034,5.034a1.721,1.721,0,0,0,2.434-2.434Z" transform="translate(-243.497 -243.496)" fill="#00b2e3"/>
    <path id="Path_31141" data-name="Path 31141" d="M185.908,119.728a6.066,6.066,0,0,0,.17,1.422l-2.884,1.666a6.08,6.08,0,1,0-5.91,10.236v3.33a6.079,6.079,0,1,0,5.911,10.237l2.884,1.665a6.078,6.078,0,1,0,11.816,0l2.884-1.665a6.079,6.079,0,1,0,5.911-10.237V133.05a6.078,6.078,0,1,0-4.76-11.092,6.131,6.131,0,0,0-1.152.86l-2.883-1.664a6.078,6.078,0,1,0-11.986-1.426Zm6.078,6.078a6.054,6.054,0,0,0,4.182-1.674l2.891,1.668a6.067,6.067,0,0,0,4.188,7.246v3.337a6.076,6.076,0,0,0-4.188,7.253l-2.889,1.668a6.061,6.061,0,0,0-8.367,0l-2.889-1.668a6.076,6.076,0,0,0-4.188-7.253v-3.332a6.076,6.076,0,0,0,4.188-7.254l2.888-1.668a6.054,6.054,0,0,0,4.186,1.677Zm-15.265.1a2.637,2.637,0,1,1,.965,3.6,2.64,2.64,0,0,1-.965-3.6Zm3.6,18.592a2.637,2.637,0,1,1,.965-3.6,2.64,2.64,0,0,1-.965,3.6Zm11.664,7.848a2.637,2.637,0,1,1,2.636-2.637A2.639,2.639,0,0,1,191.986,152.345Zm15.265-8.813a2.637,2.637,0,1,1-.965-3.6h0A2.632,2.632,0,0,1,207.252,143.532Zm-3.6-18.592a2.637,2.637,0,1,1-.965,3.6A2.64,2.64,0,0,1,203.65,124.94Zm-11.664-7.848a2.637,2.637,0,1,1-2.636,2.637A2.639,2.639,0,0,1,191.986,117.092Z" transform="translate(-94.304 -87.57)" fill="#3a678d"/>
    <path id="Path_31142" data-name="Path 31142" d="M290.236,101.1a1.721,1.721,0,1,0,3.408-.481A30.332,30.332,0,0,0,267.959,74.93a1.721,1.721,0,1,0-.48,3.409A26.874,26.874,0,0,1,290.236,101.1Z" transform="translate(-166.021 -57.723)" fill="#3a678d"/>
    <path id="Path_31143" data-name="Path 31143" d="M182.936,107.194a1.722,1.722,0,0,0-1.945,1.464,26.712,26.712,0,0,1-9.475,16.89,16.486,16.486,0,0,0-6.067,12.717v6.381a3.74,3.74,0,0,1-3.731,3.731H147.2a3.741,3.741,0,0,1-3.731-3.731v-6.382a16.149,16.149,0,0,0-5.92-12.595,26.8,26.8,0,0,1,13.139-47.317,1.721,1.721,0,1,0-.486-3.407,30.238,30.238,0,0,0-14.827,53.393,12.721,12.721,0,0,1,4.652,9.926v6.382a7.171,7.171,0,0,0,3.186,5.959v10.332A6.354,6.354,0,0,0,147.69,167v1.454a6.768,6.768,0,0,0,13.536,0V167a6.354,6.354,0,0,0,4.48-6.064V150.606a7.172,7.172,0,0,0,3.185-5.959v-6.381A13.055,13.055,0,0,1,173.71,128.2,30.148,30.148,0,0,0,184.4,109.139,1.721,1.721,0,0,0,182.936,107.194Zm-25.152,61.261a3.326,3.326,0,0,1-6.652,0v-1.174h6.652v1.174Zm1.546-4.616c-11.6,0-9.31,0-9.893-.006a2.9,2.9,0,0,1-2.786-2.9v-1.658h15.612v1.658A2.9,2.9,0,0,1,159.331,163.839Zm2.934-12.04v4.038H146.652V151.8c.115.009.379.02.545.02h14.522C161.886,151.819,162.15,151.808,162.264,151.8Z" transform="translate(-56.776 -57.734)" fill="#3a678d"/>
  </g>
</svg>
