<svg id="sun_8_" data-name="sun (8)" xmlns="http://www.w3.org/2000/svg" width="48.068" height="48.068" viewBox="0 0 48.068 48.068">
  <g id="Group_17217" data-name="Group 17217" transform="translate(6.453 6.453)">
    <g id="Group_17216" data-name="Group 17216">
      <path id="Path_30908" data-name="Path 30908" d="M57.8,54.973l-2.832-2.832a2,2,0,1,0-2.832,2.832L54.973,57.8A2,2,0,0,0,57.8,54.973Z" transform="translate(-51.554 -51.554)" fill="#fff"/>
    </g>
  </g>
  <g id="Group_17219" data-name="Group 17219" transform="translate(0 22.031)">
    <g id="Group_17218" data-name="Group 17218">
      <path id="Path_30909" data-name="Path 30909" d="M6.008,176H2a2,2,0,0,0,0,4.006H6.008a2,2,0,0,0,0-4.006Z" transform="translate(0 -176)" fill="#fff"/>
    </g>
  </g>
  <g id="Group_17221" data-name="Group 17221" transform="translate(6.453 34.777)">
    <g id="Group_17220" data-name="Group 17220">
      <path id="Path_30910" data-name="Path 30910" d="M57.8,278.413a2,2,0,0,0-2.832,0l-2.832,2.832a2,2,0,1,0,2.832,2.832l2.832-2.832A2,2,0,0,0,57.8,278.413Z" transform="translate(-51.554 -277.826)" fill="#fff"/>
    </g>
  </g>
  <g id="Group_17223" data-name="Group 17223" transform="translate(22.031 40.057)">
    <g id="Group_17222" data-name="Group 17222">
      <path id="Path_30911" data-name="Path 30911" d="M178,320a2,2,0,0,0-2,2v4.006a2,2,0,1,0,4.006,0V322A2,2,0,0,0,178,320Z" transform="translate(-176 -320)" fill="#fff"/>
    </g>
  </g>
  <g id="Group_17225" data-name="Group 17225" transform="translate(34.777 34.777)">
    <g id="Group_17224" data-name="Group 17224">
      <path id="Path_30912" data-name="Path 30912" d="M284.077,281.245l-2.832-2.832a2,2,0,1,0-2.832,2.832l2.832,2.832a2,2,0,0,0,2.832-2.832Z" transform="translate(-277.826 -277.826)" fill="#fff"/>
    </g>
  </g>
  <g id="Group_17227" data-name="Group 17227" transform="translate(40.057 22.031)">
    <g id="Group_17226" data-name="Group 17226">
      <path id="Path_30913" data-name="Path 30913" d="M326.008,176H322a2,2,0,1,0,0,4.006h4.006a2,2,0,1,0,0-4.006Z" transform="translate(-320 -176)" fill="#fff"/>
    </g>
  </g>
  <g id="Group_17229" data-name="Group 17229" transform="translate(34.777 6.453)">
    <g id="Group_17228" data-name="Group 17228">
      <path id="Path_30914" data-name="Path 30914" d="M284.077,52.141a2,2,0,0,0-2.832,0l-2.832,2.832a2,2,0,1,0,2.832,2.832l2.832-2.832A2,2,0,0,0,284.077,52.141Z" transform="translate(-277.826 -51.554)" fill="#fff"/>
    </g>
  </g>
  <g id="Group_17231" data-name="Group 17231" transform="translate(22.031)">
    <g id="Group_17230" data-name="Group 17230">
      <path id="Path_30915" data-name="Path 30915" d="M178,0a2,2,0,0,0-2,2V6.008a2,2,0,0,0,4.006,0V2A2,2,0,0,0,178,0Z" transform="translate(-176)" fill="#fff"/>
    </g>
  </g>
  <g id="Group_17233" data-name="Group 17233" transform="translate(11.016 11.016)">
    <g id="Group_17232" data-name="Group 17232">
      <path id="Path_30916" data-name="Path 30916" d="M101.018,88a13.018,13.018,0,1,0,13.018,13.018A13.033,13.033,0,0,0,101.018,88Zm0,22.031a9.013,9.013,0,1,1,9.013-9.013A9.024,9.024,0,0,1,101.018,110.031Z" transform="translate(-88 -88)" fill="#fff"/>
    </g>
  </g>
</svg>
