<svg xmlns="http://www.w3.org/2000/svg" width="34.211" height="34.211" viewBox="0 0 34.211 34.211">
  <g id="layer1" transform="translate(-0.529 -291.179)">
    <path id="path52" d="M17.616,291.179a1.715,1.715,0,0,0-1.694,1.738v13.75a1.712,1.712,0,1,0,3.425,0v-13.75a1.714,1.714,0,0,0-1.731-1.738Zm9.98,3.447a1.658,1.658,0,0,0-.167,0,1.72,1.72,0,0,0-.949,3.034,13.685,13.685,0,1,1-17.742.05,1.724,1.724,0,0,0,.19-2.423,1.706,1.706,0,0,0-2.412-.191A17.233,17.233,0,0,0,17.643,325.39a17.233,17.233,0,0,0,11.049-30.341,1.707,1.707,0,0,0-1.1-.423Z" transform="translate(0 0)" fill="currentColor"/>
  </g>
</svg>
