<svg id="timing" xmlns="http://www.w3.org/2000/svg" width="102.164" height="102.165" viewBox="0 0 102.164 102.165">
  <path id="Path_31095" data-name="Path 31095" d="M250,74.609a1.5,1.5,0,0,0,1.5-1.5v-2.95a1.5,1.5,0,1,0-2.993,0v2.95A1.5,1.5,0,0,0,250,74.609Z" transform="translate(-198.915 -54.964)" fill="#00b2e3"/>
  <path id="Path_31096" data-name="Path 31096" d="M352.725,186.222a1.5,1.5,0,0,0,0-2.993h-2.95a1.5,1.5,0,1,0,0,2.993Z" transform="translate(-278.783 -146.668)" fill="#00b2e3"/>
  <path id="Path_31097" data-name="Path 31097" d="M248.5,287.455a1.5,1.5,0,1,0,2.993,0V284.5a1.5,1.5,0,1,0-2.993,0Z" transform="translate(-198.915 -226.537)" fill="#00b2e3"/>
  <path id="Path_31098" data-name="Path 31098" d="M138.383,186.222a1.5,1.5,0,1,0,0-2.993h-2.95a1.5,1.5,0,0,0,0,2.993Z" transform="translate(-107.211 -146.668)" fill="#00b2e3"/>
  <path id="Path_31099" data-name="Path 31099" d="M248.5,132.09a1.5,1.5,0,0,0,1.5,1.5h7.7a1.5,1.5,0,1,0,0-2.993h-6.207V118.97a1.5,1.5,0,0,0-2.993,0V132.09Z" transform="translate(-198.915 -94.033)" fill="#3a678d"/>
  <path id="Path_31100" data-name="Path 31100" d="M99.331,424.87H87.612a2.837,2.837,0,0,0-2.833,2.833v4.363H75.673l-4.205-3.442a1.5,1.5,0,0,0-1.9,2.316l1.376,1.126H59.775V427.7a2.837,2.837,0,0,0-2.833-2.833H45.223a2.837,2.837,0,0,0-2.834,2.833v4.363H32.179l-4.206-3.442a1.5,1.5,0,0,0-1.9,2.316l1.376,1.126H17.386V427.7a2.837,2.837,0,0,0-2.833-2.833H2.833A2.837,2.837,0,0,0,0,427.7v11.719a2.837,2.837,0,0,0,2.833,2.834H14.552a2.837,2.837,0,0,0,2.833-2.834v-4.363H27.454l-1.376,1.127a1.5,1.5,0,0,0,1.9,2.316l4.206-3.443h10.21v4.363a2.837,2.837,0,0,0,2.834,2.834H56.941a2.837,2.837,0,0,0,2.833-2.834V435.06H70.947l-1.376,1.127a1.5,1.5,0,0,0,1.9,2.316l4.205-3.443h9.105v4.363a2.837,2.837,0,0,0,2.833,2.834h2.868a1.5,1.5,0,0,0,0-2.993H87.771v-11.4h11.4v11.4H96.463a1.5,1.5,0,1,0,0,2.993h2.867a2.837,2.837,0,0,0,2.833-2.834V427.7A2.837,2.837,0,0,0,99.331,424.87ZM14.393,439.263H2.993v-11.4h11.4Zm42.389,0h-11.4v-11.4h11.4Z" transform="translate(0 -340.092)" fill="#3a678d"/>
  <path id="Path_31101" data-name="Path 31101" d="M108.92,82.488a1.5,1.5,0,0,0-.536,2.048,30.152,30.152,0,1,0-2.6-5.737,1.5,1.5,0,1,0,2.841-.942,27.341,27.341,0,1,1,2.339,5.166,1.5,1.5,0,0,0-2.047-.535Z" transform="translate(-83.451 -31.204)" fill="#3a678d"/>
  <path id="Path_31102" data-name="Path 31102" d="M103.328,76.116A38.06,38.06,0,0,0,135.09,17.088a1.5,1.5,0,0,0-2.5,1.651,35.236,35.236,0,1,1-3.587-4.556,1.5,1.5,0,1,0,2.192-2.039,38.057,38.057,0,1,0-27.87,63.972Z" transform="translate(-52.246)" fill="#3a678d"/>
</svg>
