<svg xmlns="http://www.w3.org/2000/svg" width="106.291" height="107.405" viewBox="0 0 106.291 107.405">
  <g id="environment" transform="translate(-2 -2)">
    <path id="Path_31167" data-name="Path 31167" d="M9.086,46.853v.034h.046a17.577,17.577,0,0,0,21.166,0h.046v-.034a17.715,17.715,0,1,0-21.258,0Zm3.543-1.883v-3.4a5.321,5.321,0,0,1,5.315-5.315h3.543A5.321,5.321,0,0,1,26.8,41.573v3.4a14.056,14.056,0,0,1-14.172,0Zm7.086-12.255a3.543,3.543,0,1,1,3.543-3.543A3.547,3.547,0,0,1,19.715,32.715Zm0-14.172A14.15,14.15,0,0,1,30.344,42.058v-.485a8.849,8.849,0,0,0-5.118-8,7.086,7.086,0,1,0-11.022,0,8.849,8.849,0,0,0-5.118,8v.485A14.15,14.15,0,0,1,19.715,18.543Z" transform="translate(0 10.03)" fill="#3a678d"/>
    <path id="Path_31168" data-name="Path 31168" d="M59.715,50.43A17.715,17.715,0,1,0,42,32.715,17.735,17.735,0,0,0,59.715,50.43Zm0-31.887A14.172,14.172,0,1,1,45.543,32.715,14.189,14.189,0,0,1,59.715,18.543Z" transform="translate(30.86 10.03)" fill="#3a678d"/>
    <path id="Path_31169" data-name="Path 31169" d="M39.715,37.43A17.715,17.715,0,1,0,22,19.715,17.735,17.735,0,0,0,39.715,37.43Zm0-31.887A14.172,14.172,0,1,1,25.543,19.715,14.189,14.189,0,0,1,39.715,5.543Z" transform="translate(15.43)" fill="#3a678d"/>
    <path id="Path_31170" data-name="Path 31170" d="M52.2,34.944h2.657v5.315H58.4V34.944h2.657a6.189,6.189,0,0,0,1.849-12.1,7.049,7.049,0,0,0-12.556,0,6.189,6.189,0,0,0,1.849,12.1Zm-.345-8.815A1.767,1.767,0,0,0,53.3,24.947a3.509,3.509,0,0,1,6.661,0A1.767,1.767,0,0,0,61.4,26.127a2.648,2.648,0,0,1-.345,5.274H52.2a2.647,2.647,0,0,1-.345-5.272Z" transform="translate(33.946 13.116)" fill="#3a678d"/>
    <path id="Path_31171" data-name="Path 31171" d="M29.543,16.629v7.086a1.771,1.771,0,0,0,1.772,1.772H41.943a1.771,1.771,0,0,0,1.772-1.772V16.629h1.772a1.772,1.772,0,0,0,1.107-3.155L37.736,6.388a1.774,1.774,0,0,0-2.214,0l-8.858,7.086a1.772,1.772,0,0,0,1.107,3.155Zm10.629,5.315H33.086V16.629h7.086Zm-3.543-11.9,3.807,3.045H32.82Z" transform="translate(18.516 3.086)" fill="#00b2e3"/>
    <path id="Path_31172" data-name="Path 31172" d="M29,36H39.629v3.543H29Z" transform="translate(20.831 26.231)" fill="#3a678d"/>
    <path id="Path_31173" data-name="Path 31173" d="M29,40H39.629v3.543H29Z" transform="translate(20.831 29.317)" fill="#3a678d"/>
    <path id="Path_31174" data-name="Path 31174" d="M41,41h3.543v3.543H41Z" transform="translate(30.089 30.089)" fill="#3a678d"/>
    <path id="Path_31175" data-name="Path 31175" d="M41,45h3.543v3.543H41Z" transform="translate(30.089 33.175)" fill="#3a678d"/>
    <path id="Path_31176" data-name="Path 31176" d="M21,41h3.543v3.543H21Z" transform="translate(14.659 30.089)" fill="#3a678d"/>
    <path id="Path_31177" data-name="Path 31177" d="M21,45h3.543v3.543H21Z" transform="translate(14.659 33.175)" fill="#3a678d"/>
    <path id="Path_31178" data-name="Path 31178" d="M62.8,79.664a1.769,1.769,0,0,0-.427,1.812l1.772,5.315a1.769,1.769,0,0,0,2.028,1.176l8.261-1.653,6.542,3.272a1.765,1.765,0,0,0,.792.188,1.8,1.8,0,0,0,.195-.011l15.812-1.757c.856.934,1.694,1.888,2.5,2.882l2.755-2.229A63.767,63.767,0,0,0,80,70.766V47.258a1.771,1.771,0,0,0-1.772-1.772h-12.4V38.4a1.771,1.771,0,0,0-1.771-1.772H62.283V34.858a5.321,5.321,0,0,0-5.315-5.315H55.2V26H51.654v3.543H49.883a5.321,5.321,0,0,0-5.315,5.315v1.772H42.8A1.771,1.771,0,0,0,41.025,38.4v7.086h-12.4a1.771,1.771,0,0,0-1.772,1.772V70.77A63.783,63.783,0,0,0,4.229,88.164l2.733,2.255a61.256,61.256,0,0,1,4.4-4.776l3.61,3.61a1.768,1.768,0,0,0,2.5,0l2.769-2.769,4.275,1.426a1.791,1.791,0,0,0,.562.09H30.4a1.743,1.743,0,0,0,.429-.053l7.086-1.771a1.769,1.769,0,0,0,1.251-2.28L37.39,78.584a1.768,1.768,0,0,0-1.679-1.21H29.358L26.74,74.755A60.195,60.195,0,0,1,67.6,70.208v4.661ZM76.455,49.03V69.274A63.365,63.365,0,0,0,65.826,66.2V49.03ZM48.111,34.858a1.773,1.773,0,0,1,1.772-1.772h7.086a1.773,1.773,0,0,1,1.772,1.772v1.772H48.111Zm14.172,5.315V65.609q-1.762-.244-3.543-.392V59.659a1.771,1.771,0,0,0-1.772-1.772H49.883a1.771,1.771,0,0,0-1.772,1.772v5.559q-1.783.149-3.543.393V40.172ZM30.4,49.03H41.025V66.2A63.418,63.418,0,0,0,30.4,69.278ZM27.372,80.4a1.764,1.764,0,0,0,1.252.519h5.809l.764,2.289L30.178,84.46h-4.81l-5.042-1.681a1.769,1.769,0,0,0-1.812.429L16.224,85.5l-2.26-2.26A60.205,60.205,0,0,1,23.473,76.5ZM51.654,65.023V61.43H55.2v3.593c-.59-.016-1.178-.05-1.772-.05S52.244,65.005,51.654,65.023ZM94.585,84.8,82.094,86.183l-6.617-3.309a1.752,1.752,0,0,0-1.141-.152l-7.323,1.465-.93-2.792,4.539-4.54a1.767,1.767,0,0,0,.519-1.252V71.181A59.88,59.88,0,0,1,94.585,84.8Z" transform="translate(1.72 18.516)" fill="#3a678d"/>
  </g>
</svg>
