<svg xmlns="http://www.w3.org/2000/svg" width="96.086" height="96.086" viewBox="0 0 96.086 96.086">
  <g id="application" transform="translate(-1 -1)">
    <path id="Path_31103" data-name="Path 31103" d="M15,53H30.5v3.1H15Z" transform="translate(7.697 28.588)" fill="#3a678d"/>
    <circle id="Ellipse_362" data-name="Ellipse 362" cx="1.5" cy="1.5" r="1.5" transform="translate(7 7)" fill="#3a678d"/>
    <path id="Path_31104" data-name="Path 31104" d="M13,5H31.6V8.1H13Z" transform="translate(6.597 2.199)" fill="#3a678d"/>
    <path id="Path_31105" data-name="Path 31105" d="M39.1,24.3c-.259,0-.521.014-.79.04a13.936,13.936,0,0,0-26.414.3A9.284,9.284,0,0,0,14.3,42.9H39.1a9.3,9.3,0,0,0,0-18.6Zm0,15.5H14.3a6.184,6.184,0,0,1-.939-12.3l1.021-.157.248-1a10.835,10.835,0,0,1,21.069.124l.36,1.533,1.527-.384A6.066,6.066,0,0,1,39.1,27.4a6.2,6.2,0,1,1,0,12.4Z" transform="translate(2.199 7.697)" fill="#3a678d"/>
    <path id="Path_31106" data-name="Path 31106" d="M15.929,47.649A4.649,4.649,0,1,0,20.578,43,4.655,4.655,0,0,0,15.929,47.649Zm6.2,0a1.55,1.55,0,1,1-1.55-1.55A1.55,1.55,0,0,1,22.128,47.649Z" transform="translate(8.208 23.09)" fill="#00b2e3"/>
    <path id="Path_31107" data-name="Path 31107" d="M29.321,42.179a10.845,10.845,0,0,0-15.341,0l2.191,2.191a7.747,7.747,0,0,1,10.958,0Z" transform="translate(7.136 20.891)" fill="#00b2e3"/>
    <path id="Path_31108" data-name="Path 31108" d="M11.15,39.99l2.191,2.191a13.963,13.963,0,0,1,19.727,0L35.26,39.99a17.068,17.068,0,0,0-24.11,0Z" transform="translate(5.58 18.695)" fill="#00b2e3"/>
    <path id="Path_31109" data-name="Path 31109" d="M88.072,58.342a4.649,4.649,0,1,0,0-3.1H56.792v-3.1h14.59l9.3-9.3h7.392a4.649,4.649,0,1,0,0-3.1H79.4l-9.3,9.3H56.792V38.1A20.137,20.137,0,1,0,67.64,1,20.012,20.012,0,0,0,55.749,4.921,7.77,7.77,0,0,0,49.043,1H8.749A7.758,7.758,0,0,0,1,8.749V89.337a7.758,7.758,0,0,0,7.749,7.749H49.043a7.758,7.758,0,0,0,7.749-7.749v-24.8H70.1l9.3,9.3h8.676a4.649,4.649,0,1,0,0-3.1H80.68l-9.3-9.3H56.792v-3.1Zm4.364-3.1a1.55,1.55,0,1,1-1.55,1.55A1.55,1.55,0,0,1,92.437,55.242Zm0-15.5a1.55,1.55,0,1,1-1.55,1.55A1.55,1.55,0,0,1,92.437,39.744Zm0,31a1.55,1.55,0,1,1-1.55,1.55A1.55,1.55,0,0,1,92.437,70.74ZM61.884,5.121A21.418,21.418,0,0,0,59.729,10.3H54.5A17.1,17.1,0,0,1,61.884,5.121ZM72.3,10.3H62.975c1.224-3.833,3-6.2,4.665-6.2s3.44,2.367,4.663,6.2Zm12.305,9.3H76.9a42.5,42.5,0,0,0-.634-6.2H82.8A16.863,16.863,0,0,1,84.609,19.6ZM67.64,38.195c-1.666,0-3.44-2.367-4.663-6.2h9.328C71.081,35.828,69.306,38.195,67.64,38.195Zm-5.454-9.3a38.43,38.43,0,0,1-.713-6.2H73.807a38.606,38.606,0,0,1-.713,6.2ZM76.9,22.7h7.7a16.892,16.892,0,0,1-1.8,6.2H76.271A42.291,42.291,0,0,0,76.9,22.7Zm-3.1-3.1H61.474a38.606,38.606,0,0,1,.713-6.2H73.094A38.43,38.43,0,0,1,73.807,19.6ZM52.474,13.4h6.534a42.5,42.5,0,0,0-.634,6.2h-7.7A16.922,16.922,0,0,1,52.474,13.4Zm5.9,9.3a42.5,42.5,0,0,0,.634,6.2H52.476a16.922,16.922,0,0,1-1.8-6.2ZM59.729,32a21.418,21.418,0,0,0,2.156,5.178A17.092,17.092,0,0,1,54.5,32ZM73.4,37.173A21.48,21.48,0,0,0,75.552,32h5.227A17.1,17.1,0,0,1,73.4,37.173ZM80.781,10.3H75.553A21.418,21.418,0,0,0,73.4,5.121,17.123,17.123,0,0,1,80.781,10.3ZM8.749,4.1H49.043a4.675,4.675,0,0,1,4.293,2.879A20.218,20.218,0,0,0,49.048,13.4H4.1V8.749A4.655,4.655,0,0,1,8.749,4.1ZM49.043,93.986H8.749A4.655,4.655,0,0,1,4.1,89.337V89.3a7.669,7.669,0,0,0,4.649,1.59H49.043a7.669,7.669,0,0,0,4.649-1.59v.04A4.655,4.655,0,0,1,49.043,93.986Zm0-6.2H8.749A4.655,4.655,0,0,1,4.1,83.138V16.5H48.056a19.941,19.941,0,0,0,5.637,19.154V83.138A4.655,4.655,0,0,1,49.043,87.787Z" fill="#3a678d"/>
  </g>
</svg>
