<svg xmlns="http://www.w3.org/2000/svg" width="112" height="112" viewBox="0 0 112 112">
  <g id="Ellipse_352" data-name="Ellipse 352" fill="none" stroke="#fff" stroke-width="0.8" opacity="0.43">
    <circle cx="56" cy="56" r="56" stroke="none"/>
    <circle cx="56" cy="56" r="55.6" fill="none"/>
  </g>
  <g id="applications" transform="translate(38 34.319)">
    <path id="Path_30994" data-name="Path 30994" d="M113.644,147.346V112H112v35.346a4.109,4.109,0,0,0,4.11,4.11h18.906v-1.644H116.11A2.473,2.473,0,0,1,113.644,147.346Z" transform="translate(-112 -102.136)" fill="#fff"/>
    <path id="Path_30995" data-name="Path 30995" d="M216,448h8.22v1.644H216Z" transform="translate(-205.314 -403.611)" fill="#fff"/>
    <path id="Path_31000" data-name="Path 31000" d="M146.3,46.466l-4.706-5.292V20.11a4.109,4.109,0,0,0-4.11-4.11H116.11A4.109,4.109,0,0,0,112,20.11v4.11h1.644V20.11a2.473,2.473,0,0,1,2.466-2.466h21.372a2.473,2.473,0,0,1,2.466,2.466V49.363l-2.682-2.682a3.7,3.7,0,0,0-2.641-1.089,3.735,3.735,0,0,0-2.641,6.371l.216.216h-1.295V50.535h-1.644V53a.824.824,0,0,0,.822.822h1.963L131,55.919l1.469.74,1.408-2.815,2.548,2.548a7.429,7.429,0,0,0-.3,7.234l.545,1.079v.627h1.644v-.822a.923.923,0,0,0-.082-.37l-.627-1.254a5.786,5.786,0,0,1,.555-6.1.829.829,0,0,0-.072-1.079l-4.9-4.9a2.085,2.085,0,0,1,2.949-2.949l4.079,4.079,2.466,2.466,1.161-1.161-2.25-2.23V43.64l3.483,3.915a5.767,5.767,0,0,1,1.449,3.822V65.321h1.644V51.377A7.409,7.409,0,0,0,146.3,46.466Z" transform="translate(-112 -16)" fill="#fff"/>
    <path id="Path_31001" data-name="Path 31001" d="M144,64h1.644v1.644H144Z" transform="translate(-140.712 -59.068)" fill="#fff"/>
    <path id="Path_31002" data-name="Path 31002" d="M176,64h1.644v1.644H176Z" transform="translate(-169.424 -59.068)" fill="#fff"/>
    <path id="Path_31003" data-name="Path 31003" d="M208,64h1.644v1.644H208Z" transform="translate(-198.136 -59.068)" fill="#fff"/>
  </g>
  <g id="Group_17267" data-name="Group 17267" transform="translate(-132.613 -598)">
    <path id="Path_31014" data-name="Path 31014" d="M1167.606,513.134a5.154,5.154,0,0,0-5.153,5.153h0a5.153,5.153,0,1,0,5.153-5.153Zm.042,9.29a4.135,4.135,0,1,1,4.135-4.135A4.135,4.135,0,0,1,1167.648,522.424Z" transform="translate(-981.84 137.018)" fill="#93d500"/>
    <path id="Path_31015" data-name="Path 31015" d="M1189.009,514.154a4.135,4.135,0,0,1,4.135,4.133h.976a5.153,5.153,0,0,0-5.153-5.153v1.022Z" transform="translate(-1003.201 137.018)" fill="#e0e622"/>
    <path id="Path_31016" data-name="Path 31016" d="M1194.119,539.647h-.976v0a4.135,4.135,0,0,1-4.135,4.135l-.042,0V544.8a5.137,5.137,0,0,0,3.644-1.509h0A5.137,5.137,0,0,0,1194.119,539.647Z" transform="translate(-1003.201 115.657)" fill="#3bd4ae"/>
    <path id="Path_31017" data-name="Path 31017" d="M1163.513,539.649v0h-1.061a5.153,5.153,0,0,0,5.153,5.153v-1.018A4.133,4.133,0,0,1,1163.513,539.649Z" transform="translate(-981.84 115.657)" fill="#00b2e3"/>
  </g>
</svg>
