<svg xmlns="http://www.w3.org/2000/svg" width="113" height="112" viewBox="0 0 113 112">
  <g id="cpu" transform="translate(20.489 38)">
    <path id="Path_30930" data-name="Path 30930" d="M180.433,140.175H143.694a3.524,3.524,0,0,0-3.52,3.52v14.231a3.524,3.524,0,0,0,3.52,3.52h36.739a3.524,3.524,0,0,0,3.52-3.52V143.695A3.523,3.523,0,0,0,180.433,140.175Zm.491,17.751a.492.492,0,0,1-.491.491H143.694a.492.492,0,0,1-.491-.491V143.695a.492.492,0,0,1,.491-.491h36.739a.492.492,0,0,1,.491.491Z" transform="translate(-126.907 -133.262)" fill="#fff" stroke="#000" stroke-width="1.5"/>
    <path id="Path_30931" data-name="Path 30931" d="M64.724,19.443V16.325L64.673,13.3a5.87,5.87,0,0,0-5.047-5.047A20.723,20.723,0,0,0,56.6,8.2h-42.1s-1.077-.01-3.029.051A5.87,5.87,0,0,0,6.416,13.3h-4.9a1.514,1.514,0,0,0,0,3.029H6.365v3.119H1.514a1.514,1.514,0,0,0,0,3.029H6.365V29l.051,9.176a5.87,5.87,0,0,0,5.047,5.047l3.029.051H56.6l3.029-.051a5.87,5.87,0,0,0,5.047-5.047h4.9a1.514,1.514,0,0,0,0-3.029H64.724V32.027h4.851a1.514,1.514,0,0,0,0-3.029H64.724s0-4.137,0-6.526S64.724,19.443,64.724,19.443ZM61.7,37.412a2.835,2.835,0,0,1-2.832,2.832H12.225a2.835,2.835,0,0,1-2.832-2.832V14.058a2.835,2.835,0,0,1,2.832-2.832H58.864A2.835,2.835,0,0,1,61.7,14.058Z" transform="translate(0 -8.186)" fill="#fff" stroke="#000" stroke-width="1.5"/>
  </g>
  <g id="Path_31036" data-name="Path 31036" fill="none" opacity="0.43">
    <path d="M56.5,0C87.7,0,113,25.072,113,56a56.332,56.332,0,0,1-1.275,11.884C106.375,92.979,83.679,112,56.5,112,25.3,112,0,86.928,0,56S25.3,0,56.5,0Z" stroke="none"/>
    <path d="M 56.5 0.8000030517578125 C 48.97932434082031 0.8000030517578125 41.68407440185547 2.259689331054688 34.81694030761719 5.138557434082031 C 31.51649475097656 6.522171020507812 28.33318328857422 8.234725952148438 25.35543060302734 10.22866058349609 C 22.40587615966797 12.20368957519531 19.63227844238281 14.47187805175781 17.11163330078125 16.97021484375 C 14.59111022949219 19.46842956542969 12.30283355712891 22.21729278564453 10.31035614013672 25.14044952392578 C 8.299003601074219 28.09130859375 6.571510314941406 31.24578094482422 5.175849914550781 34.51627349853516 C 2.272247314453125 41.32041168212891 0.8000030517578125 48.548583984375 0.8000030517578125 56 C 0.8000030517578125 63.451416015625 2.272247314453125 70.67958068847656 5.175849914550781 77.48371887207031 C 6.571510314941406 80.75421142578125 8.299003601074219 83.90869140625 10.31035614013672 86.85955810546875 C 12.30283355712891 89.78270721435547 14.59111022949219 92.53157043457031 17.11163330078125 95.02978515625 C 19.63227844238281 97.52812194824219 22.40587615966797 99.79631042480469 25.35543060302734 101.7713394165039 C 28.33318328857422 103.7652740478516 31.51649475097656 105.4778289794922 34.81694030761719 106.8614501953125 C 41.68407440185547 109.7403106689453 48.97932434082031 111.1999969482422 56.5 111.1999969482422 C 63.05070877075195 111.1999969482422 69.46723175048828 110.0841064453125 75.57130432128906 107.8833236694336 C 81.46302795410156 105.7590942382812 86.92140197753906 102.6798629760742 91.7947998046875 98.73115539550781 C 96.62306213378906 94.81900024414062 100.7234497070312 90.17950439453125 103.9820327758789 84.94155120849609 C 107.3020172119141 79.60490417480469 109.6439514160156 73.80975341796875 110.9428482055664 67.71690368652344 C 111.7887878417969 63.751953125 112.1999969482422 59.9193229675293 112.1999969482422 56 C 112.1999969482422 48.548583984375 110.7277526855469 41.32041168212891 107.8241577148438 34.51627349853516 C 106.4284896850586 31.24578094482422 104.7010040283203 28.09130859375 102.6896438598633 25.14044952392578 C 100.6971664428711 22.21729278564453 98.40888977050781 19.46842956542969 95.88836669921875 16.97021484375 C 93.36772155761719 14.47187805175781 90.59412384033203 12.20368957519531 87.64456939697266 10.22866058349609 C 84.66681671142578 8.234725952148438 81.48350524902344 6.522171020507812 78.18305969238281 5.138557434082031 C 71.31591796875 2.259689331054688 64.02067565917969 0.8000030517578125 56.5 0.8000030517578125 M 56.5 0 C 87.70409393310547 0 113 25.07205963134766 113 56 C 113 59.98970794677734 112.5790481567383 63.8819694519043 111.725227355957 67.88383483886719 C 106.3753356933594 92.97930908203125 83.67875671386719 112 56.5 112 C 25.29590606689453 112 0 86.92794036865234 0 56 C 0 25.07205963134766 25.29590606689453 0 56.5 0 Z" stroke="none" fill="#fff"/>
  </g>
</svg>