<svg xmlns="http://www.w3.org/2000/svg" width="112" height="112" viewBox="0 0 112 112">
  <g id="cpu" transform="translate(28 24.813)">
    <path id="Path_30930" data-name="Path 30930" d="M163.044,140.175H144.709a4.54,4.54,0,0,0-4.535,4.535v18.335a4.54,4.54,0,0,0,4.535,4.535h18.335a4.54,4.54,0,0,0,4.535-4.535V144.71A4.54,4.54,0,0,0,163.044,140.175Zm.632,22.87a.633.633,0,0,1-.633.633H144.709a.633.633,0,0,1-.633-.633V144.71a.633.633,0,0,1,.633-.633h18.335a.633.633,0,0,1,.633.633Z" transform="translate(-123.081 -123.081)" fill="#fff" stroke="#000" stroke-width="2.5"/>
    <path id="Path_30931" data-name="Path 30931" d="M53.391,22.69V18.672l-.066-3.9a7.563,7.563,0,0,0-6.5-6.5c-4.465-.126-3.9-.066-3.9-.066H18.672s-1.387-.013-3.9.066a7.563,7.563,0,0,0-6.5,6.5H1.951a1.951,1.951,0,0,0,0,3.9H8.2V22.69H1.951a1.951,1.951,0,0,0,0,3.9H8.2V35l.066,11.822a7.563,7.563,0,0,0,6.5,6.5l3.9.066H42.92l3.9-.066a7.564,7.564,0,0,0,6.5-6.5h6.316a1.951,1.951,0,1,0,0-3.9h-6.25V38.9h6.25a1.951,1.951,0,0,0,0-3.9h-6.25s0-5.331,0-8.408S53.391,22.69,53.391,22.69Zm-3.9,23.151a3.652,3.652,0,0,1-3.648,3.648H15.751A3.652,3.652,0,0,1,12.1,45.841V15.751A3.652,3.652,0,0,1,15.751,12.1H45.841a3.652,3.652,0,0,1,3.648,3.648Z" fill="#fff" stroke="#000" stroke-width="2.5"/>
  </g>
  <g id="Ellipse_351" data-name="Ellipse 351" fill="none" stroke="#fff" stroke-width="0.8" opacity="0.43">
    <circle cx="56" cy="56" r="56" stroke="none"/>
    <circle cx="56" cy="56" r="55.6" fill="none"/>
  </g>
</svg>
