<svg xmlns="http://www.w3.org/2000/svg" width="112" height="112" viewBox="0 0 112 112">
  <g id="gateways" transform="translate(-743 -248)">
    <g id="Ellipse_351" data-name="Ellipse 351" transform="translate(743 248)" fill="none" stroke="#fff" stroke-width="0.8" opacity="0.43">
      <circle cx="56" cy="56" r="56" stroke="none"/>
      <circle cx="56" cy="56" r="55.6" fill="none"/>
    </g>
    <g id="router-device" transform="translate(765.7 263.229)">
      <path id="Path_31044" data-name="Path 31044" d="M9.388,46.006H59.057a2.029,2.029,0,0,1,2.2,2.065v7.973a2.114,2.114,0,0,1-2.2,2.062H9.392a2.112,2.112,0,0,1-2.2-2.062c.015-2.709.018-5.334.018-8.154a2.117,2.117,0,0,1,2.178-1.883Zm12.883-9.695a.734.734,0,0,0,0,1.467h23.9a.734.734,0,0,0,0-1.467ZM18.429,15.826a.748.748,0,0,0-.737.763v19.68h-5.4a3.273,3.273,0,0,0-2.453,1.108,6.7,6.7,0,0,0-1.21,2.207L6.186,46.305a2.632,2.632,0,0,0-.5,1.282l-.012,8.457a3.655,3.655,0,0,0,3.709,3.575H59.057a3.652,3.652,0,0,0,3.709-3.575V48.071a5.265,5.265,0,0,0-.507-1.77l-2.446-6.717a6.688,6.688,0,0,0-1.207-2.207,3.635,3.635,0,0,0-2.916-1.108H50.753V16.589a.753.753,0,1,0-1.5,0V38.663a.756.756,0,1,0,1.509,0v-.885h4.934a2.117,2.117,0,0,1,1.789.605A5.9,5.9,0,0,1,58.4,40.1q.823,2.275,1.652,4.545a3.763,3.763,0,0,0-.995-.152H9.388a3.758,3.758,0,0,0-.994.152L10.046,40.1a5.488,5.488,0,0,1,.918-1.716,1.6,1.6,0,0,1,1.327-.605h5.4v.885a.756.756,0,1,0,1.509,0V16.589a.755.755,0,0,0-.768-.763Z" transform="translate(0 0)" fill="#fff"/>
      <path id="Path_31045" data-name="Path 31045" d="M9.388,46.006H59.057a2.029,2.029,0,0,1,2.2,2.065v7.973a2.114,2.114,0,0,1-2.2,2.062H9.392a2.112,2.112,0,0,1-2.2-2.062c.015-2.709.018-5.334.018-8.154a2.117,2.117,0,0,1,2.178-1.883Zm12.883-9.695a.734.734,0,0,0,0,1.467h23.9a.734.734,0,0,0,0-1.467ZM18.429,15.826a.748.748,0,0,0-.737.763v19.68h-5.4a3.273,3.273,0,0,0-2.453,1.108,6.7,6.7,0,0,0-1.21,2.207L6.186,46.305a2.632,2.632,0,0,0-.5,1.282l-.012,8.457a3.655,3.655,0,0,0,3.709,3.575H59.057a3.652,3.652,0,0,0,3.709-3.575V48.071a5.265,5.265,0,0,0-.507-1.77l-2.446-6.717a6.688,6.688,0,0,0-1.207-2.207,3.687,3.687,0,0,0-2.916-1.108H50.753V16.6a.753.753,0,1,0-1.5-.007V38.663a.756.756,0,1,0,1.509,0v-.885h4.934a2.356,2.356,0,0,1,2.288,1.354,5.982,5.982,0,0,1,.419.968q.823,2.275,1.652,4.545a3.62,3.62,0,0,0-.995-.152H9.388a3.758,3.758,0,0,0-.994.152L10.046,40.1a5.488,5.488,0,0,1,.918-1.716,1.6,1.6,0,0,1,1.327-.605h5.4v.885a.756.756,0,1,0,1.509,0V16.589a.755.755,0,0,0-.768-.763Z" transform="translate(0 0)" fill="#fff"/>
      <path id="Path_31047" data-name="Path 31047" d="M35.237,30.076a.754.754,0,0,1-.526-1.3,10.481,10.481,0,0,1,14.807,0,.756.756,0,1,1-1.066,1.07,8.953,8.953,0,0,0-12.675,0,.762.762,0,0,1-.54.227Z" transform="translate(-7.892 -2.71)" fill="#fff"/>
      <path id="Path_31048" data-name="Path 31048" d="M29.472,25.2a.753.753,0,0,1-.526-1.3,16.389,16.389,0,0,1,23.182,0,.754.754,0,1,1-1.066,1.066,14.893,14.893,0,0,0-21.05,0,.756.756,0,0,1-.541.23Z" transform="translate(-6.312 -0.898)" fill="#fff"/>
      <path id="Path_31049" data-name="Path 31049" d="M40.158,35.143a.753.753,0,0,1-.529-1.3,5.431,5.431,0,0,1,7.668,0,.755.755,0,1,1-1.067,1.067,3.91,3.91,0,0,0-5.532,0,.744.744,0,0,1-.539.23Z" transform="translate(-9.239 -4.504)" fill="#fff"/>
    </g>
  </g>
</svg>
