<svg xmlns="http://www.w3.org/2000/svg" width="264.5" height="68.779" viewBox="0 0 264.5 68.779">
  <g id="Group_14179" data-name="Group 14179" transform="translate(-310.558 -15.542)">
    <path id="Path_26898" data-name="Path 26898" d="M1004.335,583.617c-2.223,0-4.363,1.775-4.363,4.91a5.543,5.543,0,0,0,8.261,5.059.584.584,0,0,1,.116.348c0,.382-1.311,1.029-2.986,1.029a6.015,6.015,0,0,1-6.121-6.387c0-3.633,2.5-5.624,5.092-5.624a4.7,4.7,0,0,1,4.346,2.455.263.263,0,0,1-.1.4,1.112,1.112,0,0,1-.5.166A3.944,3.944,0,0,0,1004.335,583.617Z" transform="translate(-688.243 -510.643)" fill="#fff"/>
    <path id="Path_26899" data-name="Path 26899" d="M1039.021,582.954c2.853,0,5.292,2.024,5.292,6s-2.438,6.005-5.292,6.005-5.292-2.024-5.292-6.005S1036.167,582.954,1039.021,582.954Zm.133,11.347c2.289,0,4.4-1.676,4.4-5.209,0-3.766-2.123-5.474-4.661-5.474-2.306,0-4.4,1.676-4.4,5.209C1034.492,592.592,1036.632,594.3,1039.153,594.3Z" transform="translate(-703.867 -510.643)" fill="#fff"/>
    <path id="Path_26900" data-name="Path 26900" d="M1072.736,584.325v10.55h-.4c-.249,0-.331-.067-.331-.282v-11.13a1.213,1.213,0,0,1,.646-.266.318.318,0,0,1,.3.182l6.652,10.434v-10.55h.4c.249,0,.332.067.332.282v11.13a1.219,1.219,0,0,1-.647.266c-.133,0-.2-.05-.3-.183Z" transform="translate(-721.21 -510.753)" fill="#fff"/>
    <path id="Path_26901" data-name="Path 26901" d="M1113.757,583.318c.215,0,.282.083.282.331v.333h-3.848V594.93h-.4c-.249,0-.332-.067-.332-.282V583.982h-3.649c-.133,0-.2-.083-.2-.216a1.7,1.7,0,0,1,.066-.448Z" transform="translate(-736.436 -510.808)" fill="#fff"/>
    <path id="Path_26902" data-name="Path 26902" d="M1139.731,594.93c-.249,0-.332-.067-.332-.282v-11.33h3.152c2.638,0,4.5,1.443,4.5,4.015a3.744,3.744,0,0,1-2.986,3.849,13.668,13.668,0,0,0,2.14,2.7c.547.514.779.581,1.145.581h.166a.755.755,0,0,1,.05.265c0,.216-.232.4-.547.4-.415,0-.813-.216-1.41-.813a14.992,14.992,0,0,1-2.223-3.018,5.711,5.711,0,0,1-.747.05,7.7,7.7,0,0,1-2.5-.4v3.981Zm.4-4.578a8.322,8.322,0,0,0,2.5.331c2.156,0,3.683-1.195,3.683-3.35,0-2.256-1.609-3.351-3.749-3.351h-2.439Z" transform="translate(-751.743 -510.808)" fill="#fff"/>
    <path id="Path_26903" data-name="Path 26903" d="M1176.6,582.954c2.853,0,5.292,2.024,5.292,6s-2.438,6.005-5.292,6.005-5.292-2.024-5.292-6.005S1173.746,582.954,1176.6,582.954Zm.133,11.347c2.289,0,4.4-1.676,4.4-5.209,0-3.766-2.123-5.474-4.662-5.474-2.306,0-4.4,1.676-4.4,5.209C1172.071,592.592,1174.21,594.3,1176.732,594.3Z" transform="translate(-766.2 -510.643)" fill="#fff"/>
    <path id="Path_26904" data-name="Path 26904" d="M1216.01,594.211c.215,0,.282.083.282.332v.332h-4.761c-1.31,0-2.007-.6-2.007-2.422V583.28a1.63,1.63,0,0,1,.5-.083c.166,0,.232.066.232.2v8.941c0,1.46.365,1.874,1.343,1.874Z" transform="translate(-783.515 -510.753)" fill="#fff"/>
    <path id="Path_26905" data-name="Path 26905" d="M1238.954,593.885a.586.586,0,0,1,.117-.348,6.579,6.579,0,0,0,3.168.763c2.09,0,3.052-1,3.052-2.256,0-1.361-1.045-2.173-3.284-2.787-2.306-.63-3.517-1.658-3.517-3.284,0-1.792,1.493-3.019,3.567-3.019a4.221,4.221,0,0,1,3.8,1.99.264.264,0,0,1-.1.4,1.187,1.187,0,0,1-.5.166,3.36,3.36,0,0,0-3.2-1.891c-1.676,0-2.836.9-2.836,2.289,0,1.294.862,2.056,2.985,2.7,2.506.763,3.816,1.609,3.816,3.384,0,1.808-1.443,2.969-3.765,2.969C1240.48,594.964,1238.954,594.35,1238.954,593.885Z" transform="translate(-796.639 -510.643)" fill="#fff"/>
    <path id="Path_26906" data-name="Path 26906" d="M1010.73,525.735v1.714a10.36,10.36,0,0,1-7.407-2.907,9.8,9.8,0,0,1-3.061-7.438V480.988h1.959V517.1a8.417,8.417,0,0,0,8.509,8.631Z" transform="translate(-688.705 -464.445)" fill="#fff" stroke="#fff" stroke-miterlimit="10" stroke-width="2"/>
    <path id="Path_26907" data-name="Path 26907" d="M1050.006,514.565h1.959v27.546h-1.959v-5.57q-3.122,6.244-10.651,6.244a11.617,11.617,0,0,1-8.631-3.55,11.851,11.851,0,0,1-3.489-8.631V514.565h1.959V530.6a10.311,10.311,0,0,0,2.968,7.346,9.561,9.561,0,0,0,7.193,3.122,10.358,10.358,0,0,0,7.438-3.122,9.915,9.915,0,0,0,3.213-7.346Z" transform="translate(-700.926 -479.658)" fill="#fff" stroke="#fff" stroke-miterlimit="10" stroke-width="2"/>
    <path id="Path_26908" data-name="Path 26908" d="M1107.38,515.108a10.973,10.973,0,0,1,6.336-1.775,9.185,9.185,0,0,1,6.55,2.694,9.61,9.61,0,0,1,2.816,7.285v18.241h-1.959V523.311a8.071,8.071,0,0,0-2.326-5.907,7.589,7.589,0,0,0-5.6-2.357,8.148,8.148,0,0,0-5.815,2.449,7.676,7.676,0,0,0-2.54,5.693v18.364h-1.959V523.189a7.978,7.978,0,0,0-2.326-5.724,7.527,7.527,0,0,0-5.631-2.418,8.369,8.369,0,0,0-8.2,8.142v18.364h-1.959V514.007h1.959v3.856a11.1,11.1,0,0,1,8.662-4.53,8.16,8.16,0,0,1,4.988,1.806,10.412,10.412,0,0,1,3.489,4.683A8.721,8.721,0,0,1,1107.38,515.108Z" transform="translate(-726.989 -479.1)" fill="#fff" stroke="#fff" stroke-miterlimit="10" stroke-width="2"/>
    <path id="Path_26909" data-name="Path 26909" d="M1227.994,514.936a4.221,4.221,0,0,0-2.816,1.041,3.243,3.243,0,0,0-1.224,2.571,3.806,3.806,0,0,0,1.377,2.816,16.675,16.675,0,0,0,3.306,2.357q1.928,1.071,3.887,2.3a11.89,11.89,0,0,1,3.336,3.122,7.214,7.214,0,0,1,1.377,4.346,8.105,8.105,0,0,1-2.724,6.152,9.3,9.3,0,0,1-6.58,2.54,9.95,9.95,0,0,1-4.561-1.071,7.009,7.009,0,0,1-3.091-2.847V535.32q2.326,5.142,7.468,5.142a7.7,7.7,0,0,0,5.356-1.959,5.8,5.8,0,0,0,2.173-4.376,6.144,6.144,0,0,0-1.377-4.071,12.814,12.814,0,0,0-3.336-2.816q-1.96-1.162-3.886-2.3a12.772,12.772,0,0,1-3.306-2.754,5.682,5.682,0,0,1-1.377-3.8,4.666,4.666,0,0,1,1.744-3.673,6.657,6.657,0,0,1,4.5-1.5,6.165,6.165,0,0,1,4.714,2.142v2.509A5.8,5.8,0,0,0,1227.994,514.936Z" transform="translate(-788.389 -479.05)" fill="#fff" stroke="#fff" stroke-miterlimit="10" stroke-width="2"/>
    <g id="Group_14165" data-name="Group 14165" transform="translate(467.754 55.864)" opacity="0.8">
      <path id="Path_26914" data-name="Path 26914" d="M1291.17,558.469h-4l-.877,2.233h-.266c-.157,0-.211-.067-.157-.189l3-7.542a1.016,1.016,0,0,1,.422-.089c.111,0,.155.044.2.144l3.054,7.676h-.322a.225.225,0,0,1-.245-.167Zm-3.832-.445h3.655l-1.822-4.654Z" transform="translate(-1285.85 -552.882)" fill="#fff"/>
      <path id="Path_26915" data-name="Path 26915" d="M1408.384,552.963h2.577c1.633,0,2.5.944,2.5,2.021a1.745,1.745,0,0,1-1.289,1.777,1.838,1.838,0,0,1,1.545,1.878c0,1.155-.855,2.1-2.633,2.1h-1.355c-.878,0-1.344-.4-1.344-1.622Zm.489.444v3.155h2.066c1.378,0,2.033-.589,2.033-1.577,0-.922-.778-1.577-2.033-1.577Zm0,5.632c0,.977.244,1.255.9,1.255h1.333c1.388,0,2.122-.655,2.122-1.644,0-1.088-.734-1.644-2.2-1.644h-2.155Z" transform="translate(-1341.366 -552.919)" fill="#fff"/>
      <path id="Path_26916" data-name="Path 26916" d="M1423.8,560.739c-.166,0-.222-.044-.222-.189v-7.586h2.11c1.767,0,3.01.966,3.01,2.688a2.506,2.506,0,0,1-2,2.577,9.194,9.194,0,0,0,1.433,1.81c.366.344.522.388.766.388h.112a.513.513,0,0,1,.033.178c0,.144-.155.266-.366.266-.278,0-.544-.144-.944-.544a10.059,10.059,0,0,1-1.489-2.022,3.75,3.75,0,0,1-.5.034,5.165,5.165,0,0,1-1.677-.266v2.666Zm.267-3.066a5.582,5.582,0,0,0,1.677.222,2.256,2.256,0,1,0-.044-4.488h-1.633Z" transform="translate(-1348.249 -552.919)" fill="#fff"/>
      <path id="Path_26917" data-name="Path 26917" d="M1442.625,558.469h-4l-.877,2.233h-.266c-.155,0-.211-.067-.155-.189l3-7.542a1.018,1.018,0,0,1,.422-.089c.111,0,.156.044.2.144L1444,560.7h-.322a.224.224,0,0,1-.244-.167Zm-3.832-.445h3.655l-1.822-4.654Z" transform="translate(-1354.47 -552.882)" fill="#fff"/>
      <path id="Path_26918" data-name="Path 26918" d="M1454.768,553.637V560.7h-.267c-.166,0-.222-.044-.222-.189V553.06a.818.818,0,0,1,.433-.178.211.211,0,0,1,.2.122l4.455,6.987v-7.065h.266c.167,0,.222.044.222.189v7.454a.816.816,0,0,1-.433.178c-.089,0-.134-.033-.2-.122Z" transform="translate(-1362.16 -552.882)" fill="#fff"/>
      <path id="Path_26919" data-name="Path 26919" d="M1472.194,560.739c-.877,0-1.344-.4-1.344-1.622v-6.154h2.333a3.889,3.889,0,0,1,0,7.776Zm1.022-.445a3.448,3.448,0,0,0,0-6.887h-1.877v5.632c0,.977.244,1.255.9,1.255Z" transform="translate(-1369.668 -552.919)" fill="#fff"/>
    </g>
    <rect id="Rectangle_1645" data-name="Rectangle 1645" width="1.824" height="3.08" transform="translate(511.557 50.009)" fill="#fff"/>
    <rect id="Rectangle_1646" data-name="Rectangle 1646" width="1.824" height="3.08" transform="translate(490.472 50.009)" fill="#fff"/>
    <rect id="Rectangle_1647" data-name="Rectangle 1647" width="1.824" height="3.081" transform="translate(511.557 65.901)" fill="#fff"/>
    <rect id="Rectangle_1648" data-name="Rectangle 1648" width="1.824" height="3.08" transform="translate(490.472 65.862)" fill="#fff"/>
    <path id="Path_26920" data-name="Path 26920" d="M1302.755,551.888h1.954l1.717,5.613,1.859-5.638h1.564l1.859,5.638,1.718-5.613h1.906l-2.831,8.349h-1.587l-1.871-5.424-1.872,5.424h-1.586Z" transform="translate(-825.755 -496.557)" fill="#fff"/>
    <rect id="Rectangle_1649" data-name="Rectangle 1649" width="1.824" height="8.29" transform="translate(490.472 55.331)" fill="#fff"/>
    <path id="Path_26921" data-name="Path 26921" d="M1332.7,558.892l1.078-1.29a3.8,3.8,0,0,0,2.475,1.006c.746,0,1.2-.3,1.2-.782V557.8c0-.463-.284-.7-1.67-1.055-1.67-.427-2.748-.889-2.748-2.534v-.025c0-1.5,1.209-2.5,2.9-2.5a4.8,4.8,0,0,1,3.079,1.054l-.947,1.374a3.888,3.888,0,0,0-2.156-.817c-.7,0-1.066.319-1.066.722v.024c0,.545.355.723,1.788,1.09,1.682.438,2.629,1.042,2.629,2.487v.023c0,1.646-1.255,2.57-3.044,2.57a5.277,5.277,0,0,1-3.517-1.326" transform="translate(-839.32 -496.479)" fill="#fff"/>
    <rect id="Rectangle_1650" data-name="Rectangle 1650" width="1.823" height="8.29" transform="translate(501.196 55.331)" fill="#fff"/>
    <rect id="Rectangle_1651" data-name="Rectangle 1651" width="1.824" height="8.29" transform="translate(511.557 55.331)" fill="#fff"/>
    <path id="Path_26922" data-name="Path 26922" d="M1371.548,555.959v-.023a4.213,4.213,0,0,1,4.322-4.286,4.276,4.276,0,0,1,3.269,1.279l-1.161,1.338a3.059,3.059,0,0,0-2.12-.935,2.456,2.456,0,0,0-2.4,2.581v.024a2.462,2.462,0,0,0,2.4,2.606,2.992,2.992,0,0,0,2.179-.971l1.161,1.172a4.239,4.239,0,0,1-3.4,1.481,4.184,4.184,0,0,1-4.251-4.264" transform="translate(-856.923 -496.46)" fill="#fff"/>
    <path id="Path_26923" data-name="Path 26923" d="M1391.311,551.8h-1.681l-3.553,8.35h1.859l2.511-6.159,2.51,6.159h1.907Z" transform="translate(-863.505 -496.528)" fill="#fff"/>
    <rect id="Rectangle_1652" data-name="Rectangle 1652" width="3.37" height="1.658" transform="translate(506.525 61.963)" fill="#fff"/>
    <rect id="Rectangle_1653" data-name="Rectangle 1653" width="1.824" height="6.632" transform="translate(504.701 55.331)" fill="#fff"/>
    <path id="Path_26981" data-name="Path 26981" d="M1176.954,513.134a14.5,14.5,0,0,0-14.5,14.5h0a14.5,14.5,0,1,0,14.5-14.5Zm.119,26.143a11.636,11.636,0,1,1,11.636-11.636A11.636,11.636,0,0,1,1177.073,539.277Z" transform="translate(-762.188 -479.01)" fill="#93d500"/>
    <path id="Path_26982" data-name="Path 26982" d="M1189.086,516a11.636,11.636,0,0,1,11.636,11.63h2.746a14.5,14.5,0,0,0-14.5-14.5v2.877C1189.007,516.01,1189.046,516,1189.086,516Z" transform="translate(-774.201 -479.01)" fill="#e0e622"/>
    <path id="Path_26983" data-name="Path 26983" d="M1203.467,539.647h-2.746v.006a11.636,11.636,0,0,1-11.636,11.636c-.04,0-.079-.005-.119-.006v2.865a14.455,14.455,0,0,0,10.254-4.247h0A14.457,14.457,0,0,0,1203.467,539.647Z" transform="translate(-774.201 -491.022)" fill="#3bd4ae"/>
    <path id="Path_26984" data-name="Path 26984" d="M1165.437,539.653v-.006h-2.985a14.5,14.5,0,0,0,14.5,14.5v-2.865A11.632,11.632,0,0,1,1165.437,539.653Z" transform="translate(-762.188 -491.022)" fill="#00b2e3"/>
  </g>
</svg>