<svg xmlns="http://www.w3.org/2000/svg" width="112" height="112" viewBox="0 0 112 112">
  <g id="processor" transform="translate(35 34)">
    <g id="Group_17266" data-name="Group 17266">
      <g id="Group_17265" data-name="Group 17265">
        <path id="Path_30986" data-name="Path 30986" d="M43.725,17.287a1.017,1.017,0,1,0,0-2.034H40.674V11.185h3.051a1.017,1.017,0,1,0,0-2.034H40.674V8.135a4.071,4.071,0,0,0-4.067-4.067H35.59V1.017a1.017,1.017,0,0,0-2.034,0V4.067H29.489V1.017a1.017,1.017,0,1,0-2.034,0V4.067H23.388V1.017a1.017,1.017,0,1,0-2.034,0V4.067H17.287V1.017a1.017,1.017,0,1,0-2.034,0V4.067H11.185V1.017a1.017,1.017,0,1,0-2.034,0V4.067H8.135A4.071,4.071,0,0,0,4.067,8.135V9.152H1.017a1.017,1.017,0,0,0,0,2.034H4.067v4.067H1.017a1.017,1.017,0,0,0,0,2.034H4.067v4.067H1.017a1.017,1.017,0,0,0,0,2.034H4.067v4.067H1.017a1.017,1.017,0,1,0,0,2.034H4.067v4.067H1.017a1.017,1.017,0,0,0,0,2.034H4.067v1.017a4.071,4.071,0,0,0,4.067,4.067H9.152v3.051a1.017,1.017,0,1,0,2.034,0V40.674h4.067v3.051a1.017,1.017,0,1,0,2.034,0V40.674h4.067v3.051a1.017,1.017,0,1,0,2.034,0V40.674h4.067v3.051a1.017,1.017,0,1,0,2.034,0V40.674h4.067v3.051a1.017,1.017,0,0,0,2.034,0V40.674h1.017a4.071,4.071,0,0,0,4.067-4.067V35.59h3.051a1.017,1.017,0,1,0,0-2.034H40.674V29.489h3.051a1.017,1.017,0,1,0,0-2.034H40.674V23.388h3.051a1.017,1.017,0,1,0,0-2.034H40.674V17.287h3.051ZM38.64,36.607a2.036,2.036,0,0,1-2.034,2.034H8.135A2.036,2.036,0,0,1,6.1,36.607V8.135A2.036,2.036,0,0,1,8.135,6.1H36.607A2.036,2.036,0,0,1,38.64,8.135Z" fill="#fff" stroke="#000" stroke-width="0.5"/>
        <path id="Path_30987" data-name="Path 30987" d="M112.788,85.333H86.35a1.016,1.016,0,0,0-1.017,1.017v26.438A1.016,1.016,0,0,0,86.35,113.8h26.438a1.016,1.016,0,0,0,1.017-1.017V86.35A1.016,1.016,0,0,0,112.788,85.333Zm-1.017,26.438h-24.4v-24.4h24.4Z" transform="translate(-77.198 -77.198)" fill="#fff" stroke="#000" stroke-width="0.5"/>
      </g>
    </g>
  </g>
  <g id="Ellipse_351" data-name="Ellipse 351" fill="none" stroke="#fff" stroke-width="0.8" opacity="0.43">
    <circle cx="56" cy="56" r="56" stroke="none"/>
    <circle cx="56" cy="56" r="55.6" fill="none"/>
  </g>
</svg>
