<svg xmlns="http://www.w3.org/2000/svg" width="112" height="112" viewBox="0 0 112 112">
  <g id="Ellipse_354" data-name="Ellipse 354" fill="none" stroke="#fff" stroke-width="0.8" opacity="0.43">
    <circle cx="56" cy="56" r="56" stroke="none"/>
    <circle cx="56" cy="56" r="55.6" fill="none"/>
  </g>
  <g id="report_1_" data-name="report (1)" transform="translate(31 32.464)">
    <path id="Path_31027" data-name="Path 31027" d="M240.964,161.929a.964.964,0,1,0-.964-.964A.965.965,0,0,0,240.964,161.929Zm0,0" transform="translate(-216.856 -144.57)" fill="#fff" stroke="#000" stroke-width="0.5"/>
    <path id="Path_31028" data-name="Path 31028" d="M240.964,201.929a.964.964,0,1,0-.964-.964A.965.965,0,0,0,240.964,201.929Zm0,0" transform="translate(-216.856 -180.713)" fill="#fff" stroke="#000" stroke-width="0.5"/>
    <path id="Path_31029" data-name="Path 31029" d="M49.091,9.926,39.448.283A.974.974,0,0,0,38.766,0h-24.3a2.9,2.9,0,0,0-2.893,2.893V5.831c-.32-.029-.642-.044-.964-.044a10.608,10.608,0,1,0,0,21.215c.322,0,.644-.015.964-.044V46.481a2.9,2.9,0,0,0,2.893,2.893H46.48a2.9,2.9,0,0,0,2.893-2.893V10.608a.97.97,0,0,0-.283-.682ZM39.73,3.293l6.351,6.351H39.73ZM11.572,7.769a8.692,8.692,0,0,1,7.659,7.661H11.572ZM1.928,16.394A8.691,8.691,0,0,1,9.643,7.769v8.625a.963.963,0,0,0,.964.963h8.623a8.678,8.678,0,0,1-17.3-.963ZM46.48,47.445H14.465a.965.965,0,0,1-.964-.964V26.6a10.608,10.608,0,0,0,0-20.412V2.893a.965.965,0,0,1,.964-.964H37.8v8.679a.964.964,0,0,0,.964.964h8.679V46.481a.965.965,0,0,1-.964.964Zm0,0" fill="#fff" stroke="#000" stroke-width="0.5"/>
    <path id="Path_31030" data-name="Path 31030" d="M246.964,61.929h10.222a.964.964,0,1,0,0-1.929H246.964a.964.964,0,1,0,0,1.929Zm0,0" transform="translate(-222.278 -54.214)" fill="#fff" stroke="#000" stroke-width="0.5"/>
    <path id="Path_31031" data-name="Path 31031" d="M246.964,101.929h10.222a.964.964,0,1,0,0-1.929H246.964a.964.964,0,1,0,0,1.929Zm0,0" transform="translate(-222.278 -90.356)" fill="#fff" stroke="#000" stroke-width="0.5"/>
    <path id="Path_31032" data-name="Path 31032" d="M46.75,165.786a4.827,4.827,0,0,1-4.822-4.822.964.964,0,0,0-1.929,0,6.758,6.758,0,0,0,6.75,6.75.964.964,0,1,0,0-1.929Zm0,0" transform="translate(-36.143 -144.57)" fill="#fff" stroke="#000" stroke-width="0.5"/>
    <path id="Path_31033" data-name="Path 31033" d="M186.9,266a2.892,2.892,0,0,0-2.4,4.509l-6.7,7.187a2.9,2.9,0,0,0-2,.119l-3.016-3.739a2.893,2.893,0,1,0-5.168-.048l-3.516,3.811a2.893,2.893,0,1,0,1.38,1.349l3.516-3.811a2.9,2.9,0,0,0,2.378.024l3.016,3.739a2.894,2.894,0,1,0,4.971-.29l6.7-7.187A2.893,2.893,0,1,0,186.9,266Zm-24.012,15.429a.964.964,0,1,1,.964-.964A.965.965,0,0,1,162.893,281.429Zm6.365-8.679a.964.964,0,1,1,.964.964A.965.965,0,0,1,169.258,272.75Zm7.715,8.679a.964.964,0,1,1,.964-.964A.965.965,0,0,1,176.972,281.429Zm9.933-11.572a.964.964,0,1,1,.964-.964A.965.965,0,0,1,186.9,269.857Zm0,0" transform="translate(-144.571 -240.349)" fill="#fff" stroke="#000" stroke-width="0.5"/>
    <path id="Path_31034" data-name="Path 31034" d="M280,160.964a.964.964,0,0,0,.964.964h14.658a.964.964,0,1,0,0-1.929H280.964A.964.964,0,0,0,280,160.964Zm0,0" transform="translate(-252.999 -144.57)" fill="#fff" stroke="#000" stroke-width="0.5"/>
    <path id="Path_31035" data-name="Path 31035" d="M295.622,200H280.964a.964.964,0,0,0,0,1.929h14.658a.964.964,0,1,0,0-1.929Zm0,0" transform="translate(-252.999 -180.713)" fill="#fff" stroke="#000" stroke-width="0.5"/>
  </g>
</svg>
